<svg xmlns="http://www.w3.org/2000/svg" xmlns:xlink="http://www.w3.org/1999/xlink" width="161" height="161" viewBox="0 0 161 161">
  <defs>
    <filter id="Elipse_4941" x="0" y="0" width="161" height="161" filterUnits="userSpaceOnUse">
      <feOffset dy="3" input="SourceAlpha"/>
      <feGaussianBlur stdDeviation="3" result="blur"/>
      <feFlood flood-opacity="0.161"/>
      <feComposite operator="in" in2="blur"/>
      <feComposite in="SourceGraphic"/>
    </filter>
  </defs>
  <g id="Grupo_1100724" data-name="Grupo 1100724" transform="translate(-720 -1368.299)">
    <g transform="matrix(1, 0, 0, 1, 720, 1368.3)" filter="url(#Elipse_4941)">
      <circle id="Elipse_4941-2" data-name="Elipse 4941" cx="71.5" cy="71.5" r="71.5" transform="translate(9 6)" fill="#fff"/>
    </g>
    <g id="tela-2" transform="translate(758.896 1404.299)">
      <g id="Grupo_1055992" data-name="Grupo 1055992">
        <path id="Trazado_783475" data-name="Trazado 783475" d="M2.523,2.522a6.738,6.738,0,0,1,8.588-.784l3.074,2.118a6.738,6.738,0,0,0,7.646,0L25.7,1.188a6.738,6.738,0,0,1,7.646,0L37.22,3.856a6.738,6.738,0,0,0,7.646,0l3.872-2.667a6.738,6.738,0,0,1,7.646,0l3.872,2.667a6.738,6.738,0,0,0,7.646,0l3.074-2.118a6.739,6.739,0,0,1,9.372,9.372l-2.118,3.074a6.738,6.738,0,0,0,0,7.646L80.9,25.7a6.738,6.738,0,0,1,0,7.646l-2.667,3.872a6.738,6.738,0,0,0,0,7.646L80.9,48.737a6.738,6.738,0,0,1,0,7.646l-2.667,3.872a6.738,6.738,0,0,0,0,7.646l2.118,3.074a6.739,6.739,0,0,1-9.372,9.372L67.9,78.228a6.738,6.738,0,0,0-7.646,0L56.383,80.9a6.738,6.738,0,0,1-7.646,0l-3.872-2.667a6.738,6.738,0,0,0-7.646,0L33.348,80.9a6.738,6.738,0,0,1-7.646,0l-3.872-2.667a6.738,6.738,0,0,0-7.646,0l-3.074,2.118a6.739,6.739,0,0,1-9.372-9.372L3.857,67.9a6.738,6.738,0,0,0,0-7.646L1.189,56.382a6.738,6.738,0,0,1,0-7.646l2.667-3.872a6.738,6.738,0,0,0,0-7.646L1.189,33.347a6.738,6.738,0,0,1,0-7.646L3.857,21.83a6.738,6.738,0,0,0,0-7.646L1.739,11.11a6.738,6.738,0,0,1,.784-8.588Z" transform="translate(0 0.001)" fill="#fdd89c"/>
      </g>
      <g id="Grupo_1055993" data-name="Grupo 1055993" transform="translate(69.941 0.55)">
        <path id="Trazado_783476" data-name="Trazado 783476" d="M447.206,59.261a6.738,6.738,0,0,0,0-7.646l-2.667-3.872a6.738,6.738,0,0,1,0-7.646l2.667-3.872a6.738,6.738,0,0,0,0-7.646l-2.667-3.872a6.738,6.738,0,0,1,0-7.646l2.118-3.074a6.738,6.738,0,0,0-9.1-9.551,6.738,6.738,0,0,1,2,9.551l-2.118,3.074a6.738,6.738,0,0,0,0,7.646l2.667,3.872a6.738,6.738,0,0,1,0,7.646L437.44,40.1a6.738,6.738,0,0,0,0,7.646l2.667,3.872a6.738,6.738,0,0,1,0,7.646l-2.667,3.872a6.738,6.738,0,0,0,0,7.646l2.118,3.074a6.738,6.738,0,0,1-2,9.551,6.738,6.738,0,0,0,9.1-9.551l-2.118-3.074a6.738,6.738,0,0,1,0-7.646Z" transform="translate(-436.251 -3.428)" fill="#fccd81"/>
      </g>
      <g id="Grupo_1056034" data-name="Grupo 1056034" transform="translate(7.944 7.945)">
        <g id="Grupo_1056013" data-name="Grupo 1056013">
          <g id="Grupo_1055997" data-name="Grupo 1055997" transform="translate(3.707 3.707)">
            <g id="Grupo_1055994" data-name="Grupo 1055994" transform="translate(48.237)">
              <path id="Trazado_783477" data-name="Trazado 783477" d="M374.786,76.552a1.239,1.239,0,0,1-.876-2.115l1.4-1.4a1.239,1.239,0,0,1,1.752,1.752l-1.4,1.4A1.236,1.236,0,0,1,374.786,76.552Z" transform="translate(-373.547 -72.673)" fill="#fbc56d"/>
            </g>
            <g id="Grupo_1055995" data-name="Grupo 1055995" transform="translate(5.659 5.659)">
              <path id="Trazado_783478" data-name="Trazado 783478" d="M109.21,148.77a1.239,1.239,0,0,1-.876-2.115l2.839-2.839a1.239,1.239,0,1,1,1.752,1.752l-2.838,2.839A1.236,1.236,0,0,1,109.21,148.77Zm7.1-7.1a1.239,1.239,0,0,1-.876-2.115l2.839-2.839a1.239,1.239,0,1,1,1.752,1.752l-2.838,2.839A1.235,1.235,0,0,1,116.306,141.673Zm7.1-7.1a1.239,1.239,0,0,1-.876-2.115l2.839-2.839a1.239,1.239,0,1,1,1.752,1.752l-2.838,2.839A1.236,1.236,0,0,1,123.4,134.577Zm7.1-7.1a1.239,1.239,0,0,1-.876-2.115l2.838-2.839a1.239,1.239,0,1,1,1.752,1.752l-2.839,2.839A1.235,1.235,0,0,1,130.5,127.481Zm7.1-7.1a1.239,1.239,0,0,1-.876-2.115l2.838-2.839a1.239,1.239,0,1,1,1.752,1.752l-2.839,2.839A1.235,1.235,0,0,1,137.6,120.384Zm7.1-7.1a1.239,1.239,0,0,1-.876-2.115l2.839-2.839a1.239,1.239,0,1,1,1.752,1.752l-2.839,2.839A1.235,1.235,0,0,1,144.692,113.288Z" transform="translate(-107.971 -107.972)" fill="#fbc56d"/>
            </g>
            <g id="Grupo_1055996" data-name="Grupo 1055996" transform="translate(0 48.237)">
              <path id="Trazado_783479" data-name="Trazado 783479" d="M73.911,377.425a1.239,1.239,0,0,1-.876-2.115l1.4-1.4a1.239,1.239,0,1,1,1.752,1.752l-1.4,1.4A1.234,1.234,0,0,1,73.911,377.425Z" transform="translate(-72.672 -373.547)" fill="#fbc56d"/>
            </g>
          </g>
          <g id="Grupo_1056001" data-name="Grupo 1056001" transform="translate(1.159 1.159)">
            <g id="Grupo_1055998" data-name="Grupo 1055998" transform="translate(40.972)">
              <path id="Trazado_783480" data-name="Trazado 783480" d="M313.578,60.66a1.239,1.239,0,0,1-.876-2.115l1.4-1.4a1.239,1.239,0,1,1,1.752,1.752l-1.4,1.4A1.236,1.236,0,0,1,313.578,60.66Z" transform="translate(-312.339 -56.781)" fill="#fbc56d"/>
            </g>
            <g id="Grupo_1055999" data-name="Grupo 1055999" transform="translate(5.641 5.641)">
              <path id="Trazado_783481" data-name="Trazado 783481" d="M93.205,125.535a1.239,1.239,0,0,1-.876-2.115l2.827-2.826a1.239,1.239,0,0,1,1.752,1.752l-2.827,2.827A1.236,1.236,0,0,1,93.205,125.535Zm7.066-7.066a1.239,1.239,0,0,1-.876-2.115l2.827-2.827a1.239,1.239,0,1,1,1.752,1.752l-2.827,2.827A1.236,1.236,0,0,1,100.271,118.469Zm7.066-7.066a1.239,1.239,0,0,1-.876-2.115l2.827-2.827a1.239,1.239,0,0,1,1.752,1.752l-2.827,2.827A1.236,1.236,0,0,1,107.338,111.4Zm7.066-7.066a1.239,1.239,0,0,1-.876-2.115l2.827-2.827a1.239,1.239,0,0,1,1.752,1.752l-2.827,2.827A1.236,1.236,0,0,1,114.4,104.336Zm7.066-7.066a1.239,1.239,0,0,1-.876-2.115l2.827-2.826a1.239,1.239,0,0,1,1.752,1.752l-2.826,2.827a1.235,1.235,0,0,1-.876.363Z" transform="translate(-91.966 -91.966)" fill="#fbc56d"/>
            </g>
            <g id="Grupo_1056000" data-name="Grupo 1056000" transform="translate(0 40.972)">
              <path id="Trazado_783482" data-name="Trazado 783482" d="M58.019,316.219a1.239,1.239,0,0,1-.876-2.115l1.4-1.4a1.239,1.239,0,0,1,1.752,1.752l-1.4,1.4A1.235,1.235,0,0,1,58.019,316.219Z" transform="translate(-56.78 -312.34)" fill="#fbc56d"/>
            </g>
          </g>
          <g id="Grupo_1056005" data-name="Grupo 1056005" transform="translate(2.598 2.598)">
            <g id="Grupo_1056002" data-name="Grupo 1056002" transform="translate(25.732)">
              <path id="Trazado_783483" data-name="Trazado 783483" d="M227.5,69.638a1.239,1.239,0,0,1-.876-2.115l1.4-1.4a1.239,1.239,0,0,1,1.752,1.752l-1.4,1.4A1.235,1.235,0,0,1,227.5,69.638Z" transform="translate(-226.261 -65.759)" fill="#fbc56d"/>
            </g>
            <g id="Grupo_1056003" data-name="Grupo 1056003" transform="translate(5.457 5.457)">
              <path id="Trazado_783484" data-name="Trazado 783484" d="M101.032,118.492a1.239,1.239,0,0,1-.876-2.115l2.7-2.7a1.239,1.239,0,0,1,1.752,1.752l-2.7,2.7A1.236,1.236,0,0,1,101.032,118.492Zm6.759-6.759a1.239,1.239,0,0,1-.876-2.115l2.7-2.7a1.239,1.239,0,0,1,1.752,1.752l-2.7,2.7A1.236,1.236,0,0,1,107.791,111.734Zm6.759-6.759a1.239,1.239,0,0,1-.876-2.115l2.7-2.7a1.239,1.239,0,1,1,1.752,1.752l-2.7,2.7A1.236,1.236,0,0,1,114.549,104.975Z" transform="translate(-99.793 -99.794)" fill="#fbc56d"/>
            </g>
            <g id="Grupo_1056004" data-name="Grupo 1056004" transform="translate(0 25.732)">
              <path id="Trazado_783485" data-name="Trazado 783485" d="M67,230.141a1.239,1.239,0,0,1-.876-2.115l1.4-1.4a1.239,1.239,0,0,1,1.752,1.752l-1.4,1.4a1.236,1.236,0,0,1-.876.363Z" transform="translate(-65.758 -226.262)" fill="#fbc56d"/>
            </g>
          </g>
          <g id="Grupo_1056009" data-name="Grupo 1056009">
            <g id="Grupo_1056006" data-name="Grupo 1056006" transform="translate(18.568)">
              <path id="Trazado_783486" data-name="Trazado 783486" d="M166.608,53.431a1.239,1.239,0,0,1-.876-2.115l1.4-1.4a1.239,1.239,0,1,1,1.752,1.752l-1.4,1.4A1.236,1.236,0,0,1,166.608,53.431Z" transform="translate(-165.369 -49.552)" fill="#fbc56d"/>
            </g>
            <g id="Grupo_1056007" data-name="Grupo 1056007" transform="translate(5.363 5.363)">
              <path id="Trazado_783487" data-name="Trazado 783487" d="M84.241,94.724a1.239,1.239,0,0,1-.876-2.115l2.641-2.641a1.239,1.239,0,0,1,1.752,1.752l-2.641,2.641a1.235,1.235,0,0,1-.876.363Zm6.6-6.6a1.239,1.239,0,0,1-.876-2.115l2.641-2.641a1.239,1.239,0,0,1,1.752,1.752L91.72,87.759A1.235,1.235,0,0,1,90.844,88.121Z" transform="translate(-83.002 -83.003)" fill="#fbc56d"/>
            </g>
            <g id="Grupo_1056008" data-name="Grupo 1056008" transform="translate(0 18.568)">
              <path id="Trazado_783488" data-name="Trazado 783488" d="M50.79,169.247a1.239,1.239,0,0,1-.876-2.115l1.4-1.4a1.239,1.239,0,1,1,1.752,1.752l-1.4,1.4A1.235,1.235,0,0,1,50.79,169.247Z" transform="translate(-49.551 -165.368)" fill="#fbc56d"/>
            </g>
          </g>
          <g id="Grupo_1056012" data-name="Grupo 1056012" transform="translate(2.124 2.124)">
            <g id="Grupo_1056010" data-name="Grupo 1056010" transform="translate(1.959)">
              <path id="Trazado_783489" data-name="Trazado 783489" d="M76.258,66.678a1.239,1.239,0,0,1-.876-2.115l1.4-1.4a1.239,1.239,0,1,1,1.752,1.752l-1.4,1.4A1.234,1.234,0,0,1,76.258,66.678Z" transform="translate(-75.019 -62.8)" fill="#fbc56d"/>
            </g>
            <g id="Grupo_1056011" data-name="Grupo 1056011" transform="translate(0 1.959)">
              <path id="Trazado_783490" data-name="Trazado 783490" d="M64.039,78.9a1.239,1.239,0,0,1-.876-2.115l1.4-1.4a1.239,1.239,0,0,1,1.752,1.752l-1.4,1.4A1.235,1.235,0,0,1,64.039,78.9Z" transform="translate(-62.8 -75.02)" fill="#fbc56d"/>
            </g>
          </g>
        </g>
        <g id="Grupo_1056033" data-name="Grupo 1056033" transform="translate(10.374 10.374)">
          <g id="Grupo_1056017" data-name="Grupo 1056017">
            <g id="Grupo_1056014" data-name="Grupo 1056014" transform="translate(48.237)">
              <path id="Trazado_783491" data-name="Trazado 783491" d="M416.371,118.136a1.239,1.239,0,0,1-.876-2.115l1.4-1.4a1.239,1.239,0,1,1,1.752,1.752l-1.4,1.4A1.234,1.234,0,0,1,416.371,118.136Z" transform="translate(-415.132 -114.257)" fill="#fbc56d"/>
            </g>
            <g id="Grupo_1056015" data-name="Grupo 1056015" transform="translate(5.659 5.659)">
              <path id="Trazado_783492" data-name="Trazado 783492" d="M150.8,190.355a1.239,1.239,0,0,1-.876-2.115l2.839-2.839a1.239,1.239,0,0,1,1.752,1.752l-2.839,2.839a1.235,1.235,0,0,1-.876.363Zm7.1-7.1a1.239,1.239,0,0,1-.876-2.115l2.839-2.839a1.239,1.239,0,1,1,1.752,1.752l-2.839,2.839A1.236,1.236,0,0,1,157.892,183.259Zm7.1-7.1a1.239,1.239,0,0,1-.876-2.115l2.839-2.839a1.239,1.239,0,0,1,1.752,1.752l-2.839,2.839A1.235,1.235,0,0,1,164.989,176.162Zm7.1-7.1a1.239,1.239,0,0,1-.876-2.115l2.839-2.839a1.239,1.239,0,1,1,1.752,1.752l-2.839,2.839a1.235,1.235,0,0,1-.876.363Zm7.1-7.1a1.239,1.239,0,0,1-.876-2.115l2.839-2.839a1.239,1.239,0,1,1,1.752,1.752l-2.839,2.839A1.236,1.236,0,0,1,179.181,161.97Zm7.1-7.1a1.239,1.239,0,0,1-.876-2.115l2.839-2.839a1.239,1.239,0,0,1,1.752,1.752l-2.839,2.839A1.236,1.236,0,0,1,186.278,154.873Z" transform="translate(-149.557 -149.557)" fill="#fbc56d"/>
            </g>
            <g id="Grupo_1056016" data-name="Grupo 1056016" transform="translate(0 48.237)">
              <path id="Trazado_783493" data-name="Trazado 783493" d="M115.5,419.012a1.239,1.239,0,0,1-.876-2.115l1.4-1.4a1.239,1.239,0,0,1,1.752,1.752l-1.4,1.4A1.236,1.236,0,0,1,115.5,419.012Z" transform="translate(-114.258 -415.133)" fill="#fbc56d"/>
            </g>
          </g>
          <g id="Grupo_1056021" data-name="Grupo 1056021" transform="translate(9.813 9.813)">
            <g id="Grupo_1056018" data-name="Grupo 1056018" transform="translate(40.972)">
              <path id="Trazado_783494" data-name="Trazado 783494" d="M432.263,179.345a1.239,1.239,0,0,1-.876-2.115l1.4-1.4a1.239,1.239,0,0,1,1.752,1.752l-1.4,1.4a1.236,1.236,0,0,1-.876.363Z" transform="translate(-431.024 -175.466)" fill="#fbc56d"/>
            </g>
            <g id="Grupo_1056019" data-name="Grupo 1056019" transform="translate(5.641 5.641)">
              <path id="Trazado_783495" data-name="Trazado 783495" d="M211.89,244.22a1.239,1.239,0,0,1-.876-2.115l2.827-2.827a1.239,1.239,0,0,1,1.752,1.752l-2.827,2.827A1.236,1.236,0,0,1,211.89,244.22Zm7.066-7.066a1.239,1.239,0,0,1-.876-2.115l2.827-2.827a1.239,1.239,0,1,1,1.752,1.752l-2.827,2.826A1.235,1.235,0,0,1,218.956,237.154Zm7.066-7.066a1.239,1.239,0,0,1-.876-2.115l2.826-2.827a1.239,1.239,0,1,1,1.752,1.752l-2.827,2.826A1.236,1.236,0,0,1,226.023,230.088Zm7.066-7.066a1.239,1.239,0,0,1-.876-2.115l2.827-2.826a1.239,1.239,0,1,1,1.752,1.752l-2.827,2.827A1.236,1.236,0,0,1,233.089,223.021Zm7.066-7.066a1.239,1.239,0,0,1-.876-2.115l2.827-2.827a1.239,1.239,0,0,1,1.752,1.752l-2.827,2.826A1.235,1.235,0,0,1,240.155,215.955Z" transform="translate(-210.651 -210.651)" fill="#fbc56d"/>
            </g>
            <g id="Grupo_1056020" data-name="Grupo 1056020" transform="translate(0 40.972)">
              <path id="Trazado_783496" data-name="Trazado 783496" d="M176.7,434.9a1.239,1.239,0,0,1-.876-2.115l1.4-1.4a1.239,1.239,0,0,1,1.752,1.752l-1.4,1.4A1.235,1.235,0,0,1,176.7,434.9Z" transform="translate(-175.465 -431.025)" fill="#fbc56d"/>
            </g>
          </g>
          <g id="Grupo_1056025" data-name="Grupo 1056025" transform="translate(23.613 23.614)">
            <g id="Grupo_1056022" data-name="Grupo 1056022" transform="translate(25.732)">
              <path id="Trazado_783497" data-name="Trazado 783497" d="M423.286,265.423a1.239,1.239,0,0,1-.876-2.115l1.4-1.4a1.239,1.239,0,0,1,1.752,1.752l-1.4,1.4A1.236,1.236,0,0,1,423.286,265.423Z" transform="translate(-422.047 -261.544)" fill="#fbc56d"/>
            </g>
            <g id="Grupo_1056023" data-name="Grupo 1056023" transform="translate(5.457 5.457)">
              <path id="Trazado_783498" data-name="Trazado 783498" d="M296.818,314.277a1.239,1.239,0,0,1-.876-2.115l2.7-2.7a1.239,1.239,0,0,1,1.752,1.752l-2.7,2.7A1.236,1.236,0,0,1,296.818,314.277Zm6.759-6.759a1.239,1.239,0,0,1-.876-2.115l2.7-2.7a1.239,1.239,0,0,1,1.752,1.752l-2.7,2.7A1.236,1.236,0,0,1,303.577,307.519Zm6.759-6.759a1.239,1.239,0,0,1-.876-2.115l2.7-2.7a1.239,1.239,0,1,1,1.752,1.752l-2.7,2.7A1.236,1.236,0,0,1,310.335,300.76Z" transform="translate(-295.579 -295.579)" fill="#fbc56d"/>
            </g>
            <g id="Grupo_1056024" data-name="Grupo 1056024" transform="translate(0 25.732)">
              <path id="Trazado_783499" data-name="Trazado 783499" d="M262.783,425.926a1.239,1.239,0,0,1-.876-2.115l1.4-1.4a1.239,1.239,0,1,1,1.752,1.752l-1.4,1.4A1.236,1.236,0,0,1,262.783,425.926Z" transform="translate(-261.544 -422.047)" fill="#fbc56d"/>
            </g>
          </g>
          <g id="Grupo_1056029" data-name="Grupo 1056029" transform="translate(33.376 33.376)">
            <g id="Grupo_1056026" data-name="Grupo 1056026" transform="translate(18.568)">
              <path id="Trazado_783500" data-name="Trazado 783500" d="M439.493,326.316a1.239,1.239,0,0,1-.876-2.115l1.4-1.4a1.239,1.239,0,1,1,1.752,1.752l-1.4,1.4A1.235,1.235,0,0,1,439.493,326.316Z" transform="translate(-438.254 -322.437)" fill="#fbc56d"/>
            </g>
            <g id="Grupo_1056027" data-name="Grupo 1056027" transform="translate(5.363 5.363)">
              <path id="Trazado_783501" data-name="Trazado 783501" d="M357.127,367.609a1.239,1.239,0,0,1-.876-2.115l2.641-2.641a1.239,1.239,0,0,1,1.752,1.752L358,367.246A1.235,1.235,0,0,1,357.127,367.609Zm6.6-6.6a1.239,1.239,0,0,1-.876-2.115l2.641-2.641A1.239,1.239,0,0,1,367.247,358l-2.641,2.641A1.235,1.235,0,0,1,363.73,361.006Z" transform="translate(-355.888 -355.888)" fill="#fbc56d"/>
            </g>
            <g id="Grupo_1056028" data-name="Grupo 1056028" transform="translate(0 18.568)">
              <path id="Trazado_783502" data-name="Trazado 783502" d="M323.675,442.132a1.239,1.239,0,0,1-.876-2.115l1.4-1.4a1.239,1.239,0,1,1,1.752,1.752l-1.4,1.4A1.234,1.234,0,0,1,323.675,442.132Z" transform="translate(-322.436 -438.254)" fill="#fbc56d"/>
            </g>
          </g>
          <g id="Grupo_1056032" data-name="Grupo 1056032" transform="translate(47.861 47.861)">
            <g id="Grupo_1056030" data-name="Grupo 1056030" transform="translate(1.959)">
              <path id="Trazado_783503" data-name="Trazado 783503" d="M426.243,416.665a1.239,1.239,0,0,1-.876-2.115l1.4-1.4a1.239,1.239,0,0,1,1.752,1.752l-1.4,1.4A1.236,1.236,0,0,1,426.243,416.665Z" transform="translate(-425.004 -412.786)" fill="#fbc56d"/>
            </g>
            <g id="Grupo_1056031" data-name="Grupo 1056031" transform="translate(0 1.959)">
              <path id="Trazado_783504" data-name="Trazado 783504" d="M414.024,428.884a1.239,1.239,0,0,1-.876-2.115l1.4-1.4a1.239,1.239,0,1,1,1.752,1.752l-1.4,1.4A1.235,1.235,0,0,1,414.024,428.884Z" transform="translate(-412.785 -425.005)" fill="#fbc56d"/>
            </g>
          </g>
        </g>
      </g>
    </g>
  </g>
</svg>
