<svg xmlns="http://www.w3.org/2000/svg" xmlns:xlink="http://www.w3.org/1999/xlink" width="126.914" height="125.117" viewBox="0 0 126.914 125.117">
  <defs>
    <clipPath id="clip-path">
      <rect id="Rectángulo_455165" data-name="Rectángulo 455165" width="107.328" height="77.694" fill="#214539"/>
    </clipPath>
  </defs>
  <g id="Grupo_1204785" data-name="Grupo 1204785" transform="translate(17917.539 18625.289)">
    <ellipse id="Elipse_13662" data-name="Elipse 13662" cx="62.559" cy="62.559" rx="62.559" ry="62.559" transform="translate(-17917.539 -18625.289)" fill="#bee8da"/>
    <g id="Grupo_1204783" data-name="Grupo 1204783" transform="matrix(0.998, -0.07, 0.07, 0.998, -17903.111, -18601.879)">
      <g id="Grupo_1204054" data-name="Grupo 1204054" clip-path="url(#clip-path)">
        <path id="Trazado_1261601" data-name="Trazado 1261601" d="M18.756,5.58c-.142.086-.284.171-.425.259q-.738.459-1.46.957l.775,1,1.917,2.588c.822-.557,1.659-1.077,2.512-1.555A27.731,27.731,0,0,1,31.2,13.7,57.118,57.118,0,0,0,26.162,17q-.608.445-1.2.906c.369.523.761,1.088,1.14,1.666l.239.356q.628-.49,1.264-.957a54.742,54.742,0,0,1,5.567-3.58q1.158-.648,2.318-1.22.9-.445,1.806-.844,1.281-.564,2.555-1.033c.653-.24,1.3-.458,1.95-.66q1.45-.452,2.881-.777a26.633,26.633,0,0,1,14.774.468c.623.467,1.236.95,1.832,1.463a30.9,30.9,0,0,0-14.291.348c-.881.215-1.862.535-2.7.778,0,0,.055.052.047.054s.041.048.044.057a9.341,9.341,0,0,0-2.165.683c-.819.307-1.662.609-2.483.971-.656.29-1.324.577-1.979.9-.756.374-1.518.767-2.271,1.189a56.563,56.563,0,0,0-5.843,3.746c-.5.367-.995.745-1.483,1.128l.779,1.162L26.113,25.66l-.564-.841A51.673,51.673,0,0,0,13.865,39.542c-.715-.581-1.391-1.185-2.029-1.806A48.819,48.819,0,0,1,23.729,22.1l-.422-.63c-.319-.487-.649-.966-.966-1.417A51.4,51.4,0,0,0,10,35.779a22.223,22.223,0,0,1-4.037-6.925A34.185,34.185,0,0,1,16.858,12.412L14.951,9.837l-.782-1.01A38.845,38.845,0,0,0,36.347,77.612q.79.051,1.581.071A38.851,38.851,0,0,0,52.3,75.314c-.448-1.14-.948-2.25-1.3-3.1l-.621-1.447,3.1-1.339.169.394a27.439,27.439,0,0,0,2.989-5.006,36.631,36.631,0,0,0,8.7-4.046,34.148,34.148,0,0,1-11.667,9.1L54.1,70.9c.359.852.86,1.966,1.312,3.112A38.908,38.908,0,0,0,65.747,66.9a85.72,85.72,0,0,0,9.479-6.308A86.6,86.6,0,0,0,90.141,45.535c5.291-6.456,8.787-10.72,17.187-11.418l-.2-2.433c-9.431.784-13.6,5.868-18.873,12.3-4.018,4.9-8.793,10.721-17.226,16.658A38.865,38.865,0,0,0,18.756,5.58m-2.9,58.826a26.108,26.108,0,0,1-.418-4.089,51.075,51.075,0,0,0,16.014,5.72,56.461,56.461,0,0,0,12.62.92,23.105,23.105,0,0,1-4.462,6.252,34.435,34.435,0,0,1-23.754-8.8M48.319,71.9c-.149.042-.3.088-.446.128a26.85,26.85,0,0,0,3.726-5.93c.621-.12,1.238-.248,1.846-.392A21.847,21.847,0,0,1,48.319,71.9M69.8,53.8a30.146,30.146,0,0,1-11.943,7.96q-1.46.553-2.976.989-1.067.309-2.155.563c-.6.139-1.2.262-1.806.377l.848,1.857-3.085,1.382-.11-.241A22.126,22.126,0,0,1,43.6,72.888c-.161.022-.322.045-.482.066a27.333,27.333,0,0,0,3.711-6.184c.57-.052,1.136-.117,1.7-.188l-1.083-2.369c-.757.086-1.517.158-2.279.209A53.272,53.272,0,0,1,31.9,63.638a47.911,47.911,0,0,1-16.382-6.1c-.8-.5-1.573-1.012-2.308-1.55q-.511-.375-1-.763A30.488,30.488,0,0,1,9.844,53.15c-.381-.37-.75-.745-1.1-1.128a25.014,25.014,0,0,1-2.4-3.055Q6,48.45,5.685,47.921c-.231-.849-.425-1.7-.589-2.561q.655.964,1.408,1.886A29.772,29.772,0,0,0,8.759,49.7c.428.419.869.83,1.329,1.232.715.625,1.471,1.227,2.26,1.809q.6.443,1.232.87,1.086.734,2.251,1.415A50.886,50.886,0,0,0,32.113,60.9a56.187,56.187,0,0,0,13.939.848c.746-.049,1.486-.117,2.221-.2l1.381-.647.206.452q.506-.072,1.009-.152,1.357-.221,2.676-.515c.776-.173,1.543-.361,2.3-.572.424-.119.846-.241,1.261-.372q.769-.242,1.516-.509a34.9,34.9,0,0,0,9.606-5.164,30.33,30.33,0,0,0,2.357-2.019q-.365.88-.778,1.742M68.152,20.853a34.172,34.172,0,0,1,5.007,15.866,29.367,29.367,0,0,1-13.244,9.6,56,56,0,0,0-.964-8.294,54.678,54.678,0,0,0-7.17-18.56c6.028-1.294,11.7-.866,16.371,1.383m-21.3.032q1.195-.43,2.381-.774a51.97,51.97,0,0,1,7.317,18.377,53.437,53.437,0,0,1,.952,8.659q-1.284.395-2.6.706a55.893,55.893,0,0,0-.976-8.567,54.764,54.764,0,0,0-7.071-18.4M52.478,48.36c-.867.156-1.739.29-2.617.4a56,56,0,0,0-.961-8.214,55,55,0,0,0-6.643-17.7q1.121-.55,2.242-1.029a52.134,52.134,0,0,1,7.027,17.933,53.5,53.5,0,0,1,.951,8.615M65.259,16.836c.129.155.255.313.382.471a30.074,30.074,0,0,0-15.3,0q-1.276.306-2.566.708-1.141.354-2.289.784-1.186.442-2.376.962c-.723.315-1.446.649-2.169,1.008s-1.475.759-2.211,1.169A56.663,56.663,0,0,0,32.869,25.7c-1.327.972-2.606,2-3.834,3.077l2.2-1.4,1.138,1.786q.958-.774,1.939-1.494A54.49,54.49,0,0,1,40.048,24,52.433,52.433,0,0,1,46.5,41a53.843,53.843,0,0,1,.926,7.989c-1.2.087-2.413.129-3.617.133l1.257,2.446c.8-.019,1.6-.048,2.394-.1q1.23-.082,2.439-.22c.867-.1,1.726-.218,2.574-.36.827-.14,1.643-.3,2.449-.484q1.308-.293,2.573-.657c.313-.09.627-.179.936-.276q.769-.241,1.517-.51a34.883,34.883,0,0,0,9.6-5.164,29.788,29.788,0,0,0,3.619-3.3c-.007.149-.016.3-.025.446a28.789,28.789,0,0,1-13.28,10.264q-1.231.5-2.506.907-1.255.4-2.542.732-1.231.31-2.485.553c-.833.16-1.676.293-2.522.408q-1.223.166-2.456.269c-.322.027-.644.044-.966.065l.015.03.713,1.469.439.9c.68-.057,1.356-.124,2.027-.206.825-.1,1.643-.216,2.45-.356q1.283-.223,2.528-.512,1.263-.292,2.484-.653c.241-.071.484-.138.723-.212.628-.2,1.242-.412,1.848-.635a34.8,34.8,0,0,0,9.274-5.039A29.848,29.848,0,0,0,72.542,45.6c-.038.189-.074.377-.114.565A28.806,28.806,0,0,1,59.26,56.325q-1.311.53-2.672.965-1.2.383-2.427.7c-.859.216-1.726.411-2.6.577-.784.148-1.575.27-2.369.379q-1.259.172-2.527.278a53.177,53.177,0,0,1-14.1-.719,48.061,48.061,0,0,1-16.2-5.987q-1.133-.693-2.179-1.441c-.49-.35-.969-.706-1.429-1.073-.752-.6-1.459-1.226-2.128-1.87q-.812-.779-1.539-1.6a24.834,24.834,0,0,1-2.01-2.586,21.115,21.115,0,0,1-2.6-5.262c0-.181,0-.361.005-.542a26.068,26.068,0,0,0,2.968,4.309q.935,1.109,2,2.152.814.794,1.707,1.547,1,.849,2.1,1.643c.519.376,1.048.745,1.6,1.1.7.455,1.429.892,2.177,1.314a51.286,51.286,0,0,0,15.732,5.557,56.561,56.561,0,0,0,11.105.958l-.5-1.036-.734-1.43a53.368,53.368,0,0,1-9.419-.891A48.756,48.756,0,0,1,17.9,47.894q-1.108-.639-2.139-1.328-.888-.593-1.718-1.224-1.068-.811-2.032-1.68t-1.808-1.774a25.693,25.693,0,0,1-1.855-2.227A21.258,21.258,0,0,1,4.983,33c.014-.083.025-.166.04-.248a26.455,26.455,0,0,0,3.891,5.463q.9.985,1.917,1.915.933.855,1.957,1.66.991.779,2.064,1.509c.6.41,1.219.809,1.859,1.194.7.423,1.434.828,2.181,1.22a52.057,52.057,0,0,0,14.553,4.918,56.522,56.522,0,0,0,7.8.9l-1.012-1.968.936-.494a53.1,53.1,0,0,1-7.276-.836,49.786,49.786,0,0,1-13.871-4.673A50.086,50.086,0,0,1,29.784,31.4l-.049-.078L28.446,29.3a52.317,52.317,0,0,0-10.6,13.035q-1.015-.614-1.962-1.27a50.791,50.791,0,0,1,15.2-17.58,54.327,54.327,0,0,1,5.994-3.819c.75-.411,1.5-.794,2.251-1.156q1.046-.5,2.089-.945,1.225-.517,2.443-.946c.745-.262,1.586-.553,2.326-.767.891-.255,1.8-.494,2.678-.674,6.123-1.318,11.678-.738,16.327,1.581.023.028.047.054.07.081M33.542,12.42a31.284,31.284,0,0,0-8.418-5.1c.133-.058.265-.114.4-.17a26.988,26.988,0,0,1,9.627,4.478q-.8.379-1.608.795m4.2-1.925A30.771,30.771,0,0,0,29.43,5.784c.1-.027.189-.056.284-.082a26.645,26.645,0,0,1,9.72,4.15c-.562.2-1.125.417-1.688.643m4.625-1.566A30.741,30.741,0,0,0,34.9,4.7,34.628,34.628,0,0,1,53.314,7.665,33.977,33.977,0,0,0,42.371,8.929" transform="translate(0 0)" fill="#214539"/>
      </g>
    </g>
  </g>
</svg>
