<svg xmlns="http://www.w3.org/2000/svg" width="128" height="128" viewBox="0 0 128 128">
  <g id="Grupo_1204785" data-name="Grupo 1204785" transform="translate(17392 18628)">
    <circle id="Elipse_13663" data-name="Elipse 13663" cx="64" cy="64" r="64" transform="translate(-17392 -18628)" fill="#fea772"/>
    <path id="Trazado_1262713" data-name="Trazado 1262713" d="M69.8,54.4l6.746-15.463,8.9,3.884L78.7,58.286ZM37.19,54.118l-3.446-1.5L29.93,50.951l.165-.166,1.319-1.223,25.573-23.39.1,15.764.023,3.453.114,17.471Zm21.356,9.318-.121-18.551L58.4,41.433l-.107-16.458,1.375-1.252.115,17.191.023,3.441.132,19.688ZM61.26,64.62l-.136-20.752-.022-3.42-.118-17.935,1.39-1.276L62.5,39.952l.024,3.42.151,21.6-.1.226Zm2.585-21.713-.017-2.5-.14-20.38,0-.363,15.763,6.877L63.976,62Zm-36.93,6.728.463-.439,1.314-1.211,1.384-1.271,1.309-1.2L56.969,22.1l1.309-1.2,1.382-1.266,1.276-1.17,1.7.74-.267.245-1.382,1.266-1.308,1.2-1.381,1.264-1.308,1.2L31.4,47.788l-1.308,1.2L28.7,50.276l-.091.1ZM24.2,48.451l.463-.439,1.314-1.21,1.384-1.271,1.309-1.2,1.382-1.266,1.308-1.2L56.946,18.448l1.276-1.169,1.394.608-1.349,1.236-1.308,1.2L31.374,43.737l-1.308,1.2L28.685,46.2l-1.308,1.2-1.393,1.29-.389.373Zm-2.714-1.184,3.152-2.9,1.319-1.224,1.381-1.263,1.308-1.2,1.381-1.264,1.309-1.2L55.508,16.094,56.9,16.7,31.35,40.09l-1.308,1.2L28.66,42.553l-1.308,1.2L25.97,45.015l-1.319,1.223L22.88,47.875Zm-18.458-22L9.775,9.807l8.669,3.782L11.7,29.052ZM31.114,5.452,54.188,15.518,31.326,36.443ZM8.461,41.584,24.249,5.4l.31,37.168-4.393,4.127ZM28.4,4.267l1.394.608.223,32.766L28.636,38.9ZM25.686,3.083l1.394.608L27.327,40.1l-1.38,1.263ZM24.372,0,19.363,11.48,8.586,6.778,0,26.458l10.777,4.7L5.666,42.875l58.1,25.35L68.881,56.51l11.011,4.8,8.586-19.68L79.9,37.891l-2.43-1.06.809-1.853,4.2-9.627Z" transform="translate(-17372.146 -18597.879)" fill="#ffede3"/>
  </g>
</svg>
