<svg xmlns="http://www.w3.org/2000/svg" xmlns:xlink="http://www.w3.org/1999/xlink" width="289.565" height="362.406" viewBox="0 0 289.565 362.406">
  <defs>
    <clipPath id="clip-path">
      <rect id="Rectángulo_401146" data-name="Rectángulo 401146" width="238.714" height="362.406" fill="none"/>
    </clipPath>
    <clipPath id="clip-path-3">
      <rect id="Rectángulo_401144" data-name="Rectángulo 401144" width="24.486" height="11.171" fill="none"/>
    </clipPath>
  </defs>
  <g id="Grupo_1100642" data-name="Grupo 1100642" transform="translate(-790 -11360.135)">
    <g id="BACKGROUND" transform="translate(790 11455.067)">
      <g id="Grupo_32241" data-name="Grupo 32241" transform="translate(0)">
        <path id="Trazado_61861" data-name="Trazado 61861" d="M108.76,115.252c14.311-.494,28.149,4.52,41.839,8.721s28.341,7.654,42.2,4.04c18.63-4.857,31.627-21.19,43.3-36.5s24.874-31.551,43.592-36.058c17.479-4.208,36.336,3.336,49.058,16.039s20.063,29.875,24.645,47.26c11.348,43.061,5.871,92.706-23.615,126.077-23.59,26.7-59.2,39.814-94.375,45.482-25.374,4.089-51.753,4.771-76.427-2.422a124.865,124.865,0,0,1-72.137-56.4C68.408,199.84,51.318,117.237,108.76,115.252Z" transform="translate(-69.318 -34.884)" fill="#673ab7"/>
        <path id="Trazado_61862" data-name="Trazado 61862" d="M191.916,101.657c17.228.319,35.779-6.023,48.665-15.017,7.144-4.986,13.53-11.339,17.342-19.172s4.821-17.266,1.5-25.319c-4.8-11.618-17.412-18.192-29.76-20.541a73.12,73.12,0,0,0-54.811,11.71c-11.066,7.716-22.667,18.7-25.539,32.441-3.095,14.806,9.655,26.165,22.2,31.714A52.83,52.83,0,0,0,191.916,101.657Z" transform="translate(-103.35 -20.373)" fill="#673ab7"/>
      </g>
    </g>
    <g id="Grupo_1100178" data-name="Grupo 1100178" transform="translate(821.895 11360.135)">
      <g id="Grupo_1100177" data-name="Grupo 1100177" clip-path="url(#clip-path)">
        <rect id="Rectángulo_401143" data-name="Rectángulo 401143" width="51.302" height="39.56" transform="translate(118.95 50.395)" fill="#ce4129"/>
        <g id="Grupo_1100176" data-name="Grupo 1100176">
          <g id="Grupo_1100175" data-name="Grupo 1100175" clip-path="url(#clip-path)">
            <path id="Trazado_783766" data-name="Trazado 783766" d="M38.269,275.167a8.931,8.931,0,0,0-1.207-2.3,9.268,9.268,0,0,0-1.978-1.692,47.887,47.887,0,0,0-10.7-5.22c-3.773-1.441-7.308-3.434-10.993-5.087A28.637,28.637,0,0,0,1.737,257.9a1.738,1.738,0,0,0-.756.121,1.332,1.332,0,0,0-.643,1.164,3.406,3.406,0,0,0,.926,2.282c1.862,2.2,4.928,2.826,7.6,3.918,1.558.637,2.971,1.768,4.528,2.34,1.261.463,2.387.567,3.016,1.993-1.767,0-3.368-.965-5.05-1.5s-3.858-.488-4.824.991l-2.023,3.1c-.337.516-.782,1.092-1.4,1.079a3.291,3.291,0,0,0-3.1,3.129,4.67,4.67,0,0,0,2.305,4.033,1.144,1.144,0,0,1,.3,1.335,10.284,10.284,0,0,0-.537,1.372,2.481,2.481,0,0,0,1.568,2.447,19.914,19.914,0,0,0,3,.851,16.845,16.845,0,0,1,4.984,2.971,76.147,76.147,0,0,0,12.509,7.573,23.19,23.19,0,0,1,3.648,1.987c3.787,2.749,5.472,7.515,6.814,11.792q7.036-5.638,14.533-10.666c-5.206-7.529-7.45-16.538-10.855-25.034M9.981,282.281a.489.489,0,0,1-.4-.065l-3.8-1.832c.105-.176.288-.67.5-.7.173-.025.669.4.831.487a14.382,14.382,0,0,0,1.7.828,3.666,3.666,0,0,1,1.09.588.676.676,0,0,1,.226.342.315.315,0,0,1-.153.353" transform="translate(0 -161.587)" fill="#ffa385"/>
            <path id="Trazado_783767" data-name="Trazado 783767" d="M60.326,268.566a8.861,8.861,0,0,0,2.722,4.385,3.86,3.86,0,0,0,4.818.082,4.247,4.247,0,0,0,1.151-2.453,7.772,7.772,0,0,0-1.669-6.116,15.336,15.336,0,0,0-2.2-2.035c-.911-.74-1.741-1.579-2.646-2.329-.85-.7-2.1-2.443-3.171-2.73a1.108,1.108,0,0,0-.849.233,5.446,5.446,0,0,0-1.621,1.618,1.531,1.531,0,0,0-.315,1.031,1.817,1.817,0,0,0,.382.744,27.434,27.434,0,0,1,2.414,3.939,29.774,29.774,0,0,1,.98,3.632" transform="translate(-35.426 -161.244)" fill="#7a6e78"/>
            <path id="Trazado_783768" data-name="Trazado 783768" d="M17.73,181.144c-.11.3.23.941.325,1.2l1.644,4.447,2.291,6.2,2.357,6.377,1.841,4.982.744,2.012a2.865,2.865,0,0,1,1.806.258,50.657,50.657,0,0,1,4.025,4.852l1.961-1.6c-.277-.483-5.114-7.383-8.179-13.172-1.674-3.162-7.543-14.27-7.83-14.769-.155-.27-.522-1.2-.913-.885a.232.232,0,0,0-.072.1" transform="translate(-11.095 -113.393)" fill="#aaa"/>
            <path id="Trazado_783769" data-name="Trazado 783769" d="M28.613,208.877s3.5-8.656,5.512-14.848q.147-.451.291-.9.17-.534.339-1.068.189-.6.378-1.2.205-.656.409-1.313.216-.7.431-1.393.224-.721.446-1.443l.451-1.465.448-1.459.436-1.424.416-1.362.387-1.269.35-1.149.3-1,.25-.823.187-.617.042-.139c.019-.061.022-.159.062-.2a.274.274,0,0,1,.161-.077.541.541,0,0,1,.28.046c.086.028.124.043.153.134a.692.692,0,0,1-.038.329l-.034.186q-.042.234-.085.468l-.106.588-.127.7q-.072.4-.145.8-.08.445-.161.89l-.176.971-.189,1.042-.2,1.1q-.1.578-.209,1.155l-.217,1.2-.223,1.229-.227,1.251q-.114.632-.229,1.263t-.229,1.266l-.228,1.258q-.113.621-.225,1.241t-.22,1.214l-.214,1.177q-.1.566-.2,1.131l-.195,1.075-.183,1.009-.169.933q-.077.423-.153.847l-.136.751-.117.646-.1.531q-.036.2-.074.406-.024.135-.049.271c-.008.042-.015.084-.024.134a2.526,2.526,0,0,0-2.419,1.29c-.677,1.445-2.381,5.986-2.381,5.986Z" transform="translate(-17.928 -110.094)" fill="#aaa"/>
            <path id="Trazado_783770" data-name="Trazado 783770" d="M43.815,237.106a.774.774,0,1,1-.774-.774.774.774,0,0,1,.774.774" transform="translate(-26.483 -148.076)" fill="#7a6e78"/>
            <path id="Trazado_783771" data-name="Trazado 783771" d="M65.14,278.6a6.315,6.315,0,0,1-2.9-5.772c.122-2.5,2.37-1.575,3.684-.576a9.576,9.576,0,0,0,2.229,1.137c1.682.677,3.538,1.628,3.583,3.667.024,1.094-.739,3.225-2.031,3.438-1.217.2-3.527-1.325-4.562-1.894" transform="translate(-38.991 -169.94)" fill="#ffa385"/>
            <path id="Trazado_783772" data-name="Trazado 783772" d="M77.637,319.53a.429.429,0,0,1-.358-.193,15.024,15.024,0,0,1-2.43-9.161c.059-.93.207-1.863.35-2.766a15.812,15.812,0,0,0,.281-4.681.429.429,0,0,1,.85-.12,16.692,16.692,0,0,1-.283,4.934c-.14.883-.284,1.8-.341,2.687a14.161,14.161,0,0,0,2.29,8.634.429.429,0,0,1-.358.665" transform="translate(-46.878 -189.372)" fill="#e28065"/>
            <path id="Trazado_783773" data-name="Trazado 783773" d="M18.051,323.94a1.814,1.814,0,0,1-.441-.054.429.429,0,0,1,.211-.832,1.1,1.1,0,0,0,.852-.163,1.568,1.568,0,0,0,.692-.968,2.6,2.6,0,0,0-.775-2.188,8.451,8.451,0,0,0-2.221-1.5l-.718-.381a.429.429,0,0,1,.4-.758l.719.381a9.233,9.233,0,0,1,2.44,1.663A3.375,3.375,0,0,1,20.2,322.1a2.419,2.419,0,0,1-1.078,1.52,2.035,2.035,0,0,1-1.076.321" transform="translate(-9.664 -198.651)" fill="#e28065"/>
            <path id="Trazado_783774" data-name="Trazado 783774" d="M8.086,308.215c-.045,0-.09,0-.136,0a2.685,2.685,0,0,1-1.617-.639.429.429,0,1,1,.549-.659A1.831,1.831,0,0,0,8,307.355c.577.038,1.015-.3,1.409-1.073a2.934,2.934,0,0,0,.086-2.227A5.825,5.825,0,0,0,8.2,302a10.751,10.751,0,0,0-1.6-1.434.429.429,0,1,1,.505-.693,11.571,11.571,0,0,1,1.731,1.549,6.633,6.633,0,0,1,1.478,2.361,3.792,3.792,0,0,1-.135,2.884,2.333,2.333,0,0,1-2.088,1.546" transform="translate(-3.871 -187.838)" fill="#e28065"/>
            <path id="Trazado_783775" data-name="Trazado 783775" d="M23.047,295.442a2.475,2.475,0,0,0,2.033-4.011,5.93,5.93,0,0,1-.544-.867,3.121,3.121,0,0,1-.183-.933q-.159-1.79-.193-3.588a14.007,14.007,0,0,0-3.011,4.1,8.742,8.742,0,0,0-.738,1.542,3.888,3.888,0,0,0,.119,3c.46.652,1.791.788,2.516.76" transform="translate(-12.638 -179.223)" fill="#e28065"/>
            <path id="Trazado_783776" data-name="Trazado 783776" d="M15.31,272.31a21.883,21.883,0,0,0-.077,2.448,5.45,5.45,0,0,1-3.843,5.438c-1.344.4-3.557.2-4.517-.981a6.1,6.1,0,0,1-.812-4.552,10.913,10.913,0,0,1,2-4.306c1.7-2.4,3.249-4.871,5.143-7.136a1.688,1.688,0,0,1,.606-.522,1.742,1.742,0,0,1,1.284.16l1.8.723c1.165.467-.421,3.421-.653,4.138a20.766,20.766,0,0,0-.938,4.591" transform="translate(-3.727 -164.552)" fill="#7a6e78"/>
            <path id="Trazado_783777" data-name="Trazado 783777" d="M13.3,292.8a6.1,6.1,0,0,1-1.47-1.754,4.282,4.282,0,0,1,1.687-5.519,1.964,1.964,0,0,1,1.233-.284c.829.137,1.292,1,1.672,1.752a24.229,24.229,0,0,0,2.15,3.475,3.878,3.878,0,0,1,.987,2,2.264,2.264,0,0,1-1.573,2.1c-1.889.67-3.349-.614-4.686-1.772" transform="translate(-7.148 -178.71)" fill="#ffa385"/>
            <path id="Trazado_783778" data-name="Trazado 783778" d="M97.935,393.164l7.2,18.6c3.434,8.87,3.647,12.973,11.081,18.9,6.879,5.488,14.166-.972,14.544-8.58.347-6.983.913-8.472-2.178-14.743-2.135-4.333-4.363-8.62-6.59-12.906l-19.2-36.954c-2.114-4.069-5.087-8.7-9.673-8.784-12.877-.232-6.369,15.575-3.893,21.969l8.708,22.492" transform="translate(-53.493 -218.482)" fill="#ffa385"/>
            <path id="Trazado_783779" data-name="Trazado 783779" d="M165.558,377.029c-.107,5.131.121,10.639,3.326,14.778a5.922,5.922,0,0,0,2.712,2.131c3.23,1.066,6.184-2.1,7.792-4.953,3.879-6.891,6.4-14.384,8.768-21.864q5.51-17.4,10.073-35.054c2.543-9.839,4.879-19.956,3.684-30.023a21.461,21.461,0,0,0-3.142-9.593c-3.39-5.025-10.486-7.149-15.855-3.4-3.764,2.628-3.808,7.653-4.7,11.623-3.634,16.144-7.808,32.107-10.21,48.483a224.529,224.529,0,0,0-2.445,27.872" transform="translate(-103.72 -179.914)" fill="#ffa385"/>
            <path id="Trazado_783780" data-name="Trazado 783780" d="M181.287,468.889a.429.429,0,0,1-.4-.264c-2.778-6.69-5.65-13.608-9.973-19.563a.429.429,0,0,1,.695-.5c4.382,6.037,7.274,13,10.071,19.738a.429.429,0,0,1-.232.561.425.425,0,0,1-.164.033" transform="translate(-107.039 -280.938)" fill="#e28065"/>
            <path id="Trazado_783781" data-name="Trazado 783781" d="M177.607,278.325c-4.432,6.545-10.767,48.461-12.069,52.218,2.3.37,21.414,7.393,31.54,8.569,3.076-7.631,7.15-21.943,10-29.66,4.026-10.9,5.116-23.381.379-33.994-1.046-2.344-5.542-10.947-8.051-10.4-9.535,2.065-16.806,5.9-21.8,13.271" transform="translate(-103.72 -166.057)" fill="#f3e3ca"/>
            <path id="Trazado_783782" data-name="Trazado 783782" d="M332.888,174.672a10.962,10.962,0,0,1-.439,4.588,10.418,10.418,0,0,1-3.431,4.171,33.077,33.077,0,0,1-7.436,4.526c.263,5.519,4.891,10.1,10.133,11.851s10.963,1.179,16.391.145c5.764-1.1,11.626-2.8,16.119-6.574,1.171-.984,2.316-2.315,2.162-3.837-.258-2.564-3.726-3.4-5.028-5.622a7.5,7.5,0,0,1-.732-3.554q-.257-6.906-.167-13.818c0-.007-21.22-4.534-23.163-5.078-3-.841-7.368-2.9-6.48,1.813.724,3.843,1.824,7.439,2.07,11.388" transform="translate(-201.491 -100.434)" fill="#ffa385"/>
            <g id="Grupo_1100174" data-name="Grupo 1100174" transform="translate(133.097 67.584)" opacity="0.4" style="mix-blend-mode: multiply;isolation: isolate">
              <g id="Grupo_1100173" data-name="Grupo 1100173">
                <g id="Grupo_1100172" data-name="Grupo 1100172" clip-path="url(#clip-path-3)">
                  <path id="Trazado_783783" data-name="Trazado 783783" d="M356.408,180.976l24.486,5.157s-10.076,16.5-24.486-5.157" transform="translate(-356.408 -180.976)" fill="#5f515c"/>
                </g>
              </g>
            </g>
            <path id="Trazado_783784" data-name="Trazado 783784" d="M522.443,306.217c2.167,4.183,4.185,8.826,2.977,13.648a5.873,5.873,0,0,1-1.576,2.949c-2.471,2.3-8.528,3.644-11.127,1.994-6.266-3.977-11.553-9.047-16.7-14.174-7.981-7.951-33.5-41.441-36.493-50.267a18.619,18.619,0,0,1-1.049-9.292c1.017-5.634,6.533-10.505,12.868-9.774,4.441.512,6.509,4.637,8.914,7.518,9.78,11.715,19.972,23.042,28.738,35.489a189.6,189.6,0,0,1,13.446,21.908" transform="translate(-287.126 -151.145)" fill="#ffa385"/>
            <path id="Trazado_783785" data-name="Trazado 783785" d="M486.838,248.335c6.505,4.491,31.905,38.663,33.711,42.177-1.89,1.371-18.063,17.516-26.567,23.137-6.19-5.42-15.367-15.538-21.395-21.138-8.515-7.909-13.113-21.648-13.678-33.256-.125-2.564.859-16.1,3.342-16.748,9.441-2.463,15.843-.207,24.586,5.828" transform="translate(-287.528 -151.331)" fill="#f3e3ca"/>
            <path id="Trazado_783786" data-name="Trazado 783786" d="M312.425,225.437a63.928,63.928,0,0,0,11.85,2.821,18.736,18.736,0,0,1,5.172,1.151c4.017,1.807,5.126,7.656,6.023,11.488a105.4,105.4,0,0,1,2.22,16.712,315.209,315.209,0,0,1-5.1,82.453c-.522,2.667-1.162,5.487-3.077,7.415-2.259,2.275-5.712,2.748-8.9,3.1-12.9,1.418-25.851,2.837-38.823,2.433-7.555-.236-15.6-1.3-21.341-6.22-6.335-5.43-8.386-14.22-10.082-22.389l-14.724-70.88c-.863-4.158-1.45-9.207,1.764-11.982,1.786-1.542,4.092-1.722,6.177-2.521,2.821-1.081,5.541-2.792,8.241-4.151l16.943-8.527c.267-.134,4.91-2.583,4.91-2.583s4.295,10.044,21.293,8.307c5.525-.565,9.581-3.178,13.085-7.487,1.034.415,3.309.5,4.364.863" transform="translate(-147.221 -140.196)" fill="#f3e3ca"/>
            <path id="Trazado_783787" data-name="Trazado 783787" d="M250.405,347.9a.644.644,0,0,1-.59-.9c6.343-14.607,7-31.479,7.581-46.365a.626.626,0,0,1,.668-.618.643.643,0,0,1,.618.668c-.584,15-1.247,32-7.686,46.828a.644.644,0,0,1-.591.387" transform="translate(-156.491 -187.977)" fill="#e0cdb3"/>
            <path id="Trazado_783788" data-name="Trazado 783788" d="M258.815,337.353h-.007a.644.644,0,0,1-.637-.65,52.181,52.181,0,0,0-3.872-20.16.644.644,0,0,1,1.191-.488,53.5,53.5,0,0,1,3.969,20.662.644.644,0,0,1-.644.637" transform="translate(-159.304 -197.777)" fill="#e0cdb3"/>
            <path id="Trazado_783789" data-name="Trazado 783789" d="M499.828,339.215a.644.644,0,0,1-.622-.48,245.19,245.19,0,0,1-6.537-35.319.644.644,0,1,1,1.279-.141,243.834,243.834,0,0,0,6.5,35.133.643.643,0,0,1-.459.786.652.652,0,0,1-.164.021" transform="translate(-308.684 -189.661)" fill="#e0cdb3"/>
            <path id="Trazado_783790" data-name="Trazado 783790" d="M504.561,343.237a.644.644,0,0,1-.639-.57,26.026,26.026,0,0,1,3-15.324.644.644,0,1,1,1.129.618,24.731,24.731,0,0,0-2.849,14.56.643.643,0,0,1-.566.713.631.631,0,0,1-.074,0" transform="translate(-315.636 -204.89)" fill="#e0cdb3"/>
            <path id="Trazado_783791" data-name="Trazado 783791" d="M225.452,252.275a285.467,285.467,0,0,1-15.582,31.915c-5,8.652-4.909,27.146-2.9,36.364,2.319,10.659,2.913,18.417,3.172,29.418a31.935,31.935,0,0,1-.284,5.933,37.551,37.551,0,0,1-1.928,6.579c-9.353,25.931-15.4,52.83-20.572,79.789-2.9,15.137-3.229,30.8-4.48,46.214,10.518,3.744,21.978,3.371,33.142,3.447,14.4.1,29.289-2.082,43.031,3.343,3.558,1.4,6.989,3.189,10.706,4.092a47.383,47.383,0,0,0,11.569.86l19.607-.151a22,22,0,0,0,7.976-1.453c8.184-3.255,6.932-8.821,6.845-15.382-.113-8.591.882-17.294,1.079-25.9a335.511,335.511,0,0,0-2.16-50.538c-1.921-14.916-7.476-29.259-11.777-43.7a75.315,75.315,0,0,1-2.983-12.629,75.311,75.311,0,0,1,.03-13.42c.979-15.851,4.112-33.483-.727-48.972-2.327-7.446-5.91-14.424-9.06-21.56-3.694-8.371-7.967-19.811-7.967-19.811s-1.561-21.4-8.151-26.386c1.172,6.083,2.569,21.312,3.018,32.993a5.83,5.83,0,0,1-5.827,6.048c-10.085.017-21.688-.067-31.763-.05a5.823,5.823,0,0,1-5.84-5.994c.195-6.616-.721-20,9.477-33.344-7.336,2.483-11.835,9.336-13.037,14.347q-.953,3.973-1.513,8.027a82.178,82.178,0,0,1-3.1,9.917" transform="translate(-114.582 -137.833)" fill="#7696d6"/>
            <path id="Trazado_783792" data-name="Trazado 783792" d="M463.444,440.254c.37.583-.134,2.446-.28,3.193-.59,3.007-1.429,6-2.219,8.963-.768,2.878-1.623,5.733-2.471,8.59-.832,2.8-1.594,7.27-3.9,8.609-1.336.776-5.609-.522-6.515-.4a.426.426,0,0,0-.288.135.632.632,0,0,0-.083.585.56.56,0,0,0,.318.329c1.818.661,5.209,1.427,5.768,1.921,1.128.994-7.475,26.082-9.275,31.913a3.862,3.862,0,0,0-.2,2.606c4.213-7.13,22.47-63.19,20.649-67.728-.7-1.737-5.071-2.428-7.685-2.689-.194-.019-.3.4-.123.463,2.117.754,5.416,2.11,6.306,3.511" transform="translate(-278.276 -273.356)" fill="#5f515c"/>
            <path id="Trazado_783793" data-name="Trazado 783793" d="M484,445.2a.423.423,0,0,1-.121-.018l-6.84-2.009a.429.429,0,0,1,.242-.823l6.84,2.009a.429.429,0,0,1-.12.84" transform="translate(-298.702 -277.151)" fill="#5f515c"/>
            <path id="Trazado_783794" data-name="Trazado 783794" d="M482.92,449.757a.425.425,0,0,1-.121-.018l-7.076-2.078a.429.429,0,1,1,.241-.823l7.076,2.078a.429.429,0,0,1-.121.84" transform="translate(-297.877 -279.96)" fill="#5f515c"/>
            <path id="Trazado_783795" data-name="Trazado 783795" d="M481.654,454.591a.424.424,0,0,1-.121-.018l-7.217-2.12a.429.429,0,1,1,.241-.823l7.217,2.12a.429.429,0,0,1-.12.84" transform="translate(-296.995 -282.963)" fill="#5f515c"/>
            <path id="Trazado_783796" data-name="Trazado 783796" d="M480.317,459.405a.426.426,0,0,1-.121-.017l-7.289-2.141a.429.429,0,0,1,.242-.823l7.289,2.141a.429.429,0,0,1-.121.84" transform="translate(-296.112 -285.966)" fill="#5f515c"/>
            <path id="Trazado_783797" data-name="Trazado 783797" d="M479.021,464.232a.425.425,0,0,1-.121-.017l-7.4-2.174a.429.429,0,1,1,.242-.823l7.4,2.174a.429.429,0,0,1-.12.84" transform="translate(-295.23 -288.97)" fill="#5f515c"/>
            <path id="Trazado_783798" data-name="Trazado 783798" d="M477.664,469.041a.425.425,0,0,1-.121-.017l-7.452-2.189a.429.429,0,1,1,.241-.823l7.452,2.189a.429.429,0,0,1-.12.84" transform="translate(-294.347 -291.974)" fill="#5f515c"/>
            <path id="Trazado_783799" data-name="Trazado 783799" d="M476.3,473.846a.428.428,0,0,1-.121-.018l-7.5-2.2a.429.429,0,0,1,.242-.823l7.495,2.2a.429.429,0,0,1-.121.84" transform="translate(-293.465 -294.976)" fill="#5f515c"/>
            <path id="Trazado_783800" data-name="Trazado 783800" d="M474.931,478.651a.423.423,0,0,1-.121-.018l-7.534-2.213a.429.429,0,0,1,.241-.823l7.534,2.213a.429.429,0,0,1-.12.84" transform="translate(-292.583 -297.98)" fill="#5f515c"/>
            <path id="Trazado_783801" data-name="Trazado 783801" d="M473.544,483.452a.423.423,0,0,1-.121-.018l-7.557-2.22a.429.429,0,1,1,.242-.823l7.557,2.22a.429.429,0,0,1-.12.84" transform="translate(-291.701 -300.984)" fill="#5f515c"/>
            <path id="Trazado_783802" data-name="Trazado 783802" d="M472.143,488.245a.423.423,0,0,1-.121-.018l-7.564-2.222a.429.429,0,0,1,.241-.823l7.564,2.222a.429.429,0,0,1-.12.84" transform="translate(-290.818 -303.986)" fill="#5f515c"/>
            <path id="Trazado_783803" data-name="Trazado 783803" d="M470.735,493.039a.422.422,0,0,1-.121-.017L463.05,490.8a.429.429,0,0,1,.241-.823l7.564,2.222a.429.429,0,0,1-.12.84" transform="translate(-289.936 -306.989)" fill="#5f515c"/>
            <path id="Trazado_783804" data-name="Trazado 783804" d="M469.327,497.833a.422.422,0,0,1-.121-.018l-7.564-2.222a.429.429,0,0,1,.241-.823l7.564,2.222a.429.429,0,0,1-.121.84" transform="translate(-289.054 -309.993)" fill="#5f515c"/>
            <path id="Trazado_783805" data-name="Trazado 783805" d="M467.919,502.625a.423.423,0,0,1-.121-.018l-7.564-2.222a.429.429,0,0,1,.241-.823l7.564,2.222a.429.429,0,0,1-.121.84" transform="translate(-288.172 -312.995)" fill="#5f515c"/>
            <path id="Trazado_783806" data-name="Trazado 783806" d="M466.565,507.436a.425.425,0,0,1-.121-.018l-7.619-2.238a.429.429,0,1,1,.242-.823l7.619,2.238a.429.429,0,0,1-.12.84" transform="translate(-287.289 -316)" fill="#5f515c"/>
            <path id="Trazado_783807" data-name="Trazado 783807" d="M465.1,512.211a.422.422,0,0,1-.121-.017l-7.564-2.222a.429.429,0,0,1,.241-.823l7.564,2.222a.429.429,0,0,1-.12.84" transform="translate(-286.407 -319.002)" fill="#5f515c"/>
            <path id="Trazado_783808" data-name="Trazado 783808" d="M463.433,516.928a.43.43,0,0,1-.121-.017l-7.3-2.145a.429.429,0,0,1,.242-.823l7.3,2.145a.429.429,0,0,1-.121.84" transform="translate(-285.525 -322.006)" fill="#5f515c"/>
            <path id="Trazado_783809" data-name="Trazado 783809" d="M461.241,521.492a.426.426,0,0,1-.121-.018L454.6,519.56a.429.429,0,1,1,.242-.823l6.518,1.915a.429.429,0,0,1-.121.84" transform="translate(-284.643 -325.009)" fill="#5f515c"/>
            <path id="Trazado_783810" data-name="Trazado 783810" d="M454.723,509.681s.308,9.331.977,15.808q.049.472.1.944.061.557.123,1.114.07.627.143,1.255.078.683.158,1.366.084.724.17,1.447.088.75.177,1.5l.182,1.523.182,1.515q.089.739.179,1.479l.171,1.413.16,1.317.146,1.192q.063.519.127,1.038.052.427.1.854l.078.64.018.143c.008.064.044.155.025.21a.274.274,0,0,1-.116.136.546.546,0,0,1-.274.072c-.09.009-.131.011-.195-.061a.7.7,0,0,1-.1-.316l-.044-.183-.112-.462-.141-.581-.167-.69-.191-.789-.213-.879-.233-.959-.25-1.029q-.132-.545-.264-1.09l-.277-1.141-.287-1.182-.294-1.214-.3-1.235-.3-1.248q-.152-.625-.3-1.25l-.3-1.243-.3-1.226-.291-1.2-.282-1.163q-.135-.558-.271-1.117l-.258-1.061q-.12-.5-.242-1l-.223-.921q-.1-.418-.2-.836l-.18-.742-.155-.638-.127-.524-.1-.4-.065-.268-.032-.133a2.525,2.525,0,0,0,1.688-2.159c.034-1.6-.249-6.437-.249-6.437Z" transform="translate(-282.489 -319.091)" fill="#aaa"/>
            <path id="Trazado_783811" data-name="Trazado 783811" d="M448.877,481.2l1.941-.07a1.744,1.744,0,0,0,1.238-.373,1.7,1.7,0,0,0,.342-.724c.814-2.838,1.234-5.723,1.81-8.609a10.909,10.909,0,0,0,.088-4.748,6.1,6.1,0,0,0-2.587-3.833c-1.356-.69-3.462.021-4.527.934a5.451,5.451,0,0,0-1.31,6.529,21.86,21.86,0,0,1,.921,2.269,20.778,20.778,0,0,1,1,4.577c.078.749-.174,4.093,1.08,4.047m-1.518-12.162c-.145-2.213.862-4.081,2.249-4.172s2.629,1.63,2.774,3.843-.862,4.081-2.249,4.172-2.629-1.63-2.774-3.843" transform="translate(-279.018 -289.824)" fill="#f09d4e"/>
            <path id="Trazado_783812" data-name="Trazado 783812" d="M452.907,547.322c.19-.279.01-1.013-.02-1.3-.172-1.645-.46-2.405-.633-4.05q-.36-3.439-.72-6.878-.371-3.538-.741-7.076-.289-2.764-.579-5.527-.117-1.116-.234-2.232a3,3,0,0,1-1.765-.729c-.612-.658-2.827-5.961-2.827-5.961l-2.4,1.117c.156.561,3.277,8.808,4.888,15.47.88,3.639,4.075,15.535,4.236,16.116.087.313.22,1.351.7,1.133a.243.243,0,0,0,.1-.086" transform="translate(-277.558 -321.784)" fill="#aaa"/>
            <path id="Trazado_783813" data-name="Trazado 783813" d="M454.886,540.109a.81.81,0,1,1,.585.985.81.81,0,0,1-.585-.985" transform="translate(-284.998 -338.029)" fill="#7a6e78"/>
            <path id="Trazado_783814" data-name="Trazado 783814" d="M423.856,477.073a16.069,16.069,0,0,0,1.7,2.631c.733.986,1.357,2.052,2.081,3.045.68.934,1.5,3.019,2.509,3.588a1.16,1.16,0,0,0,.921-.016,5.689,5.689,0,0,0,2.062-1.222,1.6,1.6,0,0,0,.586-.964,1.9,1.9,0,0,0-.2-.853,28.739,28.739,0,0,1-1.429-4.618,31.053,31.053,0,0,1-.054-3.936,9.272,9.272,0,0,0-1.626-5.15c-1.138-1.431-3.264-2.213-4.864-1.329a4.443,4.443,0,0,0-1.8,2.19,8.132,8.132,0,0,0,.111,6.633m2.507-7.15c1.4-.393,3.045,1.1,3.672,3.333s0,4.365-1.4,4.758-3.045-1.1-3.672-3.333,0-4.365,1.4-4.758" transform="translate(-265.093 -293.152)" fill="#f09d4e"/>
            <path id="Trazado_783815" data-name="Trazado 783815" d="M418.6,465.321a3.727,3.727,0,0,1-1.122-1.082,4.209,4.209,0,0,0-1.1-1.111,2.375,2.375,0,0,0-2.832.477,1.028,1.028,0,0,0-.315.573.472.472,0,0,0,.319.517c.223.049.428-.114.623-.23a2.037,2.037,0,0,1,2.244.254,3.324,3.324,0,0,1,1.1,2.075c.049.3.071.6.137.9a.249.249,0,0,0,.07.143.232.232,0,0,0,.2.023,2.024,2.024,0,0,0,.969-.705l1.1-1.2c.361-.4.2-.593-.239-.518a1.643,1.643,0,0,1-1.153-.11" transform="translate(-258.917 -290.003)" fill="#f09d4e"/>
            <path id="Trazado_783816" data-name="Trazado 783816" d="M388.195,604.367c2.721,2.5,9.408.01,12.483-.312,4-.42,8.6-.6,12.208-2.555a1.721,1.721,0,0,1,1.154-.321,1.771,1.771,0,0,1,.723.466c3.359,2.952,7.676,1.91,11.742,2.3a1.16,1.16,0,0,0,.975-.2,1.135,1.135,0,0,0,.192-.858c-.255-4.885-1.337-9.683-2.188-14.5-.833-4.715-1.447-9.467-1.908-14.231-.431-4.457-.729-8.927-.951-13.4q-.166-3.357-.282-6.717-.059-1.68-.111-3.36a9.06,9.06,0,0,0-.175-2.982c-2.68.728-5.363,1.456-7.993,2.353-1.312.447-2.616.928-3.885,1.486a8.5,8.5,0,0,0-2.733,2.4,20.01,20.01,0,0,0-7.014-2.827c-1.374-.268-10.693-.626-14.437-1.111a1.379,1.379,0,0,0-1.552,1.438,26.474,26.474,0,0,0,.416,3.418c.688,3.828,1.3,10.158,1.523,14.041.388,6.757.719,13.524.617,20.295-.058,3.812-1.483,11.347.7,14.6a3.184,3.184,0,0,0,.493.575" transform="translate(-240.877 -343.168)" fill="#7696d6"/>
            <path id="Trazado_783817" data-name="Trazado 783817" d="M390.8,604.83a5.921,5.921,0,0,1-4.115-1.274,3.862,3.862,0,0,1-.592-.689c-1.773-2.638-1.358-7.633-1.024-11.646.1-1.237.2-2.4.214-3.319.1-6.943-.247-13.81-.616-20.247-.226-3.938-.833-10.17-1.514-13.964a26.842,26.842,0,0,1-.425-3.5A2.022,2.022,0,0,1,385,548.083c2,.259,5.609.481,8.789.677,3.11.192,5.049.315,5.688.44a20.83,20.83,0,0,1,6.763,2.619,7.892,7.892,0,0,1,2.6-2.153c1.138-.5,2.388-.978,3.936-1.505,2.651-.9,5.387-1.647,8.032-2.365l.535-.146.223.508a5.733,5.733,0,0,1,.244,2.437c-.011.281-.022.548-.015.782q.052,1.679.111,3.358.119,3.355.281,6.708c.243,4.915.554,9.288.949,13.368.492,5.09,1.114,9.729,1.9,14.182.185,1.046.381,2.092.577,3.137a87.38,87.38,0,0,1,1.62,11.441,1.477,1.477,0,0,1-1.872,1.732c-1.045-.1-2.138-.105-3.2-.109-3.076-.01-6.257-.021-8.909-2.353a1.474,1.474,0,0,0-.442-.321c-.161-.04-.454.124-.691.252-3.247,1.757-7.262,2.138-10.805,2.474-.56.053-1.112.1-1.654.162-.736.077-1.742.3-2.806.527a29.987,29.987,0,0,1-6.064.893m-6.059-55.478a.718.718,0,0,0-.491.194.741.741,0,0,0-.237.582,25.64,25.64,0,0,0,.406,3.336,141.976,141.976,0,0,1,1.532,14.117c.371,6.461.724,13.354.618,20.341-.015.958-.113,2.147-.219,3.406-.317,3.813-.712,8.557.809,10.821a2.564,2.564,0,0,0,.394.458h0c1.792,1.646,5.979.737,9.036.072a29.941,29.941,0,0,1,2.945-.549c.546-.057,1.1-.11,1.667-.163,3.588-.341,7.3-.692,10.3-2.318a2.292,2.292,0,0,1,1.605-.382,2.2,2.2,0,0,1,.96.572c2.332,2.051,5.137,2.06,8.106,2.07,1.087,0,2.21.008,3.315.115a.982.982,0,0,0,.454-.009,1.563,1.563,0,0,0,.008-.375,86.366,86.366,0,0,0-1.6-11.271c-.2-1.05-.393-2.1-.579-3.151-.793-4.486-1.419-9.158-1.915-14.282-.4-4.1-.708-8.493-.953-13.429q-.166-3.362-.282-6.726-.06-1.681-.111-3.363c-.009-.261,0-.56.016-.873a9.276,9.276,0,0,0-.01-1.335c-2.428.66-4.919,1.35-7.324,2.17-1.512.515-2.73.981-3.834,1.465a8.112,8.112,0,0,0-2.5,2.232l-.365.428-.473-.305a19.5,19.5,0,0,0-6.788-2.735c-.589-.115-2.984-.263-5.521-.419-3.2-.2-6.829-.42-8.876-.685a.725.725,0,0,0-.1-.007" transform="translate(-239.798 -341.883)" fill="#4e76b7"/>
            <path id="Trazado_783818" data-name="Trazado 783818" d="M413.683,683.99a.741.741,0,0,1-.09-.006,13,13,0,0,1-10.341-8.646.644.644,0,0,1,1.223-.4,11.689,11.689,0,0,0,9.3,7.773.644.644,0,0,1-.088,1.281" transform="translate(-252.642 -422.611)" fill="#4e76b7"/>
            <path id="Trazado_783819" data-name="Trazado 783819" d="M456.977,669.7a.643.643,0,0,1-.431-1.121,18.3,18.3,0,0,0,6.507-13.179.644.644,0,0,1,1.286.048,19.546,19.546,0,0,1-6.931,14.086.642.642,0,0,1-.431.165" transform="translate(-285.921 -410.26)" fill="#4e76b7"/>
            <path id="Trazado_783820" data-name="Trazado 783820" d="M305.1,811.122a.642.642,0,0,1-.373-.12,62.158,62.158,0,0,1-20.952-25.976c-1.265-2.936-2.314-6-3.328-8.964q-.466-1.363-.938-2.724a201.991,201.991,0,0,0-25.946-50.2.644.644,0,0,1,1.05-.745,203.3,203.3,0,0,1,26.111,50.521q.477,1.363.941,2.732c1.006,2.941,2.046,5.981,3.292,8.871a60.861,60.861,0,0,0,20.518,25.438.643.643,0,0,1-.374,1.167" transform="translate(-158.796 -452.454)" fill="#4e76b7"/>
            <path id="Trazado_783821" data-name="Trazado 783821" d="M352.181,780.861a22.738,22.738,0,0,1-10.032-2.3c-5.26-2.6-9.189-7.082-12.989-11.416-3.2-3.656-6.518-7.435-10.594-10.026a.643.643,0,1,1,.69-1.085c4.232,2.69,7.607,6.54,10.872,10.263,3.717,4.24,7.561,8.624,12.591,11.111a21.257,21.257,0,0,0,29.06-10.925.643.643,0,1,1,1.189.491,22.935,22.935,0,0,1-12.9,12.479,22.488,22.488,0,0,1-7.892,1.409" transform="translate(-199.414 -473.637)" fill="#4e76b7"/>
            <path id="Trazado_783822" data-name="Trazado 783822" d="M255.638,606.021a6.374,6.374,0,0,0,.488,1.126c2.114,3.777,8.876,4.365,12.576,3.2,2.775-.874,4.84-1.987,7.92-2a35.394,35.394,0,0,1,9.319,1.468c1.925.523,3.952,1.107,5.881.6a7.3,7.3,0,0,0,4.129-3.311c2.188-3.476,2.264-7.686,2.744-11.661.573-4.747.931-9.519,1.154-14.3.223-4.792.3-9.589.316-14.385,0-1.044-.465-8.263-.381-11.848a1.278,1.278,0,0,0-1.669-1.265,41.73,41.73,0,0,1-11.914,2.126,29.317,29.317,0,0,1-6.242-.132c-1.513-.276-2.685-.335-3.691,1.185-.614.927-.19,2.178-.255,3.288-1.072-5.537-7.135-5.968-11.6-6.975-1.388-.313-4.691-1.819-5.827-.714-1.523,1.49.16,7.809.143,9.813q-.065,7.437-.607,14.858-.6,8.278-1.8,16.5c-.494,3.4-1.88,8.784-.682,12.428" transform="translate(-159.876 -345.877)" fill="#7696d6"/>
            <path id="Trazado_783823" data-name="Trazado 783823" d="M263.72,610.449c-3.629,0-7.627-1.2-9.235-4.071a7.1,7.1,0,0,1-.539-1.239h0c-1.017-3.1-.286-7.248.3-10.585.135-.767.262-1.488.356-2.136.791-5.439,1.395-10.975,1.794-16.453.359-4.911.562-9.9.606-14.818a21.886,21.886,0,0,0-.3-2.6c-.539-3.62-.855-6.483.352-7.663,1.151-1.121,3.426-.389,5.252.2.468.151.873.281,1.166.347.568.128,1.161.247,1.767.368,3.238.648,7.095,1.419,9.114,4.224a2.484,2.484,0,0,1,.3-.631c1.231-1.857,2.757-1.753,4.344-1.463a25.231,25.231,0,0,0,5.452.15l.649-.028a41.113,41.113,0,0,0,11.73-2.092,1.855,1.855,0,0,1,1.722.264,1.956,1.956,0,0,1,.8,1.625c-.057,2.441.143,6.575.276,9.31.062,1.267.106,2.182.1,2.525-.016,5.522-.117,10.1-.317,14.413-.241,5.195-.62,9.886-1.157,14.343-.078.646-.145,1.3-.213,1.952-.352,3.411-.715,6.939-2.626,9.974a7.894,7.894,0,0,1-4.509,3.591c-2.038.538-4.074-.016-6.041-.552l-.173-.047a34.743,34.743,0,0,0-9.148-1.446,15.944,15.944,0,0,0-5.715,1.276c-.644.232-1.306.47-2.014.693a13.926,13.926,0,0,1-4.1.573m-8.551-5.713a5.761,5.761,0,0,0,.439,1.012c1.924,3.438,8.288,4.016,11.82,2.9.691-.217,1.336-.45,1.965-.676a17.181,17.181,0,0,1,6.146-1.351h.079a36.554,36.554,0,0,1,9.411,1.49l.174.047c1.8.492,3.672,1,5.375.549a6.628,6.628,0,0,0,3.748-3.032c1.75-2.781,2.1-6.157,2.434-9.421.068-.661.136-1.321.215-1.974.534-4.425.91-9.085,1.149-14.249.2-4.292.3-8.854.316-14.357,0-.31-.045-1.258-.1-2.459-.134-2.754-.336-6.915-.277-9.4a.669.669,0,0,0-.273-.556.582.582,0,0,0-.543-.085,42.424,42.424,0,0,1-12.1,2.161l-.645.027a26.511,26.511,0,0,1-5.738-.169c-1.479-.269-2.26-.267-3.039.907a2.934,2.934,0,0,0-.187,1.787,8.622,8.622,0,0,1,.039,1.182.644.644,0,0,1-1.275.085c-.852-4.4-5.155-5.264-9.315-6.1-.616-.123-1.22-.244-1.8-.374-.349-.079-.779-.217-1.277-.377-1.176-.379-3.365-1.082-3.96-.5-.832.814-.3,4.406.022,6.552a21.734,21.734,0,0,1,.315,2.8c-.044,4.948-.249,9.961-.609,14.9-.4,5.509-1.009,11.075-1.8,16.544-.1.66-.225,1.393-.363,2.174-.562,3.194-1.262,7.17-.345,9.96" transform="translate(-158.795 -344.793)" fill="#4e76b7"/>
            <path id="Trazado_783824" data-name="Trazado 783824" d="M298.034,663.971a.643.643,0,0,1-.186-1.259,23.907,23.907,0,0,0,6.38-3.237c7.232-5.146,11.5-13.541,15.274-20.947a.643.643,0,1,1,1.147.584c-3.837,7.538-8.185,16.082-15.675,21.412a25.261,25.261,0,0,1-6.753,3.419.642.642,0,0,1-.187.028" transform="translate(-186.334 -399.857)" fill="#4e76b7"/>
            <path id="Trazado_783825" data-name="Trazado 783825" d="M387.314,305.955a2.149,2.149,0,0,0-4.22.766,1.927,1.927,0,0,0,.851,1.265l1.244,24.317a.5.5,0,0,0,1-.035l.383-24.427a1.975,1.975,0,0,0,.743-1.885" transform="translate(-240.013 -190.682)" fill="#5f515c"/>
            <path id="Trazado_783826" data-name="Trazado 783826" d="M389.114,339.042a.149.149,0,0,1-.149-.145l-.5-23.6a.149.149,0,0,1,.145-.152c.086.017.15.063.152.145l.5,23.6a.149.149,0,0,1-.145.152Z" transform="translate(-243.394 -197.458)" fill="#544551"/>
            <path id="Trazado_783827" data-name="Trazado 783827" d="M401.747,306.477a2.149,2.149,0,0,0-4.288-.036,1.927,1.927,0,0,0,.6,1.4l-3.323,24.121a.5.5,0,0,0,.989.152l4.941-23.925a1.976,1.976,0,0,0,1.082-1.713" transform="translate(-247.323 -190.761)" fill="#5f515c"/>
            <path id="Trazado_783828" data-name="Trazado 783828" d="M396.016,338.741l-.025,0a.148.148,0,0,1-.122-.171l3.915-23.278a.146.146,0,0,1,.171-.121.148.148,0,0,1,.121.171l-3.914,23.278a.149.149,0,0,1-.146.124" transform="translate(-248.035 -197.471)" fill="#544551"/>
            <path id="Trazado_783829" data-name="Trazado 783829" d="M413.756,313.639a1.5,1.5,0,0,0-2.995-.025,1.347,1.347,0,0,0,.418.979l-2.32,16.844a.352.352,0,0,0,.69.106L413,314.835a1.38,1.38,0,0,0,.756-1.2" transform="translate(-256.174 -195.63)" fill="#5f515c"/>
            <path id="Trazado_783830" data-name="Trazado 783830" d="M409.754,336.17h-.017a.1.1,0,0,1-.085-.119l2.733-16.256a.1.1,0,0,1,.119-.085.1.1,0,0,1,.085.119l-2.733,16.257a.1.1,0,0,1-.1.086" transform="translate(-256.671 -200.316)" fill="#544551"/>
            <path id="Trazado_783831" data-name="Trazado 783831" d="M304.482,541.107a2.149,2.149,0,0,0-4.031,1.465,1.927,1.927,0,0,0,1.051,1.1l5.316,23.761a.5.5,0,0,0,.98-.2l-3.732-24.143a1.975,1.975,0,0,0,.415-1.984" transform="translate(-188.18 -338.23)" fill="#5f515c"/>
            <path id="Trazado_783832" data-name="Trazado 783832" d="M311.3,574.05a.149.149,0,0,1-.146-.12l-4.467-23.179a.149.149,0,0,1,.292-.056l4.467,23.178a.149.149,0,0,1-.118.174.14.14,0,0,1-.028,0" transform="translate(-192.157 -344.969)" fill="#544551"/>
            <path id="Trazado_783833" data-name="Trazado 783833" d="M255.757,458.639l6.921-1.267-6.162,25.607-5.587-4.277a2.381,2.381,0,0,1-.867-2.447l3.809-15.831a2.381,2.381,0,0,1,1.886-1.785" transform="translate(-156.638 -286.571)" fill="#544551"/>
            <path id="Trazado_783834" data-name="Trazado 783834" d="M316.772,469.024h0a1.234,1.234,0,0,0-.911-1.488l-42.243-10.165-6.162,25.608L309.7,493.143a1.234,1.234,0,0,0,1.488-.911,3.684,3.684,0,0,1,5.441-2.318l12.458,7.285a1.523,1.523,0,0,0,2.249-.958l5.2-21.622a1.523,1.523,0,0,0-1.567-1.877l-14.408.821a3.684,3.684,0,0,1-3.791-4.54" transform="translate(-167.577 -286.571)" fill="#5f515c"/>
            <path id="Trazado_783835" data-name="Trazado 783835" d="M294.405,394.928l-8.727-2.1,4.094-36.534a2.454,2.454,0,0,1,3.013-2.113l10.109,2.433a2.454,2.454,0,0,1,1.782,3.072Z" transform="translate(-178.995 -221.873)" fill="#544551"/>
            <path id="Trazado_783836" data-name="Trazado 783836" d="M317.393,328.919h0a2.126,2.126,0,0,0-2.564,1.57l-2.068,8.594,4.134.995,2.068-8.594a2.126,2.126,0,0,0-1.57-2.564" transform="translate(-195.964 -206.051)" fill="#544551"/>
            <path id="Trazado_783837" data-name="Trazado 783837" d="M307.275,270.785a.831.831,0,0,1-.091,0,.857.857,0,0,1-.763-.943c.726-6.918-1.245-10.315-3.331-13.913-.5-.855-1.009-1.739-1.489-2.676-3.433-6.7-5.912-11.54-2.758-20.261a.858.858,0,1,1,1.613.584c-2.772,7.661-.99,11.748,2.671,18.895.46.9.961,1.762,1.446,2.6,2.133,3.677,4.338,7.479,3.553,14.953a.858.858,0,0,1-.852.768" transform="translate(-186.335 -145.627)" fill="#544551"/>
            <path id="Trazado_783838" data-name="Trazado 783838" d="M435.323,495.09a3.359,3.359,0,0,1,.425-3.833c2.083-2.855,4.98-4.57,7.586-6.963a29.209,29.209,0,0,1,6.946-4.448c1.994-1.494-.015-3.244-1.892-3.037-2.116.233-4.986,2.668-7.3,3.256a1.846,1.846,0,0,1-1.391-.029,1.421,1.421,0,0,1-.594-1.006,3.025,3.025,0,0,1,.145-1.6,3.77,3.77,0,0,1,.981-1.073q1.245-1.169,2.542-2.283a7.09,7.09,0,0,1,3.061-1.851,34.676,34.676,0,0,1,3.56-.408c3-.255,6.622,1.629,9.257,2.85,2.093.971,2.9,2.569,5.066,1.282,1.5-.891,2.941-4.519,3.835-6.022,2.448-4.112,4.658-8.36,6.812-12.632,5.04-10,14.594-39.259,30.733-33.636a9.62,9.62,0,0,1,5.828,7.223,18.282,18.282,0,0,1-.979,9.538c-2.462,7.239-7.721,11.534-12.09,17.637-6.567,9.172-15.006,16.789-21.949,25.738-4.56,5.879-6.826,10.451-14.621,11.448-3.762.481-7.036,3.209-9.839,5.572-1.411,1.19-3.015,2.448-4.858,2.358-1.879-.093-.986-3.812,3.945-7.625a31.839,31.839,0,0,0,5.337-5.013c1.461-1.818-4.727,1.175-13.708,7.351a3.769,3.769,0,0,1-3.176.483c-1.042-.328-1.758-1.747-1.025-2.554a2.377,2.377,0,0,1-2.637-.722" transform="translate(-272.488 -265.001)" fill="#ffa385"/>
            <path id="Trazado_783839" data-name="Trazado 783839" d="M441.9,599.811a.357.357,0,0,1-.248-.614,50.967,50.967,0,0,1,16.114-10.46.357.357,0,1,1,.268.662,50.241,50.241,0,0,0-15.886,10.311.356.356,0,0,1-.248.1" transform="translate(-276.653 -368.863)" fill="#e28065"/>
            <path id="Trazado_783840" data-name="Trazado 783840" d="M315.124,110.8a13.75,13.75,0,0,1-5.082.834,4.676,4.676,0,0,1-4.07-2.742q.119,1.4.238,2.8c-2.816-.237-7.025-1.012-9.4-2.64-2.578-1.768-3.783-6.045-4.224-8.934a54.034,54.034,0,0,1-.022-11.217,175.51,175.51,0,0,0-.413-25.551c-.307-3.437-.715-6.865-.975-10.306-.69-9.13-.617-18.6,2.17-27.409,2.5-7.9,7.905-15.316,15.7-18.13,1.41-.509,3.4-.63,4,.747a3.155,3.155,0,0,1-.06,2.033c-1.62,6.166-4.37,12.018-5.6,18.274a57.3,57.3,0,0,0-.867,12.02A109.2,109.2,0,0,0,307.729,55.1c.63,4.159,2.243,8.315,1.465,12.446-1.694,9-.723,19,1.152,27.9a85.311,85.311,0,0,0,4.777,15.355" transform="translate(-182.213 -4.481)" fill="#dd5d41"/>
            <path id="Trazado_783841" data-name="Trazado 783841" d="M320.648,227.869a.317.317,0,0,1-.294-.2,82.849,82.849,0,0,1-5.863-29.738.316.316,0,0,1,.313-.32h0a.317.317,0,0,1,.317.313,82.217,82.217,0,0,0,5.819,29.511.318.318,0,0,1-.294.434" transform="translate(-197.047 -123.815)" fill="#ce4129"/>
            <path id="Trazado_783842" data-name="Trazado 783842" d="M373.007,46.083c3.677,18.742-4.337,36.092-17.9,38.754s-27.54-10.375-31.218-29.117,4.338-36.092,17.9-38.753,27.54,10.375,31.218,29.116" transform="translate(-202.376 -10.415)" fill="#ffa385"/>
            <path id="Trazado_783843" data-name="Trazado 783843" d="M358.089,43.621c2.717,6.526,3.356,13.722,3.474,20.79a153.671,153.671,0,0,1-6.8,47.794l8.946-2.638a3.686,3.686,0,0,0,3.085-2.7l2.048-4.836,1,7.323a22.927,22.927,0,0,1,6.356-3.7c-3.845-26.377-.947-54.053-10.215-79.046a48.5,48.5,0,0,0-5.422-10.869,46.091,46.091,0,0,0-7.353-8.06c-3.3-2.937-6.969-5.616-11.195-6.914S332.9-.276,329.3,2.291a3.407,3.407,0,0,1-1.651.823,3.981,3.981,0,0,1-1.686-.5c-3.428-1.392-7.275.767-9.918,3.355-6.027,5.9-8.372,12.558-8.2,20.9.153,7.518,2.194,16.114,6.748,22.242.279-1.328-.154-2.517-.165-3.832a27.992,27.992,0,0,1,.839-5.861,48.09,48.09,0,0,1,4.025-11.278,36.567,36.567,0,0,1,6.609-9.849c2.654-2.644,6.058-3.785,8.719-6.347-.383.369,11.294,14.075,12.34,15.3,4.3,5.018,8.568,10.221,11.132,16.379" transform="translate(-192.876 0)" fill="#dd5d41"/>
            <path id="Trazado_783844" data-name="Trazado 783844" d="M404.767,59.715a.317.317,0,0,1-.312-.266c-1.236-7.644-4.593-15.5-9.979-23.346-5.272-7.682-10.734-12.271-16.7-14.029a.317.317,0,1,1,.179-.608c6.109,1.8,11.683,6.472,17.04,14.279,5.438,7.924,8.83,15.866,10.081,23.6a.316.316,0,0,1-.262.363.3.3,0,0,1-.051,0" transform="translate(-236.559 -13.442)" fill="#ce4129"/>
            <path id="Trazado_783845" data-name="Trazado 783845" d="M424.163,76.788l-.028,0a.316.316,0,0,1-.288-.343,85.66,85.66,0,0,0-16.341-57.73c-2.325-3.133-5.236-6.49-9.191-7.63a.317.317,0,1,1,.176-.609c4.137,1.193,7.136,4.643,9.524,7.861A86.3,86.3,0,0,1,424.478,76.5a.316.316,0,0,1-.315.289" transform="translate(-249.424 -6.555)" fill="#ce4129"/>
            <path id="Trazado_783846" data-name="Trazado 783846" d="M469.745,222.567a.31.31,0,0,1-.076-.009.316.316,0,0,1-.232-.383A136.371,136.371,0,0,0,473.325,193a.331.331,0,0,1,.324-.309.316.316,0,0,1,.309.325,136.961,136.961,0,0,1-3.906,29.314.317.317,0,0,1-.307.241" transform="translate(-294.125 -120.73)" fill="#ce4129"/>
            <path id="Trazado_783847" data-name="Trazado 783847" d="M322.584,57.449a.318.318,0,0,1-.3-.22,93.226,93.226,0,0,1-2.652-10.186c-.213-1.064-.441-2.121-.669-3.176a55.178,55.178,0,0,1-1.733-13.081,23.4,23.4,0,0,1,4.091-13.175c2.914-3.959,7-6.23,12.85-7.146a.317.317,0,1,1,.1.626c-5.755.9-9.591,3.028-12.437,6.9A22.77,22.77,0,0,0,317.862,30.8c-.116,4.425.775,8.557,1.719,12.931.228,1.058.457,2.118.671,3.185a92.341,92.341,0,0,0,2.635,10.117.317.317,0,0,1-.2.4.325.325,0,0,1-.1.015" transform="translate(-198.757 -6.555)" fill="#ce4129"/>
            <path id="Trazado_783848" data-name="Trazado 783848" d="M326.849,51.358a.317.317,0,0,1-.315-.285,33.022,33.022,0,0,1,3.916-19.162c1.75-3.165,5.615-8.638,11.835-9.728a.317.317,0,0,1,.109.624c-5.961,1.045-9.7,6.344-11.391,9.41a32.386,32.386,0,0,0-3.84,18.791.317.317,0,0,1-.283.347l-.032,0" transform="translate(-204.49 -13.896)" fill="#ce4129"/>
            <path id="Trazado_783849" data-name="Trazado 783849" d="M368.106,17.111a.316.316,0,0,1-.224-.093,26.947,26.947,0,0,1-5.958-7.869.317.317,0,1,1,.574-.269,26.4,26.4,0,0,0,5.832,7.691.317.317,0,0,1-.224.541" transform="translate(-226.748 -5.449)" fill="#ce4129"/>
            <path id="Trazado_783850" data-name="Trazado 783850" d="M320,115.253c1.629,4.684,1.239,9.075-.869,9.808s-5.139-2.469-6.768-7.152-1.239-9.075.87-9.808,5.139,2.469,6.767,7.152" transform="translate(-195.086 -67.666)" fill="#ffa385"/>
            <path id="Trazado_783851" data-name="Trazado 783851" d="M366.528,107.987c.428,1.745-.117,3.379-1.216,3.648s-2.337-.927-2.765-2.673.117-3.379,1.216-3.648,2.337.927,2.765,2.673" transform="translate(-227.067 -65.962)" fill="#512229"/>
            <path id="Trazado_783852" data-name="Trazado 783852" d="M420.382,96.515c.428,1.745-.117,3.379-1.216,3.648s-2.337-.927-2.765-2.673.117-3.379,1.216-3.648,2.337.928,2.765,2.673" transform="translate(-260.81 -58.774)" fill="#512229"/>
            <path id="Trazado_783853" data-name="Trazado 783853" d="M406.88,127.138a2.694,2.694,0,0,1-1.356-.354.639.639,0,0,1,.643-1.105,1.541,1.541,0,1,0,1.391-2.749.639.639,0,0,1,.51-1.172,2.786,2.786,0,0,1-.336,5.255,3.012,3.012,0,0,1-.853.124" transform="translate(-253.887 -76.256)" fill="#e28065"/>
            <path id="Trazado_783854" data-name="Trazado 783854" d="M322.227,131.587a.44.44,0,0,1-.128-.019,2.1,2.1,0,0,1-1.267-1.311,3.418,3.418,0,0,1,.36-3.122.438.438,0,0,1,.723.494,2.568,2.568,0,0,0-.267,2.313,1.305,1.305,0,0,0,.708.789.438.438,0,0,1-.128.857" transform="translate(-200.88 -79.538)" fill="#e28065"/>
            <path id="Trazado_783855" data-name="Trazado 783855" d="M321.027,127.643a.439.439,0,0,1-.419-.564,2.074,2.074,0,0,0-3.059-2.372.438.438,0,1,1-.454-.749,2.949,2.949,0,0,1,4.351,3.374.437.437,0,0,1-.419.312" transform="translate(-198.547 -77.407)" fill="#e28065"/>
            <path id="Trazado_783856" data-name="Trazado 783856" d="M352.132,86.708c-3.81-2.244-8.673.975-10.342,4.526-.946,2.011,1.416,2.646,2.813,1.49.793-.656,1.3-1.6,2.073-2.282a7.071,7.071,0,0,1,5.06-1.36,1.694,1.694,0,0,0,1.089-.187,1.044,1.044,0,0,0,.255-1.237,2.189,2.189,0,0,0-.948-.95" transform="translate(-214.016 -53.862)" fill="#dd5d41"/>
            <path id="Trazado_783857" data-name="Trazado 783857" d="M403.621,77.088c1.568-4,7.235-4.243,10.655-2.375,1.937,1.058.509,2.931-1.259,2.817-1-.065-1.962-.521-2.964-.621a6.594,6.594,0,0,0-4.7,1.844,1.573,1.573,0,0,1-.947.481,1.073,1.073,0,0,1-.942-.839,2.148,2.148,0,0,1,.154-1.307" transform="translate(-252.767 -46.108)" fill="#dd5d41"/>
            <path id="Trazado_783858" data-name="Trazado 783858" d="M383.064,149.329l16.857-2.207s-4.448,18.638-16.857,2.207" transform="translate(-240.013 -92.181)" fill="#fff5e9"/>
          </g>
        </g>
      </g>
    </g>
  </g>
</svg>
