<svg xmlns="http://www.w3.org/2000/svg" xmlns:xlink="http://www.w3.org/1999/xlink" width="295" height="263.324" viewBox="0 0 295 263.324">
  <defs>
    <clipPath id="clip-path">
      <rect id="Rectángulo_401038" data-name="Rectángulo 401038" width="283.627" height="260.661" fill="none"/>
    </clipPath>
  </defs>
  <g id="Grupo_1205144" data-name="Grupo 1205144" transform="translate(-810 -2475.977)">
    <g id="BACKGROUND" transform="translate(810 2475.977)">
      <g id="Grupo_32241" data-name="Grupo 32241">
        <path id="Trazado_61861" data-name="Trazado 61861" d="M109.5,116.4c14.58-.5,28.678,4.605,42.624,8.885s28.873,7.8,42.99,4.116c18.98-4.948,32.221-21.588,44.112-37.187s25.341-32.143,44.411-36.735c17.807-4.287,37.018,3.4,49.979,16.34s20.44,30.436,25.108,48.147c11.561,43.869,5.981,94.446-24.058,128.444-24.033,27.2-60.312,40.561-96.146,46.336-25.85,4.166-52.725,4.861-77.861-2.467a127.209,127.209,0,0,1-73.492-57.459C68.391,202.572,50.98,118.418,109.5,116.4Z" transform="translate(-69.318 -34.52)" fill="#f7c99c"/>
        <path id="Trazado_61862" data-name="Trazado 61862" d="M192.724,103.183c17.551.325,36.451-6.136,49.579-15.3,7.278-5.08,13.784-11.552,17.668-19.532s4.912-17.59,1.526-25.794c-4.886-11.837-17.739-18.533-30.318-20.926a74.492,74.492,0,0,0-55.84,11.93c-11.274,7.861-23.092,19.05-26.018,33.05-3.153,15.084,9.836,26.656,22.621,32.31A53.821,53.821,0,0,0,192.724,103.183Z" transform="translate(-102.496 -20.373)" fill="#f7c99c"/>
      </g>
    </g>
    <g id="Grupo_1099998" data-name="Grupo 1099998" transform="translate(810 2478.639)">
      <g id="Grupo_1099997" data-name="Grupo 1099997" transform="translate(0 0)">
        <g id="Grupo_1099990" data-name="Grupo 1099990" transform="translate(0 0)">
          <g id="Grupo_1099989" data-name="Grupo 1099989" transform="translate(0 0)" clip-path="url(#clip-path)">
            <path id="Trazado_783535" data-name="Trazado 783535" d="M5.773,3169.294s-7.6,7.5-5.36,10.689,21.845,4.555,22.405,10.705,45.929,7.517,57.693,5.695,80.386,1.494,94.807.747,66.513,1.531,74.355-5.531,10.65-.279,16.812-1.019,30.656-12.632,7.13-21.287Z" transform="translate(0 -2936.581)" fill="#f7c786"/>
            <path id="Trazado_783536" data-name="Trazado 783536" d="M2889.146,2552.369s-4.582-15.836,9.581-15.836,25.912,11.246,17.777,15.836-6.563-5.417-14.458,0-12.34,2.978-12.9,0" transform="translate(-2676.349 -2350.282)" fill="#efb340"/>
            <path id="Trazado_783537" data-name="Trazado 783537" d="M2714.735,2390.621c.132-.633,6.31-13.157,16.536-9.581s19.723,7.794,21.85,5.257,9.476,7.216-2.783,10.55-32.983,4.646-32.051,9.828-4.694-10.551-3.552-16.054" transform="translate(-2515.257 -2205.613)" fill="#77c2ec"/>
            <path id="Trazado_783538" data-name="Trazado 783538" d="M2748.087,2753.3s19.756-4.848,26.246-13.339,16.559,6.2,13.045,12.163-22.2,22.02-30.744,18.583-8.547-17.408-8.547-17.408" transform="translate(-2546.302 -2536.385)" fill="#d3bea8"/>
            <path id="Trazado_783539" data-name="Trazado 783539" d="M2723.938,2634.859s21.44-12.163,27.991,0,3.844,10.068,4.385,9.121-7.292,10.415-16.188,5.652-13.888-4.964-16.188-5.652,0-9.121,0-9.121" transform="translate(-2522.979 -2436.38)" fill="#75453d"/>
            <path id="Trazado_783540" data-name="Trazado 783540" d="M2718.124,2867.913s10.477,12.014,17.506,11.1,20.663,12,13.037,15.377-25.549,2.639-28.46,0-4.167-28.676-2.083-26.473" transform="translate(-2517.582 -2657.208)" fill="#fd9b95"/>
            <path id="Trazado_783541" data-name="Trazado 783541" d="M2751.353,2641.6s12.288-15.629,20.824-10.566,19.182-7.985,18.836-9.9,5.9,3.713-3.948,14.526-21.705,16.726-29.829,15.2-5.884-9.258-5.884-9.258" transform="translate(-2549.066 -2428.335)" fill="#a8bed8"/>
            <path id="Trazado_783542" data-name="Trazado 783542" d="M2784.646,2785.46c1.412-1.25,16.408-3.858,22.072-12.945,0,0-6.794,13.074-17.35,16.567s-4.722-3.622-4.722-3.622" transform="translate(-2578.687 -2568.937)" fill="#91a9bf"/>
            <path id="Trazado_783543" data-name="Trazado 783543" d="M2962.038,2983.4s-3.872-15.836,8.1-15.836,21.9,11.246,15.023,15.836-5.546-5.417-12.218,0-10.429,2.978-10.9,0" transform="translate(-2743.99 -2749.666)" fill="#efb340"/>
            <path id="Trazado_783544" data-name="Trazado 783544" d="M2569.1,2355.774l10.951,66.886h42.294l7.93-66.886Zm50.9,34.631a1.827,1.827,0,0,1-1.827,1.827h-35.889a1.827,1.827,0,1,1,0-3.654h35.889a1.827,1.827,0,0,1,1.827,1.827m1.158-6.762a1.827,1.827,0,0,1-1.827,1.827h-37.723a1.827,1.827,0,1,1,0-3.654h37.723a1.827,1.827,0,0,1,1.827,1.827m1.67-6.231a1.827,1.827,0,0,1-1.827,1.827h-41.367a1.827,1.827,0,1,1,0-3.654H2621a1.827,1.827,0,0,1,1.827,1.827m1.746-6.231a1.827,1.827,0,0,1-1.827,1.827h-44.936a1.827,1.827,0,0,1,0-3.654h44.936A1.827,1.827,0,0,1,2624.576,2371.182Zm-.258-4.347h-48.175a1.827,1.827,0,1,1,0-3.654h48.175a1.827,1.827,0,1,1,0,3.654" transform="translate(-2380.458 -2182.796)" fill="#7f2321"/>
            <path id="Trazado_783545" data-name="Trazado 783545" d="M2955.038,2318.461s9.782-2.519,17.782-1.836c8.063.688,9.947-.688,10.156,2.983s3.349,24.8.486,24.786c-6.629-.03-27.356-10.787-27.356-10.787-1.955-.688,1.829-12.393-1.068-15.147" transform="translate(-2738.058 -2146.413)" fill="#fd9b95"/>
            <path id="Trazado_783546" data-name="Trazado 783546" d="M3195.575,2355.614c-.47,1.147.364,20.315,2.03,21.059a22.648,22.648,0,0,0,5.008,1.119Z" transform="translate(-2960.812 -2182.647)" fill="#e58988"/>
            <path id="Trazado_783547" data-name="Trazado 783547" d="M336.829,469.861H245.05a2.312,2.312,0,1,1,0-4.623h91.779a2.312,2.312,0,1,1,0,4.623" transform="translate(-224.914 -431.077)" fill="#7f6058"/>
            <rect id="Rectángulo_401037" data-name="Rectángulo 401037" width="90.588" height="2.312" transform="translate(20.731 41.529)" fill="#a57971"/>
            <path id="Trazado_783548" data-name="Trazado 783548" d="M490.282,527.3v-1.553a3.489,3.489,0,0,1,1.56-2.912c1.166-.771,2.448-2.082,1.755-3.883-1.085-2.82-4.075-1.83-4.891-.366a.8.8,0,0,1-1.479-.592c.264-.97,1.217-2.274,4.375-2.562,4.436-.4,3.97,5.432,2.163,7.677a4.591,4.591,0,0,0-.984,2.875l0,1.319a.8.8,0,0,1-.8.8h-.891a.8.8,0,0,1-.8-.8" transform="translate(-451.425 -477.564)" fill="#9b9a91"/>
            <path id="Trazado_783549" data-name="Trazado 783549" d="M209.323,672.862a5.878,5.878,0,0,0-5.486-.105c-5.68,2.862-20.736,10.658-24.333,14.634-4.458,4.927,48.336,6.57,50.917,5.162,2.18-1.189-13.381-15.432-21.1-19.69m-26.769,14.528c15.486-10.324,22.378-10.324,22.378-10.324,11.116,1.173,21.734,13.844,21.734,13.844-27.219.939-44.113-3.52-44.113-3.52" transform="translate(-166.076 -622.776)" fill="#5e3330"/>
            <path id="Trazado_783550" data-name="Trazado 783550" d="M1081.7,530.525v-1.553a3.489,3.489,0,0,1,1.56-2.912c1.166-.771,2.448-2.082,1.755-3.883-1.084-2.82-4.075-1.83-4.891-.366a.8.8,0,0,1-1.479-.592c.264-.97,1.217-2.274,4.375-2.562,4.436-.4,3.97,5.432,2.162,7.677a4.591,4.591,0,0,0-.984,2.875l0,1.319a.8.8,0,0,1-.8.8h-.891a.8.8,0,0,1-.8-.8" transform="translate(-999.418 -480.555)" fill="#9b9a91"/>
            <path id="Trazado_783551" data-name="Trazado 783551" d="M800.743,676.09a5.878,5.878,0,0,0-5.486-.105c-5.68,2.862-20.736,10.658-24.333,14.634-4.458,4.927,48.336,6.57,50.917,5.162,2.18-1.189-13.381-15.432-21.1-19.69m-26.769,14.528c15.486-10.324,22.378-10.324,22.378-10.324,11.116,1.173,21.734,13.844,21.734,13.844-27.219.939-44.113-3.52-44.113-3.52" transform="translate(-714.069 -625.767)" fill="#844140"/>
          </g>
        </g>
        <g id="Grupo_1099992" data-name="Grupo 1099992" transform="translate(0 0)">
          <g id="Grupo_1099991" data-name="Grupo 1099991" transform="translate(0 0)" clip-path="url(#clip-path)">
            <path id="Trazado_783552" data-name="Trazado 783552" d="M2126.158,866.849c3.412-.241,5.867,1.043,6.637,4.375,1.6,6.934,8.978,18.877,9.591,23.117.848,5.863,1.613,5.427,1.613,5.427,2.985-1.7,25.717,17.216,32.117,19.39l-1.488,7.4s-36.676-13.135-41.132-19.656c0,0-9.217-15.7-11.5-29.01-1.652-9.646-.751-10.7,4.158-11.046" transform="translate(-1965.485 -803.172)" fill="#edae9d"/>
            <path id="Trazado_783553" data-name="Trazado 783553" d="M1783.2,299.373s-1.878,32.588.652,42.1c0,0,1.868,8.251-3.321,9.976,0,0,1.394-4.916-1.641-7.142s-37.464-10.568-37.355-9.94,8.344-45.251,14.775-49.7Z" transform="translate(-1613.661 -263.765)" fill="#9e3028"/>
            <path id="Trazado_783554" data-name="Trazado 783554" d="M1992.389,3133.268s-1.137,4.138.47,5.116,10.83,5.275,10.83,5.275l-24.383-1.455,2.115-9.59Z" transform="translate(-1833.971 -2902.594)" fill="#e5bb33"/>
            <path id="Trazado_783555" data-name="Trazado 783555" d="M1576.721,3187.53s-.889,4.323.774,5.229,11.125,4.758,11.125,4.758h-20.443a1.792,1.792,0,0,1-1.746-2.026l.926-7.96Z" transform="translate(-1451.4 -2953.478)" fill="#e5bb33"/>
            <path id="Trazado_783556" data-name="Trazado 783556" d="M1856.423,1603.076s11.4,39.785,12.147,54.42-10.358,58.516-10.358,58.516h-10.987s2.8-51.255,6.162-56.734c2.5-4.071-18.579-48.224-18.579-48.224Z" transform="translate(-1700.082 -1485.366)" fill="#9e3028"/>
            <path id="Trazado_783557" data-name="Trazado 783557" d="M1546.189,1556.522l-20.977,4.589s-1.954,35.136-3.935,52.78-5.621,47.319-5.621,47.319h-9s-4.468-43.023,0-50.978c3.917-6.975-10.49-61.842-4.4-71.709l30.652,2.651Z" transform="translate(-1390.544 -1425.553)" fill="#9e3028"/>
            <path id="Trazado_783558" data-name="Trazado 783558" d="M1886.591,592.244c-1.48,3.295-.09,14.529-.09,14.529l-16.322,6.561s8.2-22.013,7.735-24.84Z" transform="translate(-1732.858 -545.281)" fill="#edae9d"/>
            <path id="Trazado_783559" data-name="Trazado 783559" d="M1993.388,637.789s-4.665-1.3-7.184-3.739c0,0,1.641,3.179,6.805,5.274Z" transform="translate(-1840.362 -587.493)" fill="#3f1f1e"/>
            <path id="Trazado_783560" data-name="Trazado 783560" d="M1548.077,710.017c0-.362,3.1,1.614,3.4,1.813,1.566,1.026,6.432,3.479,6.478,4.771.167,4.756,6.293,13.413-3.24,33.517-4.728,9.97-2.4,24.543-2.379,27.114,0,.234.409.609.176.634-3.61.4-33.857,5.8-46.869-6.629-.146-.14-.084-.169-.046-.239,1.522-2.74,11.727-20.777,10.9-31.5-.7-9.09-.585-17.451,1.508-23.138,1.662-4.515,1.257-7.337,5.475-7.611l6.884-.447c.135-.009,8.042-1.094,7.29.707-1.022,2.447,10.45,18.029,10.424,1.007" transform="translate(-1395.001 -655.986)" fill="#f5d045"/>
            <path id="Trazado_783561" data-name="Trazado 783561" d="M1512.59,1060l-6.406,12.934,1.457,1.661a16.612,16.612,0,0,0,4.766,3.766,43.705,43.705,0,0,0,29.088,3.465l11.428-2.658-.329-10.743a5.866,5.866,0,0,0-4.492-3.846c-3.677-.81-13.163-5.4-26.146-17.422l3.332-13.324-12.442,4.633Z" transform="translate(-1395.589 -957.918)" fill="#e2b129"/>
            <path id="Trazado_783562" data-name="Trazado 783562" d="M1913.037,369.623s2.256-4.225-3.754-4.745.122,11.607.122,11.607Z" transform="translate(-1766.643 -338.07)" fill="#edae9d"/>
            <path id="Trazado_783563" data-name="Trazado 783563" d="M1971.212,272.556s-6.265,22.8-13.092,23.645-12.711-4.141-14.936-8.556,5.154-23.194,5.154-23.194Z" transform="translate(-1800.114 -245.034)" fill="#edae9d"/>
            <path id="Trazado_783564" data-name="Trazado 783564" d="M1914.818,224.663s-9.52,6.875-19.11,3.163c0,0-2.517-2.572-4.423.139a4.651,4.651,0,0,0-.573,4.164l1.595,4.715s-5.969-2.054-2.559-11.168,9.643-10.438,14.052-10.455,11.629,2.878,12.887,5.556-1.869,3.886-1.869,3.886" transform="translate(-1750.014 -199.418)" fill="#9e3028"/>
            <path id="Trazado_783565" data-name="Trazado 783565" d="M2161.973,275.373s6.715,5.775,4.515,12.648c0,0,10.671-8.126,2.286-14.827s-11.792,2.824-11.792,2.824Z" transform="translate(-1998.602 -250.921)" fill="#9e3028"/>
            <path id="Trazado_783566" data-name="Trazado 783566" d="M2157.027,515s-.347,4.133-2.47,5.412c0,0,2.4.464,2.47-5.412" transform="translate(-1996.354 -477.182)" fill="#3f1f1e"/>
            <path id="Trazado_783567" data-name="Trazado 783567" d="M2231.215,464.165s-.785-3.226-2.492-3.076-.252-.817.7-.39c1.04.467,1.714,1.27,1.792,3.466" transform="translate(-2064.343 -426.769)" fill="#9e3028"/>
            <path id="Trazado_783568" data-name="Trazado 783568" d="M2064.518,415.111s3.275-2.361,4.994-1.074.887-.562-.458-.822c-1.468-.284-2.8-.02-4.536,1.9" transform="translate(-1912.926 -382.785)" fill="#9e3028"/>
            <path id="Trazado_783569" data-name="Trazado 783569" d="M2093.709,446.93a.126.126,0,0,0,.014-.173.124.124,0,0,0-.173-.015,1.943,1.943,0,0,1-.3.253l-.018.012-.011.007-.035.022-.084.048q-.088.047-.179.085a.1.1,0,0,0-.03.022.532.532,0,0,0-.3-.349c-.424-.15-1.033.474-1.36,1.4s-.247,1.79.178,1.94,1.033-.474,1.36-1.4a2.9,2.9,0,0,0,.176-1.386.131.131,0,0,0,.083-.005,2.018,2.018,0,0,0,.678-.46" transform="translate(-1937.494 -413.912)" fill="#592b23"/>
            <path id="Trazado_783570" data-name="Trazado 783570" d="M2223.962,494.67a.123.123,0,0,0-.2-.141.742.742,0,0,1-.068.1l-.016.019,0,.005c-.013.013-.026.025-.04.037l-.042.035-.022.016-.019.013-.012.008-.028.016-.049.024-.051.021-.022.008-.009,0c-.015,0-.03.006-.044.009a.592.592,0,0,0-.333-.455c-.424-.151-1.033.474-1.36,1.4s-.247,1.79.178,1.94,1.033-.474,1.36-1.4a3.107,3.107,0,0,0,.194-1.24.911.911,0,0,0,.589-.414" transform="translate(-2058.326 -458.061)" fill="#592b23"/>
            <path id="Trazado_783571" data-name="Trazado 783571" d="M1970.755,501.61c3.632.269,14.212,1.421,17.164,5.823,0,0-2.037,7.337-7.469,8.508,0,0-6.318,1.107-12.9-6.574a2.856,2.856,0,0,1-.385-3.137l1.81-3.61a1.837,1.837,0,0,1,1.778-1.01" transform="translate(-1822.444 -464.773)" fill="#ced8dd"/>
            <path id="Trazado_783572" data-name="Trazado 783572" d="M1988.946,399.075l1.369,7.459-1.592-.226-.547-8.647Z" transform="translate(-1842.189 -368.462)" fill="#ced8dd"/>
            <path id="Trazado_783573" data-name="Trazado 783573" d="M1935.105,501.422l3.6,7.144.987,2.009s-5.329-4.286-4.585-9.153" transform="translate(-1792.95 -464.604)" fill="#ced8dd"/>
            <path id="Trazado_783574" data-name="Trazado 783574" d="M2015.843,522.586c-.157-.042,13.816,3.223,15.918,5.64a118.925,118.925,0,0,0-15.918-5.64" transform="translate(-1867.823 -484.213)" fill="#aab6ba"/>
            <path id="Trazado_783575" data-name="Trazado 783575" d="M2003.086,549.938c-.329-.18,12.97,5.6,15.865,5.621,0,0-4.868.4-15.865-5.621" transform="translate(-1856 -509.553)" fill="#aab6ba"/>
            <path id="Trazado_783576" data-name="Trazado 783576" d="M1995.456,571.3c-.2-.15,8.4,7.8,14.668,6.5,0,0-4.662.875-14.668-6.5" transform="translate(-1848.932 -529.349)" fill="#aab6ba"/>
            <path id="Trazado_783577" data-name="Trazado 783577" d="M2460.714,1791.817v8.872a4.021,4.021,0,0,1-4.021,4.021H2430l16.4-20.812Z" transform="translate(-2251.572 -1652.911)" fill="#f7c786"/>
            <path id="Trazado_783578" data-name="Trazado 783578" d="M2094.405,802.148a4.239,4.239,0,0,1,3.959-.188c2.159,1.019,6.257,3.532,8.393,11.355,3.711,13.6,8.5,20.951,8.2,21.862s-14.309,7.969-14.309,7.969-6.831-12.759-8.464-19.912c-1.1-4.837-6.065-16.23,2.224-21.086" transform="translate(-1936.26 -742.702)" fill="#f5d045"/>
            <path id="Trazado_783579" data-name="Trazado 783579" d="M825.819,1603.076s-25.782,5.468-30.714,42.394c-5.315,39.792-23.3,80.961-46.335,75.438,0,0-6.986-1.093-8.308,2.116l2.266,1.387s.189-3.464,6.042-1.575,34.764,2.977,47.917-76.8c0,0,3.015-35.416,30.178-40.349Z" transform="translate(-686.092 -1485.366)" fill="#160f45"/>
            <path id="Trazado_783580" data-name="Trazado 783580" d="M1502.938,1566.334s-1.51,15.209,2.788,36.787c0,0,3.925,28.941,2.732,32.879,0,0,9.048,6.062,14.748,2.478l1.546-18.877,21.049,2.454a6.5,6.5,0,0,1-.154,3.179s-3.888,9.383-2.686,13.6c0,0,4.4,4.086,17.454-6.818l1.344-12.226-35.452-45.229s-16.484-1.83-23.37-8.228" transform="translate(-1392.343 -1451.322)" fill="#892421"/>
            <path id="Trazado_783581" data-name="Trazado 783581" d="M2189.2,978.819s3.975,12.936-.793,18.673l2.01,8.748-1.216,1.152-3.927-7.934s5.976-11.027,3.927-20.639" transform="translate(-2024.811 -906.947)" fill="#e2b129"/>
          </g>
        </g>
        <g id="Grupo_1099994" data-name="Grupo 1099994" transform="translate(0 0)">
          <g id="Grupo_1099993" data-name="Grupo 1099993" transform="translate(0 0)" clip-path="url(#clip-path)">
            <path id="Trazado_783582" data-name="Trazado 783582" d="M459.686.394a12.826,12.826,0,0,0-10.157,5.1c-1.517,2.186-1.9,4.571,1.692,5.961,7.659,2.965,50.977,2.685,51.31-.571s.2-9-7.6-10.3C488.993-.409,468.937.1,459.686.394" transform="translate(-415.5 0.003)" fill="#a8bed8"/>
            <path id="Trazado_783583" data-name="Trazado 783583" d="M567.786,54.319s-42.036.491-44.035-1.831,1.858-5.881,10.8-5.456,30.078-.931,29.743,1.764-18.094,4.89-24.209,3.51,10.828-2.058,12.967-2.061,4.645-1.376-8.952-1.225-15.187.444-14.112,1.864,6.554,4.05,36.054,2.6c0,0,4.691-1.149,1.747.833" transform="translate(-484.816 -43.546)" fill="#879db2"/>
            <path id="Trazado_783584" data-name="Trazado 783584" d="M473.559,1673.244H453.182a.958.958,0,0,1-.361-1.846l30.007-12.188,19.095,1.076-3.8,2.025-15.011-1.544-25.49,10.774H481.7l-1.745.613a19.261,19.261,0,0,1-6.391,1.091" transform="translate(-419.017 -1537.378)" fill="#160f45"/>
            <path id="Trazado_783585" data-name="Trazado 783585" d="M674.79,1740.728h17.984l-3.115,1.725-19.259-.694Z" transform="translate(-621.174 -1612.911)" fill="#160f45"/>
            <path id="Trazado_783586" data-name="Trazado 783586" d="M821.65,1691.422l15.234,1.422,1.275-.711-16.427-1.555Z" transform="translate(-761.319 -1566.444)" fill="#160f45"/>
            <path id="Trazado_783587" data-name="Trazado 783587" d="M597.67,1784.841l21.059.442,1.558-1.385H598.9Z" transform="translate(-553.785 -1652.911)" fill="#160f45"/>
            <path id="Trazado_783588" data-name="Trazado 783588" d="M1201.2,1705.216l116.325,116.33,2.938.484a1.256,1.256,0,0,0,1.092-2.127l-118.431-118.436a2.213,2.213,0,0,0-1.924,3.749" transform="translate(-1112.388 -1576.503)" fill="#160f45"/>
            <path id="Trazado_783589" data-name="Trazado 783589" d="M1323.268,1733.529,1204.929,1847.81l-2.946.433a1.256,1.256,0,0,1-1.055-2.146l120.48-116.35a2.213,2.213,0,0,1,1.859,3.781" transform="translate(-1112.389 -1602.712)" fill="#2a3380"/>
            <path id="Trazado_783590" data-name="Trazado 783590" d="M767.768,1767.773v.781c0,1.914,2.628,3.466,5.869,3.466h153.44s25.751-1.4,25.629-9.487Z" transform="translate(-711.393 -1633.115)" fill="#e2b129"/>
            <path id="Trazado_783591" data-name="Trazado 783591" d="M786.389,1673.807,764.568,1684c-1.39.649-.615,1.969,1.157,1.971,26.42.023,141.511.124,144.062.133,30.972.109,51.839-6.344,30.923-11.36a67.18,67.18,0,0,0-15.6-1.795H790.571a10.049,10.049,0,0,0-4.182.859" transform="translate(-707.767 -1550.108)" fill="#f5d045"/>
            <path id="Trazado_783592" data-name="Trazado 783592" d="M777.84,1683.484l15.086-7.55a1.79,1.79,0,0,1,.787-.17h21.62a2.018,2.018,0,0,0,.209-.011,12.656,12.656,0,0,0,2.68-.558c1.044-.381.589-1.331-.638-1.331H792.877a2.011,2.011,0,0,0-.2.01l-.214.021a14.94,14.94,0,0,0-4.79,1.259l-20.625,9.634a.886.886,0,0,0-.39.32l-.309.507c-.426.7.422.782,1.456,1.207.1.039.154.063.158.063h31.557a2.039,2.039,0,0,0,.266-.017c.638-.084,3.251-.481,3.127-1.33-.052-.36-.583-.63-1.195-.635l-23.1-.153c-1.126-.008-1.633-.837-.773-1.267" transform="translate(-709.971 -1550.957)" fill="#2a3380"/>
            <path id="Trazado_783593" data-name="Trazado 783593" d="M459.686,137.419a12.826,12.826,0,0,0-10.157,5.1c-1.517,2.186-1.9,4.571,1.692,5.961,7.659,2.965,50.977,2.685,51.31-.571s.2-9-7.6-10.3c-5.937-.989-25.994-.484-35.244-.186" transform="translate(-415.5 -126.961)" fill="#f5d045"/>
            <path id="Trazado_783594" data-name="Trazado 783594" d="M567.786,191.344s-42.036.491-44.035-1.831,1.858-5.881,10.8-5.456,30.078-.931,29.743,1.764-18.094,4.89-24.209,3.51,10.828-2.058,12.967-2.061,4.645-1.376-8.952-1.225-15.187.444-14.112,1.864,6.554,4.05,36.054,2.6c0,0,4.691-1.149,1.747.833" transform="translate(-484.816 -170.51)" fill="#e2b129"/>
            <path id="Trazado_783595" data-name="Trazado 783595" d="M475.079,291.762a12.827,12.827,0,0,0-10.158,5.1c-1.517,2.186-1.9,4.571,1.692,5.961,7.659,2.965,50.977,2.685,51.31-.57s.2-9-7.6-10.3c-5.937-.989-25.994-.484-35.244-.186" transform="translate(-429.763 -269.971)" fill="#9e3028"/>
            <path id="Trazado_783596" data-name="Trazado 783596" d="M583.179,345.688s-42.036.491-44.035-1.831,1.858-5.881,10.8-5.456,30.078-.931,29.743,1.764-18.094,4.89-24.209,3.51,10.828-2.058,12.967-2.061,4.645-1.376-8.952-1.225-15.187.444-14.112,1.864,6.554,4.05,36.054,2.6c0,0,4.691-1.149,1.747.833" transform="translate(-499.078 -313.521)" fill="#7f2321"/>
          </g>
        </g>
        <g id="Grupo_1099996" data-name="Grupo 1099996" transform="translate(0 0)">
          <g id="Grupo_1099995" data-name="Grupo 1099995" transform="translate(0 0)" clip-path="url(#clip-path)">
            <path id="Trazado_783597" data-name="Trazado 783597" d="M720,3236.492h-1.775a1.652,1.652,0,0,0-1.652,1.652v1.145h5.156v-1.069a1.728,1.728,0,0,0-1.728-1.728" transform="translate(-663.955 -2998.845)" fill="#160f45"/>
            <path id="Trazado_783598" data-name="Trazado 783598" d="M1256.1,1663.857c-.861-.548-26.5,9.455-29.231,12.486-2.4,2.663.354,50.342,1.059,61.9a3.578,3.578,0,0,0,2.684,3.247c4,1.028,6.917,2.17,13.222,1.308,1.377-.188,2.339-2.183,2.469-3.566.781-8.29,4.408-27.254,6.76-28.038,2.383-.794,50.868-.1,66.25,5.239a3.576,3.576,0,0,0,4.748-3.349c.086-10.007.461-31.234,2.109-36.685,2.117-7,32.773-12.793,35.81-12.541,0,0-96.868-2.951-105.879,0" transform="translate(-1135.894 -1540.469)" fill="#fedeac"/>
            <path id="Trazado_783599" data-name="Trazado 783599" d="M2839.283,1581.323s11.637,1.241,12.728,1.726,8.142,4.41,7.473,4.559-1.539,1.28-5.26-.927c-2.981-1.767-2.023-.885-3.278-.848s-5.421.239-5.749,1.285,2.514,3.084,4.247,3.3,1.134,1.934-.4,1.373c-2.217-.809-11.057-3.945-11.057-3.945Z" transform="translate(-2629.598 -1465.211)" fill="#edae9d"/>
            <path id="Trazado_783600" data-name="Trazado 783600" d="M1999.209,1712.97s-23.96,3.438-37.2-.708a1.352,1.352,0,0,0,.132,1.747c.814.817,17.605,10.468,37.161.209" transform="translate(-1817.697 -1586.535)" fill="#160f45"/>
            <path id="Trazado_783601" data-name="Trazado 783601" d="M1907.636,1579.6l-4.7,1.724,1.046,2.612,4.755.264Z" transform="translate(-1763.206 -1463.613)" fill="#160f45"/>
            <path id="Trazado_783602" data-name="Trazado 783602" d="M1990.389,1570.257s-3.613,3.683.338,4.487,11.785.354,12.6-.951-.256-3.4-.256-3.4l3.067,4.065s-4.059,4.418-4.53,4.83-12.2.92-12.2.92l-4.86-5.831s.791-3.928,5.838-4.123" transform="translate(-1838.831 -1454.957)" fill="#1a79b1"/>
            <path id="Trazado_783603" data-name="Trazado 783603" d="M1984.373,1524.953c-8.191-3.774-20.2-1.614-23.035.734s-.631,11.593-.631,11.593c20.378,10.635,36.786.237,36.786.237s-4.93-8.789-13.12-12.563m-5.842,7.4c-2.693.9-10.516,2-13.574-.284,0,0-2.107-2.978.142-4.779s13.707-1.285,15.6.58.521,3.58-2.172,4.483" transform="translate(-1815.982 -1411.081)" fill="#199cbf"/>
            <path id="Trazado_783604" data-name="Trazado 783604" d="M2077.409,1617.976a.56.56,0,0,1-.308-.712,3.656,3.656,0,0,1,2.791-2.1c2.832-.716,7.273.479,5.9,1.951-1.333,1.428-3.71,2.851-8.382.858" transform="translate(-1924.552 -1496.372)" fill="#160f45"/>
            <path id="Trazado_783605" data-name="Trazado 783605" d="M1484.774,736.974a10.588,10.588,0,0,0-3.714,4.058c-2.454,4.682-8.224,21.972-11.544,34.19-2.815,10.36,35.862,20.979,35.862,20.979l2.84-6.69s-18.864-14.085-23.542-17.159c-6.572-4.318,11.492-21.45,9.37-29.676-1.725-6.683-5.3-8.207-9.272-5.7" transform="translate(-1361.478 -681.807)" fill="#edae9d"/>
            <path id="Trazado_783606" data-name="Trazado 783606" d="M1490.428,725.107a4.239,4.239,0,0,0-3.958-.188c-2.159,1.019-5.433,3.8-8.393,11.355-4.959,12.652-8.5,20.951-8.2,21.862s15.253,3.726,15.253,3.726,3.471-12.329,7.52-15.669c3.827-3.157,6.066-16.229-2.224-21.086" transform="translate(-1361.932 -671.318)" fill="#f5d045"/>
            <path id="Trazado_783607" data-name="Trazado 783607" d="M1962.608,1466.456s10.142-.439,12.7,2.193,1.949,4.96,1.746,5.364a1.043,1.043,0,0,1-1.619,0s-.336,1.162-1.518.383a1.816,1.816,0,0,1-2.4-.282s-1,1.417-1.577-.4a6.26,6.26,0,0,0-3.848-1.113c-2.295.1-3.867,2.113-6.32.55Z" transform="translate(-1815.867 -1358.753)" fill="#edae9d"/>
            <path id="Trazado_783608" data-name="Trazado 783608" d="M1261.779,1852.119l95.041.671s-77.954,1.239-95.041-.671" transform="translate(-1169.13 -1716.123)" fill="#f7c786"/>
            <rect id="Rectángulo_401041" data-name="Rectángulo 401041" width="33.609" height="5.845" transform="translate(36.942 239.7)" fill="#fe9a00"/>
          </g>
        </g>
      </g>
    </g>
  </g>
</svg>
