<svg xmlns="http://www.w3.org/2000/svg" xmlns:xlink="http://www.w3.org/1999/xlink" width="400" height="357.05" viewBox="0 0 400 357.05">
  <defs>
    <clipPath id="clip-path">
      <rect id="Rectángulo_401038" data-name="Rectángulo 401038" width="384.579" height="353.439" fill="none"/>
    </clipPath>
  </defs>
  <g id="Grupo_1100617" data-name="Grupo 1100617" transform="translate(-390 -2396.001)">
    <g id="Grupo_1099999" data-name="Grupo 1099999" transform="translate(-420 -79.976)">
      <g id="BACKGROUND" transform="translate(810 2475.977)">
        <g id="Grupo_32241" data-name="Grupo 32241">
          <path id="Trazado_61861" data-name="Trazado 61861" d="M123.8,138.5c19.769-.683,38.885,6.244,57.8,12.047s39.15,10.572,58.291,5.581c25.735-6.71,43.689-29.272,59.813-50.423s34.361-43.584,60.218-49.81c24.145-5.813,50.195,4.608,67.768,22.156s27.715,41.269,34.045,65.284c15.676,59.484,8.11,128.062-32.621,174.161-32.587,36.882-81.778,55-130.368,62.828-35.051,5.648-71.491,6.591-105.575-3.345a172.486,172.486,0,0,1-99.65-77.911C68.062,255.354,44.453,141.246,123.8,138.5Z" transform="translate(-69.318 -27.486)" fill="#673ab7"/>
          <path id="Trazado_61862" data-name="Trazado 61862" d="M208.343,132.657c23.8.441,49.425-8.32,67.226-20.744,9.868-6.888,18.69-15.664,23.957-26.485s6.66-23.851,2.069-34.976c-6.625-16.05-24.052-25.13-41.109-28.375A101.006,101.006,0,0,0,184.77,38.254c-15.286,10.659-31.311,25.831-35.279,44.814-4.275,20.453,13.338,36.144,30.673,43.809A72.978,72.978,0,0,0,208.343,132.657Z" transform="translate(-86 -20.373)" fill="#673ab7"/>
        </g>
      </g>
      <g id="Grupo_1099998" data-name="Grupo 1099998" transform="translate(810 2479.587)">
        <g id="Grupo_1099997" data-name="Grupo 1099997" transform="translate(0)">
          <g id="Grupo_1099990" data-name="Grupo 1099990" transform="translate(0 0)">
            <g id="Grupo_1099989" data-name="Grupo 1099989" transform="translate(0 0)" clip-path="url(#clip-path)">
              <path id="Trazado_783535" data-name="Trazado 783535" d="M7.828,3169.294s-10.306,10.17-7.268,14.494,29.621,6.177,30.38,14.516,62.277,10.192,78.228,7.722,109,2.026,128.552,1.013,90.187,2.075,100.82-7.5,14.441-.378,22.8-1.381S402.9,3181.03,371,3169.294Z" transform="translate(0 -2853.751)" fill="#f7c786"/>
              <path id="Trazado_783536" data-name="Trazado 783536" d="M2889.4,2558s-6.213-21.472,12.992-21.472,35.135,15.248,24.1,21.472-8.9-7.345-19.6,0-16.732,4.037-17.491,0" transform="translate(-2600.859 -2283.989)" fill="#efb340"/>
              <path id="Trazado_783537" data-name="Trazado 783537" d="M2714.789,2394.259c.178-.858,8.556-17.84,22.422-12.991s26.744,10.568,29.626,7.128,12.848,9.785-3.773,14.3-44.723,6.3-43.459,13.327-6.364-14.306-4.817-21.769" transform="translate(-2444.311 -2143.401)" fill="#77c2ec"/>
              <path id="Trazado_783538" data-name="Trazado 783538" d="M2748.087,2758.969s26.788-6.573,35.588-18.087,22.453,8.4,17.688,16.493-30.1,29.857-41.686,25.2-11.59-23.6-11.59-23.6" transform="translate(-2474.48 -2464.843)" fill="#d3bea8"/>
              <path id="Trazado_783539" data-name="Trazado 783539" d="M2724.3,2636.783s29.071-16.493,37.954,0,5.212,13.651,5.946,12.368-9.887,14.122-21.95,7.664-18.832-6.73-21.951-7.664,0-12.368,0-12.368" transform="translate(-2451.816 -2367.658)" fill="#75453d"/>
              <path id="Trazado_783540" data-name="Trazado 783540" d="M2718.492,2867.96s14.206,16.291,23.737,15.046,28.017,16.266,17.677,20.85-34.642,3.578-38.589,0-5.65-38.882-2.825-35.9" transform="translate(-2446.571 -2582.258)" fill="#fd9b95"/>
              <path id="Trazado_783541" data-name="Trazado 783541" d="M2751.454,2649.02s16.662-21.192,28.236-14.327,26.009-10.828,25.541-13.421,8,5.035-5.353,19.7-29.43,22.679-40.446,20.606-7.978-12.554-7.978-12.554" transform="translate(-2477.166 -2359.841)" fill="#a8bed8"/>
              <path id="Trazado_783542" data-name="Trazado 783542" d="M2785.218,2790.068c1.915-1.7,22.249-5.231,29.928-17.553,0,0-9.212,17.727-23.525,22.463s-6.4-4.911-6.4-4.911" transform="translate(-2505.952 -2496.477)" fill="#91a9bf"/>
              <path id="Trazado_783543" data-name="Trazado 783543" d="M2962.251,2989.039s-5.25-21.472,10.979-21.472,29.692,15.248,20.37,21.472-7.521-7.345-16.567,0-14.141,4.037-14.782,0" transform="translate(-2666.593 -2672.108)" fill="#efb340"/>
              <path id="Trazado_783544" data-name="Trazado 783544" d="M2569.1,2355.774l14.849,90.694H2641.3l10.753-90.694Zm69.019,46.957a2.477,2.477,0,0,1-2.477,2.478h-48.663a2.477,2.477,0,0,1,0-4.955h48.663a2.477,2.477,0,0,1,2.477,2.477m1.57-9.168a2.477,2.477,0,0,1-2.477,2.477h-51.15a2.477,2.477,0,1,1,0-4.955h51.15a2.478,2.478,0,0,1,2.477,2.478m2.265-8.449a2.477,2.477,0,0,1-2.477,2.478h-56.092a2.477,2.477,0,1,1,0-4.955h56.092a2.477,2.477,0,0,1,2.477,2.477m2.368-8.448a2.477,2.477,0,0,1-2.478,2.477h-60.93a2.477,2.477,0,0,1,0-4.955h60.93A2.478,2.478,0,0,1,2644.322,2376.666Zm-.35-5.895H2578.65a2.477,2.477,0,1,1,0-4.954h65.322a2.477,2.477,0,1,1,0,4.954" transform="translate(-2313.314 -2121.228)" fill="#7f2321"/>
              <path id="Trazado_783545" data-name="Trazado 783545" d="M2955.038,2319.157s13.264-3.416,24.111-2.49c10.934.934,13.488-.934,13.771,4.045s4.542,33.626.659,33.608c-8.989-.041-37.093-14.626-37.093-14.626-2.651-.933,2.479-16.8-1.448-20.538" transform="translate(-2660.827 -2085.871)" fill="#fd9b95"/>
              <path id="Trazado_783546" data-name="Trazado 783546" d="M3195.621,2355.614c-.638,1.556.493,27.545,2.752,28.554a30.7,30.7,0,0,0,6.79,1.517Z" transform="translate(-2877.298 -2121.083)" fill="#e58988"/>
              <path id="Trazado_783547" data-name="Trazado 783547" d="M370.319,471.507H245.872a3.134,3.134,0,1,1,0-6.269H370.319a3.134,3.134,0,1,1,0,6.269" transform="translate(-218.57 -418.918)" fill="#7f6058"/>
              <rect id="Rectángulo_401037" data-name="Rectángulo 401037" width="122.832" height="3.134" transform="translate(28.109 56.311)" fill="#a57971"/>
              <path id="Trazado_783548" data-name="Trazado 783548" d="M491.379,531.529v-2.106a4.731,4.731,0,0,1,2.115-3.948c1.581-1.045,3.32-2.823,2.38-5.266-1.471-3.824-5.525-2.481-6.631-.5a1.088,1.088,0,0,1-2-.8c.358-1.315,1.651-3.084,5.932-3.473,6.015-.547,5.383,7.365,2.932,10.409a6.226,6.226,0,0,0-1.335,3.9l0,1.788a1.088,1.088,0,0,1-1.088,1.086h-1.208a1.088,1.088,0,0,1-1.088-1.088" transform="translate(-438.692 -464.093)" fill="#9b9a91"/>
              <path id="Trazado_783549" data-name="Trazado 783549" d="M220.032,673.123a7.97,7.97,0,0,0-7.439-.143c-7.7,3.881-28.116,14.451-32.994,19.842-6.045,6.681,65.541,8.908,69.041,7,2.956-1.612-18.143-20.925-28.608-26.7m-36.3,19.7c21-14,30.344-14,30.344-14,15.072,1.591,29.47,18.771,29.47,18.771-36.906,1.273-59.814-4.772-59.814-4.772" transform="translate(-161.391 -605.21)" fill="#5e3330"/>
              <path id="Trazado_783550" data-name="Trazado 783550" d="M1082.8,534.757v-2.106a4.731,4.731,0,0,1,2.115-3.948c1.581-1.046,3.32-2.823,2.38-5.266-1.471-3.824-5.525-2.481-6.631-.5a1.088,1.088,0,0,1-2.005-.8c.358-1.315,1.651-3.084,5.932-3.473,6.015-.547,5.383,7.365,2.932,10.409a6.226,6.226,0,0,0-1.335,3.9l0,1.788a1.088,1.088,0,0,1-1.088,1.085h-1.208a1.088,1.088,0,0,1-1.088-1.088" transform="translate(-971.228 -467)" fill="#9b9a91"/>
              <path id="Trazado_783551" data-name="Trazado 783551" d="M811.452,676.351a7.97,7.97,0,0,0-7.439-.143c-7.7,3.881-28.116,14.451-32.994,19.842-6.045,6.681,65.541,8.908,69.041,7,2.956-1.612-18.143-20.925-28.608-26.7m-36.3,19.7c21-14,30.344-14,30.344-14,15.072,1.591,29.47,18.771,29.47,18.771-36.906,1.273-59.814-4.772-59.814-4.772" transform="translate(-693.928 -608.116)" fill="#844140"/>
            </g>
          </g>
          <g id="Grupo_1099992" data-name="Grupo 1099992" transform="translate(0 0)">
            <g id="Grupo_1099991" data-name="Grupo 1099991" transform="translate(0 0)" clip-path="url(#clip-path)">
              <path id="Trazado_783552" data-name="Trazado 783552" d="M2127.908,866.859c4.626-.327,7.955,1.414,9,5.932,2.174,9.4,12.174,25.6,13,31.345,1.149,7.95,2.188,7.359,2.188,7.359,4.047-2.3,34.871,23.343,43.548,26.292l-2.018,10.037s-49.729-17.81-55.772-26.652c0,0-12.5-21.294-15.587-39.335-2.24-13.08-1.019-14.506,5.638-14.977" transform="translate(-1910.046 -780.518)" fill="#edae9d"/>
              <path id="Trazado_783553" data-name="Trazado 783553" d="M1798.031,304.607s-2.546,44.187.885,57.088c0,0,2.532,11.187-4.5,13.527,0,0,1.89-6.665-2.224-9.684s-50.8-14.33-50.65-13.478,11.313-61.357,20.034-67.392Z" transform="translate(-1568.146 -256.326)" fill="#9e3028"/>
              <path id="Trazado_783554" data-name="Trazado 783554" d="M1997.045,3133.5s-1.542,5.611.637,6.937,14.685,7.153,14.685,7.153l-33.061-1.973,2.868-13Z" transform="translate(-1782.242 -2820.722)" fill="#e5bb33"/>
              <path id="Trazado_783555" data-name="Trazado 783555" d="M1580.388,3187.53s-1.205,5.861,1.049,7.09,15.084,6.451,15.084,6.451H1568.8a2.43,2.43,0,0,1-2.368-2.748l1.256-10.794Z" transform="translate(-1410.461 -2870.172)" fill="#e5bb33"/>
              <path id="Trazado_783556" data-name="Trazado 783556" d="M1864.117,1603.076s15.463,53.946,16.47,73.79-14.045,79.344-14.045,79.344h-14.9s3.8-69.5,8.355-76.927c3.386-5.52-25.192-65.389-25.192-65.389Z" transform="translate(-1652.129 -1443.47)" fill="#9e3028"/>
              <path id="Trazado_783557" data-name="Trazado 783557" d="M1562.366,1562.928l-28.443,6.222s-2.65,47.642-5.336,71.566-7.621,64.161-7.621,64.161h-12.2s-6.058-58.336,0-69.122c5.311-9.457-14.223-83.854-5.96-97.232l41.563,3.6Z" transform="translate(-1351.322 -1385.344)" fill="#9e3028"/>
              <path id="Trazado_783558" data-name="Trazado 783558" d="M1892.433,593.579c-2.007,4.468-.122,19.7-.122,19.7l-22.131,8.9s11.114-29.848,10.489-33.682Z" transform="translate(-1683.98 -529.901)" fill="#edae9d"/>
              <path id="Trazado_783559" data-name="Trazado 783559" d="M1995.945,639.119s-6.325-1.768-9.741-5.069c0,0,2.225,4.311,9.228,7.151Z" transform="translate(-1788.453 -570.922)" fill="#3f1f1e"/>
              <path id="Trazado_783560" data-name="Trazado 783560" d="M1563.214,710.745c0-.492,4.2,2.189,4.608,2.458,2.124,1.391,8.722,4.717,8.783,6.469.227,6.449,8.533,18.187-4.393,45.447-6.41,13.518-3.258,33.279-3.226,36.765,0,.318.554.825.238.86-4.895.542-45.908,7.864-63.551-8.989-.2-.189-.115-.23-.062-.324,2.063-3.715,15.9-28.172,14.781-42.71-.949-12.326-.793-23.662,2.044-31.373,2.253-6.122,1.7-9.949,7.423-10.321l9.334-.606c.184-.012,10.905-1.484,9.885.958-1.386,3.318,14.17,24.447,14.134,1.366" transform="translate(-1355.653 -637.483)" fill="#f5d045"/>
              <path id="Trazado_783561" data-name="Trazado 783561" d="M1514.87,1069.309l-8.686,17.538,1.975,2.253a22.524,22.524,0,0,0,6.463,5.106c11.7,6.139,26.765,7.647,39.441,4.7l15.5-3.6-.446-14.566a7.954,7.954,0,0,0-6.091-5.215c-4.985-1.1-17.849-7.317-35.452-23.622l4.519-18.067-16.87,6.281Z" transform="translate(-1356.224 -930.898)" fill="#e2b129"/>
              <path id="Trazado_783562" data-name="Trazado 783562" d="M1915.313,371.318s3.059-5.729-5.091-6.434.165,15.738.165,15.738Z" transform="translate(-1716.813 -328.535)" fill="#edae9d"/>
              <path id="Trazado_783563" data-name="Trazado 783563" d="M1981.336,275.441s-8.5,30.915-17.751,32.061-17.235-5.615-20.252-11.6,6.988-31.449,6.988-31.449Z" transform="translate(-1749.34 -238.122)" fill="#edae9d"/>
              <path id="Trazado_783564" data-name="Trazado 783564" d="M1924.116,228.023s-12.908,9.322-25.912,4.289c0,0-3.412-3.487-6,.188a6.307,6.307,0,0,0-.777,5.647l2.163,6.393s-8.094-2.785-3.47-15.143,13.075-14.153,19.054-14.176,15.768,3.9,17.473,7.533-2.534,5.269-2.534,5.269" transform="translate(-1700.653 -193.793)" fill="#9e3028"/>
              <path id="Trazado_783565" data-name="Trazado 783565" d="M2163.749,277s9.105,7.83,6.123,17.15c0,0,14.469-11.018,3.1-20.1s-15.988,3.829-15.988,3.829Z" transform="translate(-1942.229 -243.843)" fill="#9e3028"/>
              <path id="Trazado_783566" data-name="Trazado 783566" d="M2157.907,515s-.471,5.6-3.35,7.338c0,0,3.258.63,3.35-7.338" transform="translate(-1940.044 -463.722)" fill="#3f1f1e"/>
              <path id="Trazado_783567" data-name="Trazado 783567" d="M2232.382,465.438s-1.064-4.374-3.379-4.171-.342-1.108.949-.528c1.41.633,2.324,1.722,2.429,4.7" transform="translate(-2006.116 -414.732)" fill="#9e3028"/>
              <path id="Trazado_783568" data-name="Trazado 783568" d="M2064.518,415.821s4.441-3.2,6.771-1.456,1.2-.763-.62-1.115c-1.99-.385-3.793-.027-6.151,2.571" transform="translate(-1858.97 -371.988)" fill="#9e3028"/>
              <path id="Trazado_783569" data-name="Trazado 783569" d="M2094.662,447.007a.171.171,0,0,0,.02-.235.168.168,0,0,0-.234-.02,2.632,2.632,0,0,1-.4.343l-.024.016-.015.01-.047.03q-.056.034-.114.065a2.677,2.677,0,0,1-.243.115.139.139,0,0,0-.041.03.721.721,0,0,0-.408-.474c-.576-.2-1.4.643-1.844,1.892s-.335,2.427.241,2.631,1.4-.643,1.844-1.892a3.938,3.938,0,0,0,.239-1.879.178.178,0,0,0,.113-.007,2.736,2.736,0,0,0,.92-.624" transform="translate(-1882.844 -402.237)" fill="#592b23"/>
              <path id="Trazado_783570" data-name="Trazado 783570" d="M2224.86,494.78a.167.167,0,0,0-.273-.191,1,1,0,0,1-.092.132l-.022.025-.007.007c-.018.018-.035.034-.054.051s-.038.032-.057.047l-.03.022-.025.017-.017.01-.038.021-.066.033-.069.028-.03.011-.012,0c-.02.006-.04.008-.06.012a.8.8,0,0,0-.451-.617c-.576-.2-1.4.643-1.844,1.892s-.334,2.427.241,2.631,1.4-.643,1.844-1.892a4.208,4.208,0,0,0,.263-1.681,1.235,1.235,0,0,0,.8-.562" transform="translate(-2000.269 -445.141)" fill="#592b23"/>
              <path id="Trazado_783571" data-name="Trazado 783571" d="M1972.14,501.611c4.925.365,19.27,1.927,23.273,7.9,0,0-2.763,9.949-10.128,11.536,0,0-8.567,1.5-17.487-8.914a3.873,3.873,0,0,1-.522-4.254l2.454-4.895a2.491,2.491,0,0,1,2.411-1.369" transform="translate(-1771.039 -451.663)" fill="#ced8dd"/>
              <path id="Trazado_783572" data-name="Trazado 783572" d="M1989.22,399.579l1.856,10.114-2.158-.307-.742-11.725Z" transform="translate(-1790.228 -358.069)" fill="#ced8dd"/>
              <path id="Trazado_783573" data-name="Trazado 783573" d="M1935.131,501.422l4.879,9.687,1.338,2.724s-7.226-5.811-6.217-12.411" transform="translate(-1742.377 -451.499)" fill="#ced8dd"/>
              <path id="Trazado_783574" data-name="Trazado 783574" d="M2015.843,522.586c-.213-.057,18.733,4.37,21.584,7.648a161.254,161.254,0,0,0-21.584-7.648" transform="translate(-1815.139 -470.555)" fill="#aab6ba"/>
              <path id="Trazado_783575" data-name="Trazado 783575" d="M2003.089,549.939c-.446-.244,17.586,7.594,21.512,7.622,0,0-6.6.538-21.512-7.622" transform="translate(-1803.649 -495.181)" fill="#aab6ba"/>
              <path id="Trazado_783576" data-name="Trazado 783576" d="M1995.458,571.3c-.275-.2,11.392,10.575,19.889,8.816,0,0-6.321,1.187-19.889-8.816" transform="translate(-1796.781 -514.418)" fill="#aab6ba"/>
              <path id="Trazado_783577" data-name="Trazado 783577" d="M2471.647,1794.635v12.03a5.452,5.452,0,0,1-5.452,5.452H2430l22.233-28.219Z" transform="translate(-2188.063 -1606.289)" fill="#f7c786"/>
              <path id="Trazado_783578" data-name="Trazado 783578" d="M2096.079,802.358a5.748,5.748,0,0,1,5.368-.255c2.928,1.382,8.485,4.789,11.38,15.4,5.032,18.439,11.528,28.409,11.117,29.644s-19.4,10.805-19.4,10.805-9.262-17.3-11.477-27c-1.5-6.558-8.225-22.006,3.015-28.592" transform="translate(-1881.646 -721.753)" fill="#f5d045"/>
              <path id="Trazado_783579" data-name="Trazado 783579" d="M856.2,1603.076s-34.959,7.415-41.647,57.483c-7.207,53.956-31.593,109.778-62.827,102.29,0,0-9.473-1.482-11.265,2.87l3.072,1.88s.256-4.7,8.193-2.136,47.138,4.036,64.972-104.135c0,0,4.089-48.021,40.92-54.71Z" transform="translate(-666.74 -1443.47)" fill="#160f45"/>
              <path id="Trazado_783580" data-name="Trazado 783580" d="M1503.03,1566.334s-2.048,20.622,3.781,49.881c0,0,5.323,39.242,3.7,44.582,0,0,12.269,8.22,20,3.361l2.1-25.6,28.541,3.328a8.813,8.813,0,0,1-.209,4.31s-5.272,12.722-3.641,18.439c0,0,5.972,5.541,23.667-9.244l1.822-16.578-48.071-61.327s-22.351-2.481-31.687-11.156" transform="translate(-1353.07 -1410.386)" fill="#892421"/>
              <path id="Trazado_783581" data-name="Trazado 783581" d="M2190.593,978.819s5.39,17.54-1.076,25.319l2.725,11.862-1.649,1.562-5.324-10.758s8.1-14.952,5.324-27.985" transform="translate(-1967.698 -881.365)" fill="#e2b129"/>
            </g>
          </g>
          <g id="Grupo_1099994" data-name="Grupo 1099994" transform="translate(0 0)">
            <g id="Grupo_1099993" data-name="Grupo 1099993" transform="translate(0 0)" clip-path="url(#clip-path)">
              <path id="Trazado_783582" data-name="Trazado 783582" d="M463.693.535c-5.67.183-10.9,2.766-13.773,6.911-2.057,2.964-2.574,6.2,2.294,8.082,10.385,4.02,69.121,3.64,69.573-.774S522.062,2.55,511.482.787c-8.05-1.341-35.246-.656-47.789-.252" transform="translate(-403.78 0.003)" fill="#a8bed8"/>
              <path id="Trazado_783583" data-name="Trazado 783583" d="M583.643,56.925s-57,.666-59.709-2.482,2.519-7.975,14.639-7.4,40.784-1.262,40.33,2.392-24.534,6.63-32.826,4.76,14.683-2.79,17.583-2.794,6.3-1.866-12.138-1.661-20.592.6-19.134,2.528,8.887,5.492,48.886,3.527c0,0,6.36-1.558,2.369,1.13" transform="translate(-471.141 -42.318)" fill="#879db2"/>
              <path id="Trazado_783584" data-name="Trazado 783584" d="M481.154,1678.239h-27.63a1.3,1.3,0,0,1-.489-2.5l40.688-16.526,25.891,1.459-5.154,2.745-20.353-2.094-34.562,14.609h32.642l-2.366.832a26.119,26.119,0,0,1-8.666,1.479" transform="translate(-407.198 -1494.014)" fill="#160f45"/>
              <path id="Trazado_783585" data-name="Trazado 783585" d="M676.352,1740.728h24.385l-4.224,2.339-26.114-.94Z" transform="translate(-603.653 -1567.417)" fill="#160f45"/>
              <path id="Trazado_783586" data-name="Trazado 783586" d="M821.65,1691.722l20.656,1.928,1.728-.964-22.274-2.108Z" transform="translate(-739.845 -1522.26)" fill="#160f45"/>
              <path id="Trazado_783587" data-name="Trazado 783587" d="M597.67,1785.176l28.555.6,2.112-1.878H599.343Z" transform="translate(-538.164 -1606.288)" fill="#160f45"/>
              <path id="Trazado_783588" data-name="Trazado 783588" d="M1201.43,1706.561,1359.16,1864.3l3.984.656a1.7,1.7,0,0,0,1.481-2.884L1204.04,1701.478a3,3,0,0,0-2.609,5.083" transform="translate(-1081.012 -1532.035)" fill="#160f45"/>
              <path id="Trazado_783589" data-name="Trazado 783589" d="M1366.95,1734.884l-160.459,154.958-3.994.586a1.7,1.7,0,0,1-1.43-2.909l163.363-157.763a3,3,0,0,1,2.52,5.128" transform="translate(-1081.012 -1557.506)" fill="#2a3380"/>
              <path id="Trazado_783590" data-name="Trazado 783590" d="M767.768,1769.639v1.059c0,2.6,3.563,4.7,7.958,4.7H983.78s34.917-1.9,34.751-12.864Z" transform="translate(-691.327 -1587.051)" fill="#e2b129"/>
              <path id="Trazado_783591" data-name="Trazado 783591" d="M794.41,1674.112l-29.588,13.82c-1.884.88-.833,2.67,1.569,2.672,35.823.031,191.879.168,195.338.18,42,.148,70.29-8.6,41.93-15.4a91.1,91.1,0,0,0-21.148-2.433H800.08a13.628,13.628,0,0,0-5.67,1.164" transform="translate(-687.803 -1506.385)" fill="#f5d045"/>
              <path id="Trazado_783592" data-name="Trazado 783592" d="M781.971,1686.908l20.456-10.237a2.429,2.429,0,0,1,1.067-.231h29.316a2.733,2.733,0,0,0,.283-.014,17.16,17.16,0,0,0,3.634-.756c1.416-.516.8-1.8-.865-1.8h-33.5a2.729,2.729,0,0,0-.276.014l-.29.029a20.256,20.256,0,0,0-6.495,1.707l-27.966,13.063a1.2,1.2,0,0,0-.529.434l-.419.688c-.578.949.572,1.061,1.974,1.637.129.053.209.085.214.085h42.79a2.755,2.755,0,0,0,.36-.023c.865-.114,4.409-.652,4.24-1.8-.071-.488-.791-.855-1.62-.86l-31.324-.208c-1.527-.01-2.214-1.135-1.048-1.718" transform="translate(-689.945 -1507.21)" fill="#2a3380"/>
              <path id="Trazado_783593" data-name="Trazado 783593" d="M463.693,137.56c-5.67.183-10.9,2.766-13.773,6.911-2.057,2.964-2.574,6.2,2.294,8.082,10.385,4.02,69.121,3.64,69.573-.774s.275-12.205-10.305-13.968c-8.05-1.341-35.246-.656-47.789-.252" transform="translate(-403.78 -123.38)" fill="#f5d045"/>
              <path id="Trazado_783594" data-name="Trazado 783594" d="M583.643,193.95s-57,.666-59.709-2.482,2.519-7.975,14.639-7.4,40.784-1.262,40.33,2.392-24.534,6.63-32.826,4.76,14.683-2.79,17.583-2.794,6.3-1.866-12.138-1.661-20.592.6-19.134,2.528,8.887,5.492,48.886,3.527c0,0,6.36-1.558,2.369,1.13" transform="translate(-471.141 -165.701)" fill="#e2b129"/>
              <path id="Trazado_783595" data-name="Trazado 783595" d="M479.086,291.9c-5.67.183-10.9,2.766-13.773,6.911-2.057,2.964-2.574,6.2,2.294,8.082,10.385,4.02,69.121,3.64,69.573-.774s.275-12.205-10.3-13.968c-8.05-1.341-35.246-.656-47.789-.252" transform="translate(-417.641 -262.356)" fill="#9e3028"/>
              <path id="Trazado_783596" data-name="Trazado 783596" d="M599.036,348.294s-57,.666-59.708-2.482,2.519-7.975,14.639-7.4,40.783-1.262,40.33,2.392-24.534,6.63-32.826,4.76,14.683-2.79,17.583-2.794,6.3-1.866-12.138-1.661-20.592.6-19.134,2.528,8.887,5.492,48.886,3.527c0,0,6.36-1.558,2.369,1.13" transform="translate(-485.001 -304.678)" fill="#7f2321"/>
            </g>
          </g>
          <g id="Grupo_1099996" data-name="Grupo 1099996" transform="translate(0 0)">
            <g id="Grupo_1099995" data-name="Grupo 1099995" transform="translate(0 0)" clip-path="url(#clip-path)">
              <path id="Trazado_783597" data-name="Trazado 783597" d="M721.218,3236.492h-2.407a2.24,2.24,0,0,0-2.24,2.24v1.552h6.991v-1.449a2.343,2.343,0,0,0-2.343-2.343" transform="translate(-645.227 -2914.259)" fill="#160f45"/>
              <path id="Trazado_783598" data-name="Trazado 783598" d="M1266.851,1664.324c-1.167-.743-35.931,12.82-39.636,16.93-3.255,3.611.479,68.261,1.436,83.931a4.852,4.852,0,0,0,3.639,4.4c5.422,1.394,9.379,2.942,17.928,1.774,1.867-.255,3.171-2.959,3.348-4.836,1.059-11.241,5.977-36.955,9.166-38.018,3.231-1.077,68.974-.13,89.83,7.1a4.849,4.849,0,0,0,6.438-4.541c.116-13.569.626-42.352,2.859-49.742,2.871-9.5,44.438-17.347,48.556-17,0,0-131.346-4-143.564,0" transform="translate(-1103.854 -1497.018)" fill="#fedeac"/>
              <path id="Trazado_783599" data-name="Trazado 783599" d="M2839.745,1581.323s15.779,1.682,17.258,2.34,11.04,5.98,10.133,6.182-2.087,1.735-7.133-1.257c-4.042-2.4-2.743-1.2-4.445-1.149s-7.351.324-7.8,1.742,3.409,4.182,5.759,4.48,1.538,2.623-.549,1.862c-3.006-1.1-14.992-5.35-14.992-5.35Z" transform="translate(-2555.427 -1423.882)" fill="#edae9d"/>
              <path id="Trazado_783600" data-name="Trazado 783600" d="M2012.544,1713.222s-32.488,4.662-50.438-.96a1.833,1.833,0,0,0,.178,2.369c1.1,1.108,23.871,14.194,50.387.283" transform="translate(-1766.427 -1541.785)" fill="#160f45"/>
              <path id="Trazado_783601" data-name="Trazado 783601" d="M1909.31,1579.6l-6.376,2.337,1.418,3.541,6.447.358Z" transform="translate(-1713.473 -1422.33)" fill="#160f45"/>
              <path id="Trazado_783602" data-name="Trazado 783602" d="M1992.467,1570.257s-4.9,4.994.459,6.084,15.98.479,17.088-1.289-.347-4.606-.347-4.606l4.159,5.511s-5.5,5.99-6.142,6.549-16.543,1.248-16.543,1.248l-6.589-7.907s1.072-5.326,7.916-5.591" transform="translate(-1786.964 -1413.918)" fill="#1a79b1"/>
              <path id="Trazado_783603" data-name="Trazado 783603" d="M1993.087,1525.682c-11.106-5.118-27.39-2.188-31.234.995S1961,1542.4,1961,1542.4c27.632,14.421,49.88.322,49.88.322s-6.684-11.917-17.79-17.035m-7.922,10.028c-3.651,1.225-14.259,2.705-18.406-.385,0,0-2.857-4.038.192-6.48s18.586-1.742,21.158.786.706,4.855-2.945,6.079" transform="translate(-1764.759 -1371.28)" fill="#199cbf"/>
              <path id="Trazado_783604" data-name="Trazado 783604" d="M2077.531,1619.052a.76.76,0,0,1-.417-.965c.319-.836,1.225-2.2,3.785-2.844,3.84-.97,9.861.65,8,2.646-1.808,1.937-5.03,3.866-11.366,1.163" transform="translate(-1870.267 -1454.165)" fill="#160f45"/>
              <path id="Trazado_783605" data-name="Trazado 783605" d="M1490.257,737.379a14.358,14.358,0,0,0-5.037,5.5c-3.328,6.348-11.151,29.793-15.652,46.359-3.817,14.047,48.627,28.446,48.627,28.446l3.851-9.072s-25.579-19.1-31.921-23.266c-8.911-5.855,15.583-29.085,12.7-40.238-2.339-9.062-7.181-11.128-12.573-7.732" transform="translate(-1323.076 -662.576)" fill="#edae9d"/>
              <path id="Trazado_783606" data-name="Trazado 783606" d="M1497.748,725.317a5.748,5.748,0,0,0-5.367-.255c-2.927,1.382-7.367,5.159-11.38,15.4-6.725,17.155-11.528,28.409-11.116,29.644s20.682,5.052,20.682,5.052,4.707-16.717,10.2-21.246c5.189-4.281,8.225-22.006-3.015-28.592" transform="translate(-1323.517 -652.382)" fill="#f5d045"/>
              <path id="Trazado_783607" data-name="Trazado 783607" d="M1963.619,1466.466s13.752-.6,17.218,2.973,2.642,6.725,2.368,7.274a1.414,1.414,0,0,1-2.2,0s-.456,1.576-2.058.52a2.463,2.463,0,0,1-3.257-.383s-1.359,1.921-2.139-.549a8.488,8.488,0,0,0-5.217-1.51c-3.111.137-5.244,2.865-8.569.746Z" transform="translate(-1764.649 -1320.427)" fill="#edae9d"/>
              <path id="Trazado_783608" data-name="Trazado 783608" d="M1261.779,1852.119l128.868.91s-105.7,1.679-128.868-.91" transform="translate(-1136.153 -1667.717)" fill="#f7c786"/>
              <rect id="Rectángulo_401041" data-name="Rectángulo 401041" width="45.571" height="7.925" transform="translate(50.091 325.017)" fill="#fe9a00"/>
            </g>
          </g>
        </g>
      </g>
    </g>
  </g>
</svg>
