<svg xmlns="http://www.w3.org/2000/svg" xmlns:xlink="http://www.w3.org/1999/xlink" width="289.565" height="298.836" viewBox="0 0 289.565 298.836">
  <defs>
    <clipPath id="clip-path">
      <rect id="Rectángulo_401146" data-name="Rectángulo 401146" width="196.84" height="298.835" fill="none"/>
    </clipPath>
    <clipPath id="clip-path-3">
      <rect id="Rectángulo_401144" data-name="Rectángulo 401144" width="20.191" height="9.211" fill="none"/>
    </clipPath>
  </defs>
  <g id="Grupo_1205294" data-name="Grupo 1205294" transform="translate(-1025.435 -10347.338)">
    <g id="BACKGROUND" transform="translate(1025.436 10380.271)">
      <g id="Grupo_32241" data-name="Grupo 32241" transform="translate(0)">
        <path id="Trazado_61861" data-name="Trazado 61861" d="M108.76,115.252c14.311-.494,28.149,4.52,41.839,8.721s28.341,7.654,42.2,4.04c18.63-4.857,31.627-21.19,43.3-36.5s24.874-31.551,43.592-36.058c17.479-4.208,36.336,3.336,49.058,16.039s20.063,29.875,24.645,47.26c11.348,43.061,5.871,92.706-23.615,126.077-23.59,26.7-59.2,39.814-94.375,45.482-25.374,4.089-51.753,4.771-76.427-2.422a124.865,124.865,0,0,1-72.137-56.4C68.408,199.84,51.318,117.237,108.76,115.252Z" transform="translate(-69.318 -34.884)" fill="#5ec6a3"/>
        <path id="Trazado_61862" data-name="Trazado 61862" d="M191.916,101.657c17.228.319,35.779-6.023,48.665-15.017,7.144-4.986,13.53-11.339,17.342-19.172s4.821-17.266,1.5-25.319c-4.8-11.618-17.412-18.192-29.76-20.541a73.12,73.12,0,0,0-54.811,11.71c-11.066,7.716-22.667,18.7-25.539,32.441-3.095,14.806,9.655,26.165,22.2,31.714A52.83,52.83,0,0,0,191.916,101.657Z" transform="translate(-103.35 -20.373)" fill="#5ec6a3"/>
      </g>
    </g>
    <g id="Grupo_1100178" data-name="Grupo 1100178" transform="translate(1065.41 10347.339)">
      <g id="Grupo_1100177" data-name="Grupo 1100177" clip-path="url(#clip-path)">
        <rect id="Rectángulo_401143" data-name="Rectángulo 401143" width="42.303" height="32.62" transform="translate(98.085 41.555)" fill="#ce4129"/>
        <g id="Grupo_1100176" data-name="Grupo 1100176">
          <g id="Grupo_1100175" data-name="Grupo 1100175" clip-path="url(#clip-path)">
            <path id="Trazado_783766" data-name="Trazado 783766" d="M31.556,272.138a7.364,7.364,0,0,0-1-1.9,7.643,7.643,0,0,0-1.631-1.4,39.488,39.488,0,0,0-8.824-4.3c-3.111-1.189-6.026-2.831-9.065-4.194A23.613,23.613,0,0,0,1.432,257.9a1.433,1.433,0,0,0-.624.1,1.1,1.1,0,0,0-.53.96,2.808,2.808,0,0,0,.764,1.882c1.536,1.815,4.063,2.33,6.264,3.231,1.285.526,2.45,1.458,3.734,1.929,1.04.382,1.968.468,2.487,1.643-1.457,0-2.777-.8-4.164-1.24s-3.181-.4-3.978.817l-1.668,2.553c-.278.425-.645.9-1.153.89A2.714,2.714,0,0,0,0,273.241a3.851,3.851,0,0,0,1.9,3.326.944.944,0,0,1,.244,1.1,8.48,8.48,0,0,0-.442,1.131A2.046,2.046,0,0,0,3,280.817a16.424,16.424,0,0,0,2.473.7,13.89,13.89,0,0,1,4.109,2.45A62.788,62.788,0,0,0,19.9,290.213a19.122,19.122,0,0,1,3.008,1.639c3.123,2.267,4.512,6.2,5.619,9.723q5.8-4.649,11.984-8.795c-4.293-6.208-6.144-13.637-8.951-20.643M8.23,278a.4.4,0,0,1-.326-.054l-3.137-1.511c.087-.145.238-.553.416-.578.143-.021.552.327.685.4a11.857,11.857,0,0,0,1.4.683,3.024,3.024,0,0,1,.9.485.557.557,0,0,1,.187.282A.26.26,0,0,1,8.23,278" transform="translate(0 -178.481)" fill="#ffa385"/>
            <path id="Trazado_783767" data-name="Trazado 783767" d="M59.662,266.6a7.307,7.307,0,0,0,2.245,3.616,3.183,3.183,0,0,0,3.973.067,3.5,3.5,0,0,0,.949-2.023,6.408,6.408,0,0,0-1.376-5.043,12.645,12.645,0,0,0-1.811-1.678c-.751-.61-1.436-1.3-2.182-1.92-.7-.58-1.73-2.014-2.615-2.251a.913.913,0,0,0-.7.192,4.49,4.49,0,0,0-1.336,1.335,1.262,1.262,0,0,0-.26.85,1.5,1.5,0,0,0,.315.613,22.622,22.622,0,0,1,1.99,3.248,24.552,24.552,0,0,1,.808,2.995" transform="translate(-39.13 -178.102)" fill="#7a6e78"/>
            <path id="Trazado_783768" data-name="Trazado 783768" d="M17.726,181.115c-.091.249.19.776.268.988l1.356,3.667,1.889,5.112,1.944,5.258,1.518,4.108.613,1.659a2.362,2.362,0,0,1,1.489.213,41.771,41.771,0,0,1,3.319,4l1.617-1.32c-.228-.4-4.217-6.088-6.744-10.861-1.38-2.607-6.22-11.766-6.456-12.178-.127-.223-.43-.989-.753-.729a.191.191,0,0,0-.059.085" transform="translate(-12.255 -125.248)" fill="#aaa"/>
            <path id="Trazado_783769" data-name="Trazado 783769" d="M28.613,203.059s2.886-7.137,4.545-12.244q.121-.372.24-.745.14-.44.279-.881.156-.5.312-.993l.337-1.082q.178-.574.356-1.148.184-.594.367-1.19l.372-1.208.369-1.2.36-1.174.343-1.123.319-1.047.289-.948.251-.825.206-.678.155-.509.034-.114c.015-.05.018-.131.051-.166a.226.226,0,0,1,.133-.064.446.446,0,0,1,.231.038c.071.023.1.035.126.111a.571.571,0,0,1-.031.271l-.028.153q-.035.193-.07.386l-.088.485-.1.576-.119.659q-.066.367-.133.734l-.145.8-.156.859-.165.91q-.086.476-.172.952l-.179.987-.184,1.013-.187,1.031q-.094.521-.189,1.042l-.189,1.044-.188,1.037q-.093.512-.185,1.024t-.181,1l-.176.971-.169.933-.161.886-.151.832-.139.769-.126.7-.112.62-.1.533-.079.438q-.03.167-.061.335l-.04.223-.02.111a2.082,2.082,0,0,0-1.994,1.064c-.559,1.191-1.963,4.936-1.963,4.936Z" transform="translate(-19.802 -121.605)" fill="#aaa"/>
            <path id="Trazado_783770" data-name="Trazado 783770" d="M43.543,236.97a.638.638,0,1,1-.638-.638.638.638,0,0,1,.638.638" transform="translate(-29.252 -163.558)" fill="#7a6e78"/>
            <path id="Trazado_783771" data-name="Trazado 783771" d="M64.63,277.306a5.207,5.207,0,0,1-2.393-4.759c.1-2.059,1.954-1.3,3.037-.475a7.9,7.9,0,0,0,1.838.937c1.387.558,2.917,1.342,2.955,3.024.02.9-.609,2.66-1.675,2.835-1,.165-2.909-1.093-3.762-1.562" transform="translate(-43.068 -187.707)" fill="#ffa385"/>
            <path id="Trazado_783772" data-name="Trazado 783772" d="M77.142,316.5a.354.354,0,0,1-.3-.159,12.389,12.389,0,0,1-2-7.554c.049-.767.171-1.537.288-2.281a13.039,13.039,0,0,0,.232-3.86.354.354,0,0,1,.7-.1,13.764,13.764,0,0,1-.234,4.069c-.115.728-.234,1.481-.281,2.216a11.677,11.677,0,0,0,1.888,7.12.353.353,0,0,1-.3.548" transform="translate(-51.78 -209.171)" fill="#e28065"/>
            <path id="Trazado_783773" data-name="Trazado 783773" d="M17.59,322.731a1.5,1.5,0,0,1-.364-.045A.354.354,0,0,1,17.4,322a.907.907,0,0,0,.7-.134,1.293,1.293,0,0,0,.571-.8,2.141,2.141,0,0,0-.639-1.8A6.968,6.968,0,0,0,16.2,318.03l-.592-.314a.353.353,0,0,1,.331-.625l.593.314a7.614,7.614,0,0,1,2.012,1.371,2.783,2.783,0,0,1,.819,2.436,2,2,0,0,1-.889,1.253,1.678,1.678,0,0,1-.887.265" transform="translate(-10.674 -219.42)" fill="#e28065"/>
            <path id="Trazado_783774" data-name="Trazado 783774" d="M7.751,306.737c-.037,0-.074,0-.112,0a2.214,2.214,0,0,1-1.334-.527.354.354,0,1,1,.453-.543,1.51,1.51,0,0,0,.922.364c.476.031.837-.245,1.162-.885a2.419,2.419,0,0,0,.071-1.837,4.8,4.8,0,0,0-1.07-1.692,8.866,8.866,0,0,0-1.322-1.183.354.354,0,1,1,.417-.572,9.54,9.54,0,0,1,1.427,1.277,5.47,5.47,0,0,1,1.219,1.947,3.127,3.127,0,0,1-.111,2.378,1.924,1.924,0,0,1-1.721,1.275" transform="translate(-4.276 -207.476)" fill="#e28065"/>
            <path id="Trazado_783775" data-name="Trazado 783775" d="M22.543,293.794a2.041,2.041,0,0,0,1.677-3.307,4.889,4.889,0,0,1-.448-.715,2.573,2.573,0,0,1-.151-.77q-.131-1.476-.159-2.959a11.55,11.55,0,0,0-2.483,3.379,7.209,7.209,0,0,0-.608,1.271,3.206,3.206,0,0,0,.1,2.474c.379.538,1.477.65,2.075.626" transform="translate(-13.96 -197.961)" fill="#e28065"/>
            <path id="Trazado_783776" data-name="Trazado 783776" d="M13.668,270.611a18.045,18.045,0,0,0-.064,2.018,4.494,4.494,0,0,1-3.169,4.484,3.858,3.858,0,0,1-3.725-.809,5.033,5.033,0,0,1-.67-3.754A9,9,0,0,1,7.693,269c1.4-1.982,2.679-4.017,4.241-5.885a1.392,1.392,0,0,1,.5-.431,1.437,1.437,0,0,1,1.058.132l1.487.6c.96.385-.347,2.821-.538,3.412a17.123,17.123,0,0,0-.774,3.786" transform="translate(-4.116 -181.755)" fill="#7a6e78"/>
            <path id="Trazado_783777" data-name="Trazado 783777" d="M12.969,291.47a5.034,5.034,0,0,1-1.212-1.446,3.531,3.531,0,0,1,1.391-4.551,1.619,1.619,0,0,1,1.017-.234c.684.113,1.065.827,1.379,1.445a19.98,19.98,0,0,0,1.772,2.865,3.2,3.2,0,0,1,.814,1.651,1.867,1.867,0,0,1-1.3,1.733c-1.558.553-2.762-.506-3.864-1.461" transform="translate(-7.896 -197.394)" fill="#ffa385"/>
            <path id="Trazado_783778" data-name="Trazado 783778" d="M95.732,385.365,101.67,400.7c2.831,7.314,3.007,10.7,9.137,15.588,5.672,4.525,11.681-.8,11.993-7.075.286-5.758.753-6.986-1.8-12.157-1.761-3.573-3.6-7.108-5.434-10.642L99.738,355.946c-1.743-3.356-4.195-7.176-7.976-7.243-10.618-.191-5.252,12.843-3.211,18.116l7.181,18.546" transform="translate(-59.086 -241.324)" fill="#ffa385"/>
            <path id="Trazado_783779" data-name="Trazado 783779" d="M165.555,361.262c-.088,4.231.1,8.773,2.742,12.186a4.883,4.883,0,0,0,2.236,1.757c2.663.879,5.1-1.728,6.425-4.084,3.2-5.683,5.277-11.861,7.23-18.029q4.543-14.349,8.306-28.905c2.1-8.113,4.023-16.456,3.037-24.756a17.7,17.7,0,0,0-2.591-7.91c-2.8-4.144-8.647-5.9-13.074-2.8-3.1,2.167-3.14,6.311-3.877,9.584-3,13.312-6.439,26.475-8.419,39.978a185.146,185.146,0,0,0-2.016,22.983" transform="translate(-114.564 -198.724)" fill="#ffa385"/>
            <path id="Trazado_783780" data-name="Trazado 783780" d="M179.454,465.292a.353.353,0,0,1-.326-.218c-2.291-5.517-4.659-11.221-8.224-16.132a.354.354,0,0,1,.573-.415c3.613,4.978,6,10.721,8.3,16.276a.354.354,0,0,1-.191.462.35.35,0,0,1-.135.027" transform="translate(-118.23 -310.31)" fill="#e28065"/>
            <path id="Trazado_783781" data-name="Trazado 783781" d="M175.49,275.992c-3.655,5.4-8.878,39.96-9.952,43.059,1.9.3,17.658,6.1,26.007,7.066,2.536-6.292,5.9-18.094,8.246-24.458,3.32-8.99,4.218-19.28.312-28.031-.863-1.933-4.57-9.027-6.638-8.579-7.863,1.7-13.858,4.863-17.976,10.943" transform="translate(-114.563 -183.418)" fill="#f3e3ca"/>
            <path id="Trazado_783782" data-name="Trazado 783782" d="M330.905,172.15a9.039,9.039,0,0,1-.362,3.783,8.59,8.59,0,0,1-2.829,3.439,27.274,27.274,0,0,1-6.131,3.732c.217,4.551,4.033,8.331,8.355,9.772s9.04.972,13.516.12c4.753-.906,9.586-2.309,13.292-5.421.966-.811,1.909-1.909,1.783-3.164-.213-2.114-3.073-2.8-4.146-4.636a6.185,6.185,0,0,1-.6-2.931q-.212-5.694-.138-11.394c0-.006-17.5-3.739-19.1-4.188-2.473-.693-6.076-2.39-5.344,1.5.6,3.169,1.5,6.134,1.707,9.391" transform="translate(-222.557 -110.934)" fill="#ffa385"/>
            <g id="Grupo_1100174" data-name="Grupo 1100174" transform="translate(109.75 55.728)" opacity="0.4" style="mix-blend-mode: multiply;isolation: isolate">
              <g id="Grupo_1100173" data-name="Grupo 1100173">
                <g id="Grupo_1100172" data-name="Grupo 1100172" clip-path="url(#clip-path-3)">
                  <path id="Trazado_783783" data-name="Trazado 783783" d="M356.408,180.976l20.191,4.253s-8.309,13.6-20.191-4.253" transform="translate(-356.408 -180.976)" fill="#5f515c"/>
                </g>
              </g>
            </g>
            <path id="Trazado_783784" data-name="Trazado 783784" d="M511.184,294.817c1.787,3.449,3.451,7.278,2.455,11.254a4.843,4.843,0,0,1-1.3,2.432c-2.037,1.9-7.032,3-9.175,1.644-5.167-3.279-9.527-7.46-13.77-11.687-6.581-6.557-27.626-34.172-30.091-41.449a15.352,15.352,0,0,1-.865-7.662,9.941,9.941,0,0,1,10.61-8.06c3.662.422,5.368,3.824,7.35,6.2,8.064,9.66,16.469,19,23.7,29.264a156.343,156.343,0,0,1,11.087,18.065" transform="translate(-317.145 -166.947)" fill="#ffa385"/>
            <path id="Trazado_783785" data-name="Trazado 783785" d="M481.937,247.141c5.364,3.7,26.309,31.881,27.8,34.779-1.558,1.13-14.895,14.444-21.907,19.079-5.1-4.469-12.671-12.812-17.642-17.43-7.021-6.522-10.813-17.851-11.279-27.423-.1-2.114.708-13.277,2.756-13.81,7.785-2.031,13.064-.171,20.273,4.806" transform="translate(-317.589 -167.152)" fill="#f3e3ca"/>
            <path id="Trazado_783786" data-name="Trazado 783786" d="M298.838,225.142a52.713,52.713,0,0,0,9.771,2.326,15.45,15.45,0,0,1,4.265.949c3.312,1.49,4.227,6.313,4.967,9.473a86.911,86.911,0,0,1,1.83,13.781,259.916,259.916,0,0,1-4.2,67.989c-.43,2.2-.958,4.525-2.537,6.114-1.863,1.876-4.71,2.266-7.338,2.555-10.637,1.169-21.317,2.339-32.013,2.006-6.23-.194-12.865-1.073-17.6-5.129-5.224-4.478-6.915-11.725-8.314-18.462L235.528,248.3c-.712-3.429-1.2-7.592,1.455-9.88,1.473-1.271,3.374-1.42,5.093-2.079,2.326-.892,4.569-2.3,6.8-3.423l13.971-7.032c.22-.111,4.049-2.13,4.049-2.13s3.542,8.282,17.558,6.85c4.556-.466,7.9-2.62,10.79-6.174.853.342,2.729.415,3.6.712" transform="translate(-162.613 -154.853)" fill="#f3e3ca"/>
            <path id="Trazado_783787" data-name="Trazado 783787" d="M250.293,339.5a.531.531,0,0,1-.487-.742c5.231-12.044,5.773-25.957,6.251-38.232a.516.516,0,0,1,.551-.51.53.53,0,0,1,.509.551c-.482,12.368-1.028,26.386-6.338,38.614a.531.531,0,0,1-.487.319" transform="translate(-172.852 -207.63)" fill="#e0cdb3"/>
            <path id="Trazado_783788" data-name="Trazado 783788" d="M258.014,333.547h-.006a.531.531,0,0,1-.525-.536,43.027,43.027,0,0,0-3.193-16.624.531.531,0,0,1,.982-.4,44.113,44.113,0,0,1,3.272,17.037.531.531,0,0,1-.531.525" transform="translate(-175.959 -218.454)" fill="#e0cdb3"/>
            <path id="Trazado_783789" data-name="Trazado 783789" d="M498.571,332.81a.531.531,0,0,1-.513-.4,202.175,202.175,0,0,1-5.39-29.123.531.531,0,1,1,1.055-.116,201.062,201.062,0,0,0,5.362,28.97.531.531,0,0,1-.378.648.537.537,0,0,1-.135.018" transform="translate(-340.957 -209.49)" fill="#e0cdb3"/>
            <path id="Trazado_783790" data-name="Trazado 783790" d="M504.421,340.39a.531.531,0,0,1-.527-.47,21.461,21.461,0,0,1,2.473-12.636.531.531,0,1,1,.931.509,20.393,20.393,0,0,0-2.35,12.006.531.531,0,0,1-.467.588.521.521,0,0,1-.061,0" transform="translate(-348.635 -226.311)" fill="#e0cdb3"/>
            <path id="Trazado_783791" data-name="Trazado 783791" d="M217.983,246.61a235.4,235.4,0,0,1-12.848,26.317c-4.126,7.134-4.048,22.384-2.394,29.986a115.711,115.711,0,0,1,2.616,24.258,26.334,26.334,0,0,1-.234,4.892,30.964,30.964,0,0,1-1.59,5.425c-7.712,21.382-12.7,43.563-16.964,65.793-2.392,12.481-2.662,25.4-3.694,38.108,8.673,3.087,18.122,2.78,27.329,2.842,11.878.08,24.152-1.717,35.483,2.757,2.934,1.158,5.763,2.63,8.828,3.374a39.071,39.071,0,0,0,9.54.709l16.167-.124a18.143,18.143,0,0,0,6.577-1.2c6.748-2.684,5.716-7.273,5.645-12.684-.094-7.084.727-14.261.89-21.353a276.655,276.655,0,0,0-1.781-41.673c-1.584-12.3-6.164-24.127-9.711-36.036a62.1,62.1,0,0,1-2.459-10.414,62.1,62.1,0,0,1,.024-11.066c.808-13.071,3.391-27.61-.6-40.382-1.918-6.14-4.874-11.894-7.471-17.778-3.046-6.9-6.569-16.336-6.569-16.336s-1.287-17.643-6.721-21.757c.967,5.016,2.118,17.573,2.489,27.206a4.807,4.807,0,0,1-4.805,4.987c-8.316.014-17.883-.055-26.191-.041a4.8,4.8,0,0,1-4.815-4.943c.16-5.456-.594-16.49,7.814-27.495a17.408,17.408,0,0,0-10.75,11.83q-.786,3.276-1.248,6.619a67.761,67.761,0,0,1-2.553,8.177" transform="translate(-126.561 -152.244)" fill="#7696d6"/>
            <path id="Trazado_783792" data-name="Trazado 783792" d="M460.057,439.557c.305.48-.111,2.017-.231,2.633-.487,2.479-1.179,4.951-1.829,7.391-.633,2.374-1.338,4.728-2.038,7.083-.686,2.31-1.315,5.995-3.216,7.1-1.1.64-4.625-.431-5.372-.329a.351.351,0,0,0-.238.111.521.521,0,0,0-.069.483.462.462,0,0,0,.262.271c1.5.545,4.3,1.177,4.756,1.584.93.82-6.164,21.507-7.648,26.315a3.185,3.185,0,0,0-.166,2.149c3.474-5.88,18.529-52.106,17.027-55.848-.575-1.433-4.182-2-6.337-2.217-.16-.016-.251.329-.1.382,1.746.622,4.466,1.74,5.2,2.895" transform="translate(-307.37 -301.935)" fill="#5f515c"/>
            <path id="Trazado_783793" data-name="Trazado 783793" d="M482.726,444.7a.348.348,0,0,1-.1-.014l-5.64-1.657a.354.354,0,0,1,.2-.678l5.64,1.657a.354.354,0,0,1-.1.693" transform="translate(-329.931 -306.126)" fill="#5f515c"/>
            <path id="Trazado_783794" data-name="Trazado 783794" d="M481.6,449.242a.35.35,0,0,1-.1-.014l-5.834-1.714a.353.353,0,1,1,.2-.678l5.834,1.714a.354.354,0,0,1-.1.693" transform="translate(-329.02 -309.23)" fill="#5f515c"/>
            <path id="Trazado_783795" data-name="Trazado 783795" d="M480.313,454.069a.35.35,0,0,1-.1-.014l-5.951-1.748a.353.353,0,1,1,.2-.678l5.951,1.748a.354.354,0,0,1-.1.693" transform="translate(-328.045 -312.547)" fill="#5f515c"/>
            <path id="Trazado_783796" data-name="Trazado 783796" d="M478.963,458.879a.352.352,0,0,1-.1-.014l-6.01-1.766a.354.354,0,0,1,.2-.678l6.01,1.766a.354.354,0,0,1-.1.693" transform="translate(-327.07 -315.864)" fill="#5f515c"/>
            <path id="Trazado_783797" data-name="Trazado 783797" d="M477.648,463.7a.35.35,0,0,1-.1-.014l-6.1-1.793a.354.354,0,1,1,.2-.678l6.1,1.793a.354.354,0,0,1-.1.693" transform="translate(-326.096 -319.182)" fill="#5f515c"/>
            <path id="Trazado_783798" data-name="Trazado 783798" d="M476.282,468.506a.351.351,0,0,1-.1-.014l-6.145-1.805a.353.353,0,1,1,.2-.678l6.145,1.805a.354.354,0,0,1-.1.693" transform="translate(-325.121 -322.499)" fill="#5f515c"/>
            <path id="Trazado_783799" data-name="Trazado 783799" d="M474.909,473.309a.353.353,0,0,1-.1-.014l-6.181-1.816a.354.354,0,0,1,.2-.679l6.18,1.816a.354.354,0,0,1-.1.693" transform="translate(-324.147 -325.815)" fill="#5f515c"/>
            <path id="Trazado_783800" data-name="Trazado 783800" d="M473.534,478.112a.348.348,0,0,1-.1-.014l-6.213-1.825a.353.353,0,0,1,.2-.678l6.213,1.825a.354.354,0,0,1-.1.693" transform="translate(-323.173 -329.133)" fill="#5f515c"/>
            <path id="Trazado_783801" data-name="Trazado 783801" d="M472.143,482.912a.348.348,0,0,1-.1-.014l-6.231-1.83a.353.353,0,1,1,.2-.678l6.231,1.83a.354.354,0,0,1-.1.693" transform="translate(-322.198 -332.451)" fill="#5f515c"/>
            <path id="Trazado_783802" data-name="Trazado 783802" d="M470.741,487.7a.349.349,0,0,1-.1-.014l-6.237-1.832a.353.353,0,0,1,.2-.678l6.237,1.832a.354.354,0,0,1-.1.693" transform="translate(-321.223 -335.767)" fill="#5f515c"/>
            <path id="Trazado_783803" data-name="Trazado 783803" d="M469.333,492.5a.348.348,0,0,1-.1-.014L463,490.652a.353.353,0,0,1,.2-.678l6.237,1.832a.354.354,0,0,1-.1.693" transform="translate(-320.249 -339.085)" fill="#5f515c"/>
            <path id="Trazado_783804" data-name="Trazado 783804" d="M467.925,497.293a.348.348,0,0,1-.1-.014l-6.237-1.832a.353.353,0,0,1,.2-.678l6.238,1.832a.354.354,0,0,1-.1.693" transform="translate(-319.274 -342.403)" fill="#5f515c"/>
            <path id="Trazado_783805" data-name="Trazado 783805" d="M466.517,502.085a.349.349,0,0,1-.1-.014l-6.237-1.832a.354.354,0,0,1,.2-.678l6.237,1.832a.354.354,0,0,1-.1.693" transform="translate(-318.3 -345.719)" fill="#5f515c"/>
            <path id="Trazado_783806" data-name="Trazado 783806" d="M465.153,506.893a.351.351,0,0,1-.1-.014l-6.282-1.845a.354.354,0,1,1,.2-.678l6.282,1.845a.354.354,0,0,1-.1.693" transform="translate(-317.325 -349.037)" fill="#5f515c"/>
            <path id="Trazado_783807" data-name="Trazado 783807" d="M463.7,511.671a.348.348,0,0,1-.1-.014l-6.237-1.832a.354.354,0,0,1,.2-.678l6.238,1.832a.354.354,0,0,1-.1.693" transform="translate(-316.35 -352.353)" fill="#5f515c"/>
            <path id="Trazado_783808" data-name="Trazado 783808" d="M462.077,516.4a.356.356,0,0,1-.1-.014l-6.021-1.769a.354.354,0,1,1,.2-.678l6.02,1.769a.354.354,0,0,1-.1.693" transform="translate(-315.377 -355.671)" fill="#5f515c"/>
            <path id="Trazado_783809" data-name="Trazado 783809" d="M460.022,521.006a.351.351,0,0,1-.1-.014l-5.375-1.579a.354.354,0,1,1,.2-.678l5.375,1.579a.354.354,0,0,1-.1.693" transform="translate(-314.402 -358.989)" fill="#5f515c"/>
            <path id="Trazado_783810" data-name="Trazado 783810" d="M454.045,509.609s.254,7.695.806,13.035q.04.389.083.778.05.459.1.919.058.517.118,1.035.065.563.13,1.126.069.6.14,1.193.073.619.146,1.237l.15,1.256.15,1.25.147,1.22.141,1.165.132,1.086.12.983q.052.428.1.856.043.352.087.7l.065.528.015.118c.006.052.036.127.02.173a.226.226,0,0,1-.1.112.45.45,0,0,1-.226.059c-.074.007-.108.009-.16-.05a.573.573,0,0,1-.081-.261l-.037-.151-.092-.381-.116-.479-.138-.569-.158-.651-.176-.725-.192-.791-.206-.849q-.109-.449-.218-.9l-.228-.941-.236-.974-.243-1-.247-1.019-.249-1.029-.25-1.031-.249-1.025-.245-1.011-.24-.989-.233-.959q-.111-.461-.223-.921l-.212-.875-.2-.822-.184-.759-.168-.69-.148-.612-.127-.526-.1-.432-.08-.33-.054-.221-.027-.109a2.082,2.082,0,0,0,1.392-1.781c.028-1.316-.205-5.308-.205-5.308Z" transform="translate(-312.023 -352.452)" fill="#aaa"/>
            <path id="Trazado_783811" data-name="Trazado 783811" d="M448.253,477.927l1.6-.058a1.438,1.438,0,0,0,1.021-.308,1.4,1.4,0,0,0,.282-.6c.671-2.34,1.017-4.719,1.493-7.1a9,9,0,0,0,.072-3.915,5.034,5.034,0,0,0-2.133-3.16,3.858,3.858,0,0,0-3.733.77,4.5,4.5,0,0,0-1.08,5.384,18.025,18.025,0,0,1,.76,1.871,17.132,17.132,0,0,1,.827,3.774c.065.618-.144,3.375.891,3.337M447,467.9c-.12-1.825.711-3.365,1.855-3.44s2.168,1.344,2.287,3.169-.711,3.365-1.854,3.44-2.168-1.344-2.288-3.169" transform="translate(-308.19 -320.125)" fill="#f09d4e"/>
            <path id="Trazado_783812" data-name="Trazado 783812" d="M451.167,541.4c.156-.23.008-.835-.016-1.071-.142-1.356-.38-1.983-.522-3.339q-.3-2.836-.594-5.672-.306-2.917-.611-5.834-.238-2.279-.477-4.558-.1-.92-.193-1.841a2.473,2.473,0,0,1-1.455-.6,43.689,43.689,0,0,1-2.331-4.915l-1.981.921c.128.463,2.7,7.263,4.03,12.757.725,3,3.36,12.81,3.493,13.289.072.258.181,1.114.575.935a.2.2,0,0,0,.082-.071" transform="translate(-306.577 -355.426)" fill="#aaa"/>
            <path id="Trazado_783813" data-name="Trazado 783813" d="M454.881,540a.668.668,0,1,1,.482.812.668.668,0,0,1-.482-.812" transform="translate(-314.794 -373.37)" fill="#7a6e78"/>
            <path id="Trazado_783814" data-name="Trazado 783814" d="M423.722,475.459a13.251,13.251,0,0,0,1.4,2.17c.6.813,1.119,1.692,1.716,2.511.561.77,1.233,2.49,2.069,2.959a.956.956,0,0,0,.759-.014,4.691,4.691,0,0,0,1.7-1.008,1.319,1.319,0,0,0,.483-.795,1.567,1.567,0,0,0-.161-.7,23.7,23.7,0,0,1-1.178-3.808,25.608,25.608,0,0,1-.045-3.246,7.645,7.645,0,0,0-1.341-4.246,3.33,3.33,0,0,0-4.011-1.1,3.663,3.663,0,0,0-1.485,1.806,6.706,6.706,0,0,0,.091,5.47m2.067-5.9c1.155-.324,2.511.906,3.028,2.749s0,3.6-1.154,3.924-2.511-.906-3.028-2.749,0-3.6,1.153-3.924" transform="translate(-292.808 -323.801)" fill="#f09d4e"/>
            <path id="Trazado_783815" data-name="Trazado 783815" d="M417.662,464.888a3.073,3.073,0,0,1-.925-.892,3.47,3.47,0,0,0-.9-.916,1.958,1.958,0,0,0-2.335.393.848.848,0,0,0-.26.472.389.389,0,0,0,.263.426c.183.041.353-.094.514-.19a1.68,1.68,0,0,1,1.85.209,2.741,2.741,0,0,1,.908,1.711c.04.246.058.5.113.741a.206.206,0,0,0,.057.118.191.191,0,0,0,.163.019,1.669,1.669,0,0,0,.8-.582l.9-.992c.3-.326.168-.489-.2-.427a1.355,1.355,0,0,1-.951-.091" transform="translate(-285.987 -320.323)" fill="#f09d4e"/>
            <path id="Trazado_783816" data-name="Trazado 783816" d="M387.537,594.427c2.244,2.059,7.758.008,10.294-.258,3.3-.346,7.09-.5,10.066-2.107a1.419,1.419,0,0,1,.952-.265,1.461,1.461,0,0,1,.6.384c2.77,2.435,6.329,1.575,9.682,1.9a.957.957,0,0,0,.8-.165.936.936,0,0,0,.158-.707,98.769,98.769,0,0,0-1.8-11.956c-.687-3.888-1.193-7.806-1.573-11.735-.356-3.675-.6-7.361-.784-11.048q-.137-2.768-.233-5.539-.049-1.385-.091-2.771a7.472,7.472,0,0,0-.144-2.459c-2.21.6-4.423,1.2-6.591,1.94-1.081.369-2.157.766-3.2,1.225a7.013,7.013,0,0,0-2.254,1.982,16.5,16.5,0,0,0-5.783-2.331c-1.133-.221-8.818-.516-11.9-.916a1.137,1.137,0,0,0-1.279,1.186,21.828,21.828,0,0,0,.343,2.819c.567,3.157,1.073,8.376,1.256,11.578.32,5.572.593,11.151.509,16.735-.047,3.144-1.223,9.357.577,12.035a2.627,2.627,0,0,0,.407.474" transform="translate(-266.061 -379.046)" fill="#7696d6"/>
            <path id="Trazado_783817" data-name="Trazado 783817" d="M389.379,594.449a4.882,4.882,0,0,1-3.393-1.05,3.184,3.184,0,0,1-.488-.568c-1.462-2.176-1.12-6.294-.844-9.6.085-1.02.165-1.982.176-2.737.086-5.725-.2-11.387-.508-16.7-.186-3.247-.687-8.386-1.248-11.514a22.135,22.135,0,0,1-.351-2.887,1.667,1.667,0,0,1,1.877-1.738c1.652.214,4.625.4,7.247.558,2.565.158,4.163.26,4.69.362a17.177,17.177,0,0,1,5.577,2.16,6.507,6.507,0,0,1,2.145-1.776c.938-.412,1.969-.806,3.245-1.241,2.186-.745,4.442-1.358,6.623-1.95l.441-.12.184.419a4.727,4.727,0,0,1,.2,2.01c-.009.232-.018.452-.013.645q.042,1.385.091,2.769.1,2.767.232,5.532c.2,4.053.456,7.659.782,11.023.406,4.2.919,8.022,1.567,11.694.152.863.314,1.725.475,2.587a72.054,72.054,0,0,1,1.336,9.434,1.218,1.218,0,0,1-1.544,1.429c-.861-.084-1.763-.087-2.635-.09-2.536-.009-5.159-.018-7.346-1.94a1.216,1.216,0,0,0-.364-.265c-.133-.033-.374.1-.57.208-2.677,1.449-5.988,1.763-8.91,2.04-.462.044-.917.087-1.364.134-.607.064-1.436.244-2.314.435a24.725,24.725,0,0,1-5,.736m-5-45.746a.592.592,0,0,0-.4.16.611.611,0,0,0-.2.48,21.146,21.146,0,0,0,.335,2.75,117.07,117.07,0,0,1,1.263,11.641c.306,5.328.6,11.012.51,16.773-.012.79-.093,1.77-.18,2.808-.261,3.144-.587,7.056.667,8.923a2.113,2.113,0,0,0,.325.378h0c1.478,1.358,4.93.608,7.451.059a24.685,24.685,0,0,1,2.429-.453c.45-.047.91-.091,1.375-.135,2.959-.281,6.018-.571,8.494-1.912a1.89,1.89,0,0,1,1.324-.315,1.818,1.818,0,0,1,.792.471c1.923,1.691,4.236,1.7,6.684,1.707.9,0,1.823.006,2.734.095a.809.809,0,0,0,.375-.008,1.286,1.286,0,0,0,.006-.309,71.218,71.218,0,0,0-1.319-9.294c-.162-.866-.324-1.732-.477-2.6-.654-3.7-1.17-7.552-1.579-11.776-.327-3.381-.584-7-.786-11.073q-.137-2.772-.233-5.546-.049-1.386-.091-2.773c-.007-.215,0-.462.013-.72a7.65,7.65,0,0,0-.008-1.1c-2,.544-4.056,1.114-6.039,1.789-1.246.425-2.251.809-3.161,1.208a6.687,6.687,0,0,0-2.063,1.841l-.3.353-.39-.252a16.076,16.076,0,0,0-5.6-2.256c-.485-.095-2.461-.216-4.552-.345-2.639-.162-5.631-.346-7.319-.565a.6.6,0,0,0-.081-.006" transform="translate(-264.868 -377.627)" fill="#4e76b7"/>
            <path id="Trazado_783818" data-name="Trazado 783818" d="M411.848,682.324a.615.615,0,0,1-.074,0,10.723,10.723,0,0,1-8.527-7.129.531.531,0,0,1,1.008-.331,9.638,9.638,0,0,0,7.666,6.409.531.531,0,0,1-.073,1.056" transform="translate(-279.055 -466.795)" fill="#4e76b7"/>
            <path id="Trazado_783819" data-name="Trazado 783819" d="M456.864,667.083a.531.531,0,0,1-.356-.924,15.092,15.092,0,0,0,5.366-10.867.531.531,0,0,1,1.061.04,16.117,16.117,0,0,1-5.716,11.615.53.53,0,0,1-.355.136" transform="translate(-315.814 -453.153)" fill="#4e76b7"/>
            <path id="Trazado_783820" data-name="Trazado 783820" d="M296.035,795.51a.529.529,0,0,1-.308-.1,51.255,51.255,0,0,1-17.277-21.419c-1.043-2.421-1.908-4.948-2.744-7.392q-.384-1.124-.774-2.246a166.56,166.56,0,0,0-21.395-41.395.531.531,0,0,1,.866-.615A167.635,167.635,0,0,1,275.934,764q.393,1.124.776,2.253c.83,2.425,1.687,4.932,2.714,7.315a50.185,50.185,0,0,0,16.919,20.975.53.53,0,0,1-.309.962" transform="translate(-175.398 -499.757)" fill="#4e76b7"/>
            <path id="Trazado_783821" data-name="Trazado 783821" d="M346.232,776.488a18.75,18.75,0,0,1-8.272-1.9c-4.337-2.144-7.577-5.84-10.71-9.414-2.642-3.014-5.375-6.131-8.736-8.268a.53.53,0,1,1,.569-.895c3.489,2.218,6.273,5.393,8.965,8.463,3.065,3.5,6.234,7.111,10.383,9.162a17.529,17.529,0,0,0,23.962-9.009.53.53,0,1,1,.98.405,18.912,18.912,0,0,1-10.634,10.29,18.543,18.543,0,0,1-6.507,1.162" transform="translate(-220.263 -523.156)" fill="#4e76b7"/>
            <path id="Trazado_783822" data-name="Trazado 783822" d="M255.555,596.549a5.256,5.256,0,0,0,.4.928c1.743,3.114,7.319,3.6,10.37,2.638,2.289-.721,3.991-1.639,6.531-1.647a29.185,29.185,0,0,1,7.684,1.21,9.507,9.507,0,0,0,4.85.492,6.022,6.022,0,0,0,3.4-2.73c1.8-2.867,1.867-6.338,2.262-9.615.472-3.915.768-7.849.951-11.788s.249-7.907.261-11.862c0-.861-.383-6.813-.314-9.77a1.054,1.054,0,0,0-1.376-1.043,34.411,34.411,0,0,1-9.824,1.753,24.178,24.178,0,0,1-5.147-.109c-1.247-.227-2.214-.276-3.044.977-.506.764-.157,1.8-.21,2.711-.884-4.566-5.883-4.921-9.568-5.752-1.144-.258-3.869-1.5-4.8-.589-1.256,1.228.132,6.439.118,8.092q-.054,6.132-.5,12.252-.5,6.826-1.484,13.6c-.408,2.8-1.55,7.243-.563,10.248" transform="translate(-176.59 -382.038)" fill="#7696d6"/>
            <path id="Trazado_783823" data-name="Trazado 783823" d="M261.916,599.9c-2.993,0-6.289-.987-7.615-3.357a5.861,5.861,0,0,1-.444-1.021h0c-.839-2.553-.236-5.977.248-8.728.111-.633.216-1.227.293-1.761.652-4.485,1.15-9.049,1.48-13.567.3-4.05.464-8.161.5-12.219a18.04,18.04,0,0,0-.248-2.147c-.445-2.985-.705-5.345.291-6.319.949-.924,2.825-.32,4.331.164.386.124.72.232.961.286.468.106.958.2,1.457.3,2.67.534,5.85,1.17,7.515,3.483a2.048,2.048,0,0,1,.246-.52c1.015-1.531,2.273-1.445,3.582-1.206a20.807,20.807,0,0,0,4.5.123l.535-.023a33.9,33.9,0,0,0,9.672-1.725,1.53,1.53,0,0,1,1.42.218,1.613,1.613,0,0,1,.66,1.34c-.047,2.013.118,5.422.227,7.677.051,1.045.087,1.8.087,2.082-.013,4.554-.1,8.33-.261,11.885-.2,4.284-.511,8.152-.954,11.827-.064.533-.12,1.071-.175,1.61-.29,2.813-.59,5.721-2.165,8.225a6.509,6.509,0,0,1-3.718,2.961,9.571,9.571,0,0,1-4.982-.455l-.143-.038a28.647,28.647,0,0,0-7.543-1.192,13.146,13.146,0,0,0-4.713,1.052c-.531.191-1.077.387-1.661.572a11.484,11.484,0,0,1-3.377.472m-7.051-4.711a4.751,4.751,0,0,0,.362.835c1.586,2.835,6.834,3.312,9.747,2.391.57-.179,1.1-.371,1.62-.558a14.167,14.167,0,0,1,5.068-1.114h.065a30.143,30.143,0,0,1,7.76,1.229l.143.039a8.805,8.805,0,0,0,4.432.453,5.465,5.465,0,0,0,3.091-2.5c1.443-2.293,1.73-5.077,2.007-7.768.056-.545.112-1.089.177-1.628.44-3.649.75-7.492.947-11.749.165-3.539.247-7.3.26-11.839,0-.256-.037-1.038-.085-2.028-.111-2.271-.277-5.7-.228-7.753a.552.552,0,0,0-.225-.459.48.48,0,0,0-.447-.07,34.979,34.979,0,0,1-9.975,1.782l-.532.022a21.855,21.855,0,0,1-4.732-.14c-1.219-.222-1.864-.22-2.506.748a2.42,2.42,0,0,0-.155,1.474,7.112,7.112,0,0,1,.032.975.531.531,0,0,1-1.051.07c-.7-3.631-4.25-4.341-7.681-5.027-.508-.1-1.006-.2-1.482-.309-.288-.065-.642-.179-1.053-.311-.97-.312-2.775-.892-3.265-.415-.686.671-.246,3.633.018,5.4a17.92,17.92,0,0,1,.26,2.313c-.036,4.08-.205,8.214-.5,12.286-.332,4.543-.832,9.132-1.487,13.642-.079.544-.186,1.149-.3,1.793-.463,2.634-1.041,5.912-.285,8.213" transform="translate(-175.397 -380.841)" fill="#4e76b7"/>
            <path id="Trazado_783824" data-name="Trazado 783824" d="M297.921,659.447a.53.53,0,0,1-.154-1.038,19.713,19.713,0,0,0,5.261-2.669c5.963-4.244,9.486-11.165,12.595-17.272a.531.531,0,0,1,.946.481c-3.164,6.216-6.75,13.261-12.925,17.656a20.829,20.829,0,0,1-5.568,2.819.528.528,0,0,1-.154.023" transform="translate(-205.815 -441.662)" fill="#4e76b7"/>
            <path id="Trazado_783825" data-name="Trazado 783825" d="M386.569,305.67a1.772,1.772,0,0,0-3.479.631,1.589,1.589,0,0,0,.7,1.043l1.025,20.051a.415.415,0,0,0,.824-.029l.316-20.142a1.628,1.628,0,0,0,.613-1.555" transform="translate(-265.106 -210.617)" fill="#5f515c"/>
            <path id="Trazado_783826" data-name="Trazado 783826" d="M389,334.851a.122.122,0,0,1-.123-.12l-.416-19.46a.123.123,0,0,1,.12-.125c.071.014.123.052.125.12l.416,19.46a.123.123,0,0,1-.12.125Z" transform="translate(-268.841 -218.102)" fill="#544551"/>
            <path id="Trazado_783827" data-name="Trazado 783827" d="M400.516,306.123a1.772,1.772,0,0,0-3.536-.03,1.589,1.589,0,0,0,.494,1.156l-2.74,19.89a.415.415,0,0,0,.815.125l4.074-19.728a1.629,1.629,0,0,0,.892-1.413" transform="translate(-273.181 -210.705)" fill="#5f515c"/>
            <path id="Trazado_783828" data-name="Trazado 783828" d="M395.99,334.606l-.021,0a.122.122,0,0,1-.1-.141l3.228-19.195a.12.12,0,0,1,.141-.1.122.122,0,0,1,.1.141L396.111,334.5a.123.123,0,0,1-.12.1" transform="translate(-273.967 -218.116)" fill="#544551"/>
            <path id="Trazado_783829" data-name="Trazado 783829" d="M412.9,313.391a1.238,1.238,0,0,0-2.469-.021,1.111,1.111,0,0,0,.345.807l-1.913,13.89a.29.29,0,0,0,.569.087l2.845-13.777a1.138,1.138,0,0,0,.623-.987" transform="translate(-282.956 -216.083)" fill="#5f515c"/>
            <path id="Trazado_783830" data-name="Trazado 783830" d="M409.736,333.282h-.014a.085.085,0,0,1-.07-.1l2.254-13.4a.084.084,0,0,1,.1-.07.085.085,0,0,1,.07.1l-2.254,13.4a.086.086,0,0,1-.084.071" transform="translate(-283.506 -221.258)" fill="#544551"/>
            <path id="Trazado_783831" data-name="Trazado 783831" d="M303.755,540.882a1.772,1.772,0,0,0-3.323,1.208,1.589,1.589,0,0,0,.867.91l4.384,19.593a.415.415,0,0,0,.808-.168l-3.077-19.908a1.629,1.629,0,0,0,.342-1.636" transform="translate(-207.854 -373.592)" fill="#5f515c"/>
            <path id="Trazado_783832" data-name="Trazado 783832" d="M310.491,569.932a.123.123,0,0,1-.12-.1l-3.684-19.113a.122.122,0,0,1,.241-.046l3.684,19.112a.123.123,0,0,1-.1.143l-.023,0" transform="translate(-212.247 -381.035)" fill="#544551"/>
            <path id="Trazado_783833" data-name="Trazado 783833" d="M254.746,458.417l5.707-1.045-5.081,21.116-4.607-3.527a1.963,1.963,0,0,1-.715-2.018l3.141-13.054a1.964,1.964,0,0,1,1.555-1.472" transform="translate(-173.014 -316.532)" fill="#544551"/>
            <path id="Trazado_783834" data-name="Trazado 783834" d="M308.122,466.98h0a1.017,1.017,0,0,0-.751-1.227l-34.833-8.382-5.081,21.116,34.834,8.382a1.017,1.017,0,0,0,1.227-.751A3.038,3.038,0,0,1,308,484.206l10.273,6.007a1.255,1.255,0,0,0,1.854-.79l4.29-17.829a1.256,1.256,0,0,0-1.292-1.547l-11.881.677a3.038,3.038,0,0,1-3.126-3.744" transform="translate(-185.098 -316.532)" fill="#5f515c"/>
            <path id="Trazado_783835" data-name="Trazado 783835" d="M292.874,387.769l-7.2-1.732,3.376-30.126a2.024,2.024,0,0,1,2.484-1.742l8.336,2.006a2.023,2.023,0,0,1,1.469,2.533Z" transform="translate(-197.708 -245.07)" fill="#544551"/>
            <path id="Trazado_783836" data-name="Trazado 783836" d="M316.581,328.909h0a1.753,1.753,0,0,0-2.115,1.294l-1.705,7.087,3.409.82,1.705-7.087a1.753,1.753,0,0,0-1.294-2.115" transform="translate(-216.452 -227.593)" fill="#544551"/>
            <path id="Trazado_783837" data-name="Trazado 783837" d="M305.541,264.056a.691.691,0,0,1-.075,0,.707.707,0,0,1-.629-.777c.6-5.7-1.026-8.506-2.747-11.472-.409-.7-.832-1.434-1.227-2.207-2.83-5.524-4.875-9.516-2.274-16.707a.707.707,0,1,1,1.33.481c-2.285,6.318-.816,9.687,2.2,15.58.379.74.793,1.453,1.192,2.142,1.759,3.032,3.577,6.167,2.93,12.33a.707.707,0,0,1-.7.633" transform="translate(-205.816 -160.852)" fill="#544551"/>
            <path id="Trazado_783838" data-name="Trazado 783838" d="M435.248,482.434a2.77,2.77,0,0,1,.351-3.16c1.718-2.354,4.107-3.768,6.255-5.742a24.085,24.085,0,0,1,5.727-3.668c1.644-1.232-.013-2.675-1.56-2.5-1.744.192-4.111,2.2-6.02,2.685a1.522,1.522,0,0,1-1.147-.024,1.172,1.172,0,0,1-.49-.829,2.5,2.5,0,0,1,.119-1.32,3.11,3.11,0,0,1,.809-.884q1.027-.964,2.1-1.882a5.847,5.847,0,0,1,2.524-1.526,28.6,28.6,0,0,1,2.935-.337c2.476-.21,5.461,1.343,7.633,2.35,1.726.8,2.392,2.119,4.178,1.057,1.238-.735,2.425-3.726,3.162-4.965,2.018-3.391,3.841-6.894,5.617-10.416,4.156-8.243,12.034-32.372,25.342-27.736a7.932,7.932,0,0,1,4.806,5.956,15.075,15.075,0,0,1-.807,7.865c-2.03,5.969-6.367,9.511-9.97,14.543-5.415,7.563-12.374,13.844-18.1,21.223-3.76,4.847-5.629,8.618-12.056,9.44-3.1.4-5.8,2.646-8.113,4.595-1.164.981-2.486,2.019-4.006,1.944-1.549-.077-.813-3.143,3.253-6.288a26.254,26.254,0,0,0,4.4-4.134c1.2-1.5-3.9.969-11.3,6.061a3.108,3.108,0,0,1-2.619.4c-.859-.27-1.449-1.44-.845-2.106a1.96,1.96,0,0,1-2.175-.6" transform="translate(-300.976 -292.706)" fill="#ffa385"/>
            <path id="Trazado_783839" data-name="Trazado 783839" d="M441.837,597.864a.295.295,0,0,1-.2-.507,42.027,42.027,0,0,1,13.287-8.625.294.294,0,1,1,.221.546,41.428,41.428,0,0,0-13.1,8.5.294.294,0,0,1-.2.083" transform="translate(-305.577 -407.428)" fill="#e28065"/>
            <path id="Trazado_783840" data-name="Trazado 783840" d="M310.86,92.62a11.338,11.338,0,0,1-4.191.688,3.856,3.856,0,0,1-3.356-2.261q.1,1.153.2,2.307c-2.322-.2-5.793-.835-7.749-2.177-2.126-1.458-3.119-4.985-3.483-7.367a44.557,44.557,0,0,1-.018-9.25,144.718,144.718,0,0,0-.34-21.069c-.253-2.834-.59-5.661-.8-8.5-.569-7.528-.509-15.338,1.789-22.6,2.061-6.512,6.519-12.629,12.942-14.95,1.163-.42,2.8-.519,3.295.616a2.6,2.6,0,0,1-.05,1.677c-1.336,5.084-3.6,9.91-4.618,15.068a47.246,47.246,0,0,0-.715,9.911,90.046,90.046,0,0,0,1,11.975c.519,3.429,1.849,6.856,1.208,10.262-1.4,7.425-.6,15.666.95,23.006A70.346,70.346,0,0,0,310.86,92.62" transform="translate(-201.263 -4.949)" fill="#dd5d41"/>
            <path id="Trazado_783841" data-name="Trazado 783841" d="M319.567,222.562a.261.261,0,0,1-.243-.165,68.316,68.316,0,0,1-4.835-24.522.261.261,0,0,1,.258-.264h0a.261.261,0,0,1,.261.258,67.794,67.794,0,0,0,4.8,24.335.262.262,0,0,1-.243.358" transform="translate(-217.648 -136.76)" fill="#ce4129"/>
            <path id="Trazado_783842" data-name="Trazado 783842" d="M364.234,40.915c3.032,15.454-3.577,29.761-14.761,31.956s-22.709-8.555-25.742-24.009,3.577-29.761,14.761-31.955,22.709,8.555,25.742,24.009" transform="translate(-223.535 -11.503)" fill="#ffa385"/>
            <path id="Trazado_783843" data-name="Trazado 783843" d="M349.273,35.97c2.24,5.381,2.767,11.315,2.864,17.144a126.714,126.714,0,0,1-5.61,39.41l7.377-2.175a3.039,3.039,0,0,0,2.543-2.227l1.689-3.988.821,6.039a18.9,18.9,0,0,1,5.241-3.052c-3.171-21.75-.781-44.571-8.423-65.18a39.994,39.994,0,0,0-4.471-8.963,38.006,38.006,0,0,0-6.063-6.646,25.612,25.612,0,0,0-9.231-5.7c-3.484-1.07-7.511-.858-10.478,1.259a2.809,2.809,0,0,1-1.361.679,3.282,3.282,0,0,1-1.39-.411c-2.827-1.148-6,.632-8.178,2.767-4.97,4.867-6.9,10.355-6.764,17.233.126,6.2,1.809,13.288,5.564,18.34a13.989,13.989,0,0,0-.136-3.16,23.081,23.081,0,0,1,.692-4.833,39.656,39.656,0,0,1,3.319-9.3,30.153,30.153,0,0,1,5.45-8.122c2.189-2.18,5-3.121,7.189-5.233-.316.3,9.313,11.606,10.176,12.613,3.546,4.138,7.065,8.428,9.179,13.506" transform="translate(-213.041 0)" fill="#dd5d41"/>
            <path id="Trazado_783844" data-name="Trazado 783844" d="M399.993,53a.261.261,0,0,1-.257-.22c-1.019-6.3-3.788-12.78-8.228-19.251-4.347-6.334-8.851-10.118-13.768-11.568a.261.261,0,1,1,.148-.5c5.037,1.485,9.633,5.337,14.051,11.774,4.484,6.534,7.281,13.083,8.313,19.463a.261.261,0,0,1-.216.3.247.247,0,0,1-.042,0" transform="translate(-261.291 -14.847)" fill="#ce4129"/>
            <path id="Trazado_783845" data-name="Trazado 783845" d="M419.588,65.154h-.023a.261.261,0,0,1-.238-.283,70.634,70.634,0,0,0-13.475-47.6c-1.917-2.583-4.317-5.351-7.579-6.291a.261.261,0,1,1,.145-.5c3.411.984,5.884,3.829,7.853,6.482a71.162,71.162,0,0,1,13.576,47.96.261.261,0,0,1-.26.239" transform="translate(-275.502 -7.241)" fill="#ce4129"/>
            <path id="Trazado_783846" data-name="Trazado 783846" d="M469.689,217.325a.255.255,0,0,1-.063-.008.261.261,0,0,1-.191-.316,112.45,112.45,0,0,0,3.206-24.06.273.273,0,0,1,.267-.255.261.261,0,0,1,.255.268,112.936,112.936,0,0,1-3.221,24.172.261.261,0,0,1-.253.2" transform="translate(-324.876 -133.352)" fill="#ce4129"/>
            <path id="Trazado_783847" data-name="Trazado 783847" d="M321.643,49.207a.262.262,0,0,1-.249-.181,76.865,76.865,0,0,1-2.187-8.4c-.176-.877-.364-1.749-.552-2.619a45.5,45.5,0,0,1-1.429-10.786A19.294,19.294,0,0,1,320.6,16.357c2.4-3.264,5.77-5.137,10.6-5.892a.261.261,0,0,1,.08.516c-4.746.743-7.908,2.5-10.255,5.686a18.776,18.776,0,0,0-3.273,10.568A44.428,44.428,0,0,0,319.166,37.9c.188.872.377,1.747.553,2.626a76.145,76.145,0,0,0,2.172,8.342.261.261,0,0,1-.169.329.268.268,0,0,1-.08.013" transform="translate(-219.536 -7.24)" fill="#ce4129"/>
            <path id="Trazado_783848" data-name="Trazado 783848" d="M326.765,46.239a.261.261,0,0,1-.26-.235,27.23,27.23,0,0,1,3.229-15.8c1.443-2.61,4.63-7.123,9.759-8.022a.261.261,0,0,1,.09.515c-4.916.861-7.995,5.231-9.393,7.76a26.705,26.705,0,0,0-3.167,15.495.261.261,0,0,1-.233.286l-.027,0" transform="translate(-225.87 -15.349)" fill="#ce4129"/>
            <path id="Trazado_783849" data-name="Trazado 783849" d="M367.016,15.635a.26.26,0,0,1-.185-.077,22.221,22.221,0,0,1-4.913-6.489.261.261,0,1,1,.473-.222,21.771,21.771,0,0,0,4.809,6.342.261.261,0,0,1-.185.446" transform="translate(-250.455 -6.019)" fill="#ce4129"/>
            <path id="Trazado_783850" data-name="Trazado 783850" d="M318.487,113.98c1.343,3.862,1.022,7.483-.717,8.088s-4.237-2.036-5.581-5.9-1.022-7.483.717-8.088,4.238,2.036,5.58,5.9" transform="translate(-215.482 -74.74)" fill="#ffa385"/>
            <path id="Trazado_783851" data-name="Trazado 783851" d="M365.8,107.512c.353,1.439-.1,2.786-1,3.008s-1.927-.765-2.28-2.2.1-2.786,1-3.008,1.927.765,2.28,2.2" transform="translate(-250.807 -72.858)" fill="#512229"/>
            <path id="Trazado_783852" data-name="Trazado 783852" d="M419.659,96.039c.353,1.439-.1,2.786-1,3.008s-1.927-.765-2.28-2.2.1-2.786,1-3.008,1.927.765,2.28,2.2" transform="translate(-288.078 -64.918)" fill="#512229"/>
            <path id="Trazado_783853" data-name="Trazado 783853" d="M406.587,126.185a2.222,2.222,0,0,1-1.118-.292.527.527,0,0,1,.53-.911,1.27,1.27,0,1,0,1.147-2.266.527.527,0,0,1,.421-.966,2.3,2.3,0,0,1-.277,4.334,2.484,2.484,0,0,1-.7.1" transform="translate(-280.43 -84.228)" fill="#e28065"/>
            <path id="Trazado_783854" data-name="Trazado 783854" d="M321.943,130.773a.363.363,0,0,1-.106-.016,1.728,1.728,0,0,1-1.045-1.081,2.819,2.819,0,0,1,.3-2.575.361.361,0,0,1,.6.407,2.117,2.117,0,0,0-.22,1.907,1.076,1.076,0,0,0,.584.651.361.361,0,0,1-.106.706" transform="translate(-221.882 -87.853)" fill="#e28065"/>
            <path id="Trazado_783855" data-name="Trazado 783855" d="M320.3,126.924a.362.362,0,0,1-.345-.465,1.71,1.71,0,0,0-2.523-1.956.361.361,0,1,1-.374-.618,2.432,2.432,0,0,1,3.588,2.782.361.361,0,0,1-.345.257" transform="translate(-219.305 -85.5)" fill="#e28065"/>
            <path id="Trazado_783856" data-name="Trazado 783856" d="M350.279,86.578c-3.142-1.85-7.152.8-8.528,3.732-.78,1.659,1.168,2.182,2.32,1.228.654-.541,1.075-1.318,1.709-1.881a5.83,5.83,0,0,1,4.172-1.121,1.4,1.4,0,0,0,.9-.154.861.861,0,0,0,.211-1.02,1.8,1.8,0,0,0-.782-.784" transform="translate(-236.391 -59.493)" fill="#dd5d41"/>
            <path id="Trazado_783857" data-name="Trazado 783857" d="M403.586,76.474c1.293-3.3,5.966-3.5,8.786-1.959,1.6.872.42,2.417-1.038,2.323-.827-.053-1.618-.429-2.444-.512a5.437,5.437,0,0,0-3.873,1.521,1.3,1.3,0,0,1-.781.4.885.885,0,0,1-.777-.692,1.771,1.771,0,0,1,.127-1.078" transform="translate(-279.194 -50.929)" fill="#dd5d41"/>
            <path id="Trazado_783858" data-name="Trazado 783858" d="M383.064,148.942l13.9-1.82s-3.668,15.368-13.9,1.82" transform="translate(-265.106 -101.818)" fill="#fff5e9"/>
          </g>
        </g>
      </g>
    </g>
  </g>
</svg>
