<svg xmlns="http://www.w3.org/2000/svg" width="102.38" height="102.379" viewBox="0 0 102.38 102.379">
  <g id="Grupo_1205391" data-name="Grupo 1205391" transform="translate(-313.5 -28255.781)">
    <path id="Trazado_1263069" data-name="Trazado 1263069" d="M49.69,0A49.69,49.69,0,1,1,0,49.69,49.69,49.69,0,0,1,49.69,0Z" transform="translate(315 28257.281)" fill="#efedee" stroke="#5ec6a3" stroke-width="3"/>
    <path id="Trazado_1263070" data-name="Trazado 1263070" d="M31.693,0A31.693,31.693,0,1,1,0,31.693,31.693,31.693,0,0,1,31.693,0Z" transform="translate(332.996 28275.277)" fill="#fff"/>
    <path id="Trazado_1263071" data-name="Trazado 1263071" d="M23.484,0A23.484,23.484,0,1,1,0,23.484,23.484,23.484,0,0,1,23.484,0Z" transform="translate(341.205 28283.486)" fill="#5ec6a3"/>
    <g id="Grupo_53739" data-name="Grupo 53739" transform="translate(356.338 28285.469)">
      <text id="_1" data-name="1" transform="translate(0 29)" fill="#12263f" font-size="28" font-family="Roboto-Black, Roboto" font-weight="800"><tspan x="0" y="0">1</tspan></text>
    </g>
  </g>
</svg>
