<svg xmlns="http://www.w3.org/2000/svg" width="102.38" height="102.379" viewBox="0 0 102.38 102.379">
  <g id="Grupo_1205392" data-name="Grupo 1205392" transform="translate(-838.5 -28263.715)">
    <path id="Trazado_1263072" data-name="Trazado 1263072" d="M49.69,0A49.69,49.69,0,1,1,0,49.69,49.69,49.69,0,0,1,49.69,0Z" transform="translate(840 28265.215)" fill="#efedee" stroke="#5ec6a3" stroke-width="3"/>
    <path id="Trazado_1263073" data-name="Trazado 1263073" d="M31.693,0A31.693,31.693,0,1,1,0,31.693,31.693,31.693,0,0,1,31.693,0Z" transform="translate(857.996 28281.777)" fill="#fff"/>
    <path id="Trazado_1263074" data-name="Trazado 1263074" d="M23.484,0A23.484,23.484,0,1,1,0,23.484,23.484,23.484,0,0,1,23.484,0Z" transform="translate(866.205 28289.986)" fill="#5ec6a3"/>
    <g id="Grupo_53739" data-name="Grupo 53739" transform="translate(881.338 28291.969)">
      <text id="_2" data-name="2" transform="translate(0 29)" fill="#12263f" font-size="28" font-family="Roboto-Black, Roboto" font-weight="800"><tspan x="0" y="0">2</tspan></text>
    </g>
  </g>
</svg>
